<svg width="499" height="438" viewBox="0 0 499 438" fill="none" xmlns="http://www.w3.org/2000/svg">
<g clip-path="url(#clip0)">
<path d="M324.645 246.438C319.851 249.688 320.163 251.376 320.466 257.258C321.153 270.502 322.818 284.225 321.544 297.355C315.986 354.584 238.919 342.853 200.144 331.903C177.346 325.466 173.094 295.847 170.541 275.656C169.496 267.382 170.52 259.225 166.01 251.723C162.255 245.484 154.298 236.935 147.047 235.021C126.867 229.697 138.684 271.861 140.595 278.649C143.992 290.72 148.079 302.469 150.877 314.716C153.769 327.368 151.38 343.549 161.945 352.808C167.592 357.759 174.973 360.503 181.421 364.441C189.091 369.125 196.725 374.071 204.437 378.407C209.581 381.298 215.707 385.012 221.461 386.061C233.263 388.209 246.347 385.577 258.324 385.313C264.209 385.182 269.664 384.659 275.543 385.329C280.491 385.893 284.807 386.296 289.606 384.866C299.409 381.944 307.67 373.987 314.009 366.413C323.558 355.006 336.249 345.922 342.047 331.787C344.397 326.062 347.165 320.6 347.74 314.346C348.244 308.896 348.018 304.022 349.268 298.67C352.3 285.711 352.283 271.468 353.65 258.187C354.171 253.094 356.331 244.11 355.221 239.268C354.136 234.533 350.19 235.199 345.833 236.228C338.4 237.988 330.94 242.172 324.645 246.438V246.438Z" fill="#8700C4" stroke="black" stroke-width="1.0982"/>
<path opacity="0.56" d="M170.404 286.589C168.917 280.727 170.037 271.976 166.273 267.13C162.124 272.845 164.579 283.772 165.613 290.288C166.655 296.858 167.897 303.559 169.775 309.933C172.631 319.628 174.554 331.308 182.862 337.923C182.442 333.525 183.165 327.087 182.218 323.437C180.761 317.807 177.013 312.706 175.47 306.833C173.725 300.194 172.111 293.314 170.404 286.589V286.589Z" fill="#BCBEC0"/>
<path opacity="0.56" d="M328.925 276.107C328.925 271.233 331.874 263.193 327.562 259.519C322.912 266.728 325.728 276.064 325.24 284.115C324.832 290.814 324.771 297.882 323.383 304.376C320.742 316.702 311.42 326.387 309.855 338.567C313.251 333.52 319.102 331.096 322.344 326.504C325.303 322.304 329.117 311.243 329.573 306.214C330.435 296.704 328.925 285.834 328.925 276.107V276.107Z" fill="#BCBEC0"/>
<path opacity="0.56" d="M157.496 305.739C158.528 312.252 159.294 319.013 159.028 325.619C158.852 329.984 156.371 338.156 158.291 342.247C155.579 336.463 155.011 332.696 155.79 326.475C159.151 299.598 137.085 277.206 140.585 250.387C148.824 254.426 152.441 269.432 153.896 277.601C155.557 286.932 156.018 296.399 157.496 305.739Z" fill="#BCBEC0"/>
<path opacity="0.56" d="M350.409 246.671C345.179 250.175 344.558 264.786 343.235 270.457C340.684 281.399 338.151 292.464 338.132 303.762C338.118 311.089 342.035 316.849 343.52 323.846C344.762 310.46 346.115 297.855 346.115 284.148C346.115 274.271 346.73 265.393 349.335 255.869C349.807 254.144 351.856 242.243 348.568 247.284" fill="#BCBEC0"/>
<path opacity="0.56" d="M263.972 374.917C268.834 373.875 272.651 377.336 276.571 379.881C275.586 378.531 274.675 377.092 273.891 375.634C276.519 377.219 279.459 379.061 282.186 380.436C279.492 375.55 272.536 373.944 268.765 369.448C265.997 366.148 264.629 363.343 264.553 359.103C265.086 359.002 265.573 359.004 266.093 358.921C265.535 359.01 260.907 351.522 260.358 350.662C260.1 352.409 261.14 375.523 263.972 374.917V374.917Z" fill="#BCBEC0"/>
<path opacity="0.56" d="M303.211 363.024C301.451 369.011 298.977 374.085 295.242 374.275C298.074 363.819 304.095 354.534 307.346 344.465C306.375 347.479 305.3 355.899 303.211 363.024Z" fill="#BCBEC0"/>
<path opacity="0.56" d="M312.965 359.012C315.083 353.969 321.497 351.147 325.275 347.497C329.31 343.597 333.511 338.863 336.332 334.064C334.39 339.721 330.6 345.354 326.499 349.789C321.837 354.834 315.095 356.755 310.51 362.081" fill="#BCBEC0"/>
<path opacity="0.56" d="M204.095 352.124C203.797 348.703 203.812 344.769 202.915 341.513C200.803 342.298 201.105 343.913 201.561 345.744C202.102 347.92 203.897 349.852 204.095 352.124V352.124Z" fill="#BCBEC0"/>
<path opacity="0.56" d="M296.631 342.129C293.484 342.546 293.627 348.597 293.858 351.198C294.46 348.747 298.095 344.007 296.171 342.129" fill="#BCBEC0"/>
<path opacity="0.56" d="M193.959 338.446C194.301 338.996 194.714 339.481 195.202 339.897C194.131 341.71 196.124 344.14 196.973 345.786C196.478 343.578 196.341 339.939 194.419 338.906" fill="#BCBEC0"/>
<path opacity="0.56" d="M219.282 344.892C219.899 346.611 220.854 347.919 222.457 348.687C220.044 350.967 223.904 358.997 225.541 361.52C222.476 358.66 218.836 348.997 219.25 344.571C219.813 345.223 220.313 345.983 220.663 346.734" fill="#BCBEC0"/>
<path opacity="0.56" d="M276.833 347.654C277.984 346.659 279.128 345.737 280.455 345.054C280.182 345.986 279.987 347.422 279.56 348.403C279.638 348.226 279.78 348.156 279.977 348.194C279.125 350.286 279.749 353.115 280.491 354.883C282.247 351.652 284.147 348.06 286.43 345.043C284.373 349.029 281.404 353.307 280.401 357.746C280.315 357.617 280.109 357.162 279.952 356.906C279.006 357.911 278.318 359.378 278.193 360.9C278.904 358.716 280.465 353.384 279.031 351.517C278.783 351.714 278.543 351.917 278.305 352.126C278.194 351.478 278.196 351.043 277.788 350.518C277.31 351.273 276.247 352.059 275.891 353.015C276.409 351.067 276.771 349.205 276.372 347.194" fill="#BCBEC0"/>
<path opacity="0.56" d="M232.634 348.575C233.771 346.851 234.903 346.174 235.652 344.364C235.625 344.207 235.407 345.393 235.454 345.273C235.981 345.125 237.087 345.037 237.629 344.938C236.493 349.469 236.695 354.419 235.968 358.498C235.67 354.801 234.196 351.354 234.015 347.654" fill="#BCBEC0"/>
<path opacity="0.56" d="M249.668 346.273C246.622 347.398 248.713 351.946 248.849 354.558C249.813 352.391 249.209 348.796 249.209 346.273" fill="#BCBEC0"/>
<path opacity="0.56" d="M262.561 346.734C263.711 347.075 264.557 347.376 264.813 348.498C264.544 348.543 264.277 348.587 264.007 348.632C264.105 349.908 264.294 351.318 264.664 352.578C262.935 349.946 261.322 347.336 262.547 344.1C262.888 345.407 263.499 346.648 264.402 347.655" fill="#BCBEC0"/>
<path d="M193.667 334.829C194.931 335.926 198.705 337.629 200.487 336.388C202.604 334.914 204.372 329.766 202.804 327.465C197.574 319.788 186.187 328.336 193.667 334.829Z" fill="white" stroke="black"/>
<path d="M205.025 326.843C204.144 324.988 201.653 323.014 199.502 323.056C198.527 323.075 195.288 324.231 194.93 325.299C193.809 328.664 194.784 333.757 196.796 336.902C197.455 337.931 198.441 339.11 199.559 339.597C201.479 340.431 201.269 339.861 202.627 338.43C203.49 337.522 205.539 336.263 205.941 335.083C206.419 333.689 205.678 328.218 205.025 326.843V326.843Z" fill="white" stroke="black"/>
<path d="M206.075 324.02C203.568 323.64 202.019 321.432 200.474 324.028C199.66 325.397 199.764 327.67 199.937 329.238C200.239 332.003 202.412 338.67 205.215 339.921C208.804 341.521 212.105 338.411 212.159 334.771C212.174 333.723 210.961 331.426 210.756 330.204C210.551 328.983 210.641 327.266 210.148 326.155C209.073 323.738 206.268 324.322 204.541 322.792" fill="white"/>
<path d="M206.075 324.02C203.568 323.64 202.019 321.432 200.474 324.028C199.66 325.397 199.764 327.67 199.937 329.238C200.239 332.003 202.412 338.67 205.215 339.921C208.804 341.521 212.105 338.411 212.159 334.771C212.174 333.723 210.961 331.426 210.756 330.204C210.551 328.983 210.641 327.266 210.148 326.155C209.073 323.738 206.268 324.322 204.541 322.792" stroke="black"/>
<path d="M208.804 337.649C210.527 339.631 214.448 343.728 214.606 343.626C220.732 339.666 219.633 322.973 210.769 322.608C204.226 322.339 206.092 333.25 208.039 336.688C208.124 336.842 208.405 337.188 208.804 337.649V337.649Z" fill="white" stroke="black"/>
<path d="M227.53 326.9C227.78 327.281 227.954 327.707 228.037 328.176C228.479 330.723 226.692 335.271 226.016 337.793C225.408 340.051 224.818 343.185 222.704 344.499C219.516 341.808 214.005 325.94 220.633 324.59C222.918 324.126 226.227 324.907 227.53 326.9V326.9Z" fill="white" stroke="black"/>
<path d="M237.008 326.924C240.026 328.552 236.036 344.007 232.702 344.675C229.425 345.331 228.101 335.324 227.948 333.196C227.493 326.892 231.121 323.746 237.008 326.924Z" fill="white" stroke="black"/>
<path d="M247.862 326.14C249.934 326.795 248.441 335.275 248.106 336.768C247.668 338.723 247.473 343.299 245.45 344.359C241.048 346.666 239.542 337.712 239.292 335.266C239.109 333.485 238.172 331.075 238.249 329.367C238.457 324.657 244.731 325.155 247.862 326.14Z" fill="white" stroke="black"/>
<path d="M305.487 335.188C304.207 336.267 300.412 337.919 298.646 336.655C296.549 335.153 294.851 329.981 296.448 327.701C301.779 320.093 313.052 328.793 305.487 335.188Z" fill="white" stroke="black"/>
<path d="M294.236 327.05C295.142 325.207 297.66 323.267 299.807 323.338C300.782 323.369 304.008 324.568 304.35 325.641C305.426 329.021 304.387 334.101 302.332 337.219C301.656 338.239 300.656 339.405 299.53 339.876C297.598 340.685 297.818 340.117 296.476 338.668C295.626 337.749 293.595 336.463 293.209 335.278C292.75 333.877 293.567 328.418 294.236 327.05V327.05Z" fill="white" stroke="black"/>
<path d="M293.225 324.212C295.737 323.865 297.311 321.678 298.822 324.294C299.617 325.673 299.484 327.947 299.29 329.512C298.952 332.272 296.692 338.909 293.874 340.124C290.261 341.676 287.003 338.522 286.995 334.882C286.995 333.834 288.24 331.553 288.46 330.334C288.687 329.117 288.614 327.397 289.122 326.294C290.229 323.891 293.031 324.513 294.776 323.005" fill="white"/>
<path d="M293.225 324.212C295.737 323.865 297.311 321.678 298.822 324.294C299.617 325.673 299.484 327.947 299.29 329.512C298.952 332.272 296.692 338.909 293.874 340.124C290.261 341.676 287.003 338.522 286.995 334.882C286.995 333.834 288.24 331.553 288.46 330.334C288.687 329.117 288.614 327.397 289.122 326.294C290.229 323.891 293.031 324.513 294.776 323.005" stroke="black"/>
<path d="M290.311 337.806C288.567 339.764 284.588 343.808 284.43 343.704C278.359 339.662 279.682 322.987 288.553 322.738C295.096 322.557 293.081 333.443 291.096 336.855C291.009 337.008 290.721 337.348 290.311 337.806V337.806Z" fill="white" stroke="black"/>
<path d="M271.733 326.809C271.477 327.186 271.297 327.609 271.212 328.078C270.733 330.619 272.46 335.19 273.105 337.721C273.68 339.986 274.23 343.129 276.324 344.471C279.551 341.823 285.273 326.029 278.662 324.592C276.381 324.095 273.064 324.832 271.733 326.809V326.809Z" fill="white" stroke="black"/>
<path d="M262.254 326.707C259.215 328.295 262.999 343.801 266.326 344.515C269.593 345.215 271.047 335.224 271.228 333.098C271.769 326.8 268.182 323.607 262.254 326.707Z" fill="white" stroke="black"/>
<path d="M252.061 326.816C250 327.504 251.629 335.958 251.989 337.447C252.458 339.395 252.725 343.969 254.762 344.995C259.201 347.23 260.564 338.255 260.777 335.805C260.931 334.021 261.831 331.597 261.726 329.891C261.442 325.184 255.176 325.782 252.061 326.816V326.816Z" fill="white" stroke="black"/>
<path d="M133.493 149.613C132.576 148.777 124.575 144.153 124.576 144.059C124.435 151.718 125.601 159.925 127.655 167.312C129.599 174.309 131.256 180.797 131.623 188.027C131.997 195.45 132.267 202.74 132.133 210.079C131.995 217.797 131.267 220.901 138.428 225.469C147.989 231.567 142.207 221.55 142.234 215.584C142.284 205.641 141.231 194.935 142.676 184.81C143.191 181.23 145.392 177.062 145.507 173.646C145.649 169.326 142.684 165.226 140.723 161.583C138.55 157.546 137.138 152.947 133.493 149.613V149.613Z" fill="white" stroke="black" stroke-width="1.0982"/>
<path d="M139.364 154.112C133.463 155.694 135.731 162.58 137.176 166.425C140.061 174.084 142.955 176.791 147.834 168.273C146.381 166.52 141.853 153.445 139.364 154.112Z" fill="white" stroke="black" stroke-width="1.0982"/>
<path d="M126.503 115.089C125.187 122.252 124.395 129.857 123.499 137.056C122.954 141.446 123.238 146.32 123.543 150.725C123.724 153.303 126.54 161.047 125.773 163.029C126.5 161.151 127.203 159.338 127.209 157.331C128.446 158.322 129.95 158.789 131.428 159.407C131.468 159.302 132.072 158.19 132.108 158.23C133.043 159.287 134.429 160.391 135.063 161.814C135.202 159.392 136.543 156.983 138.809 155.725C137.855 153.881 137.415 151.758 137.521 149.644C137.15 149.509 136.816 149.771 136.561 149.653C132.169 147.644 130.572 134.672 132.701 130.737C133.115 131.06 134.021 131.501 134.464 131.87C134.118 130.416 133.968 128.701 134.065 127.114C134.403 127.042 134.743 126.971 135.083 126.903C135.416 124.937 134.378 123.829 134.098 122.006C133.082 115.411 134.612 108.174 134.968 101.537C135.343 94.512 135.648 86.371 139.887 80.399C134.799 84.079 131.891 94.218 130.13 100.036C128.695 104.784 127.411 110.152 126.503 115.089V115.089Z" fill="white" stroke="black" stroke-width="1.0982"/>
<path d="M360.733 207.137C360.633 202.642 361.212 198.152 361.126 193.654C360.949 184.793 363.605 175.611 365.614 167.058C366.494 163.315 369.47 151.366 363.741 149.92C359.033 148.731 354.012 157.467 351.726 160.325C347.49 165.63 347.05 171.412 348.759 178.192C351.432 188.795 353.738 202.311 349.373 212.91C346.024 221.048 355.302 225.691 360.236 218.641C362.521 215.38 360.87 211.348 360.748 207.578C360.741 207.432 360.738 207.285 360.733 207.137V207.137Z" fill="white" stroke="black" stroke-width="1.0982"/>
<path d="M367.244 114.686C369.333 128.439 368.765 146.729 364.772 160.075C363.862 157.651 361.971 157.903 361.262 160.557C361.01 159.602 360.12 158.619 359.876 157.893C358.811 158.949 357.6 160.087 356.401 161.157C353.936 156.846 352.027 162.119 351.944 164.942C350.463 164.108 348.57 162.685 346.57 163.734C349.067 157.153 346.307 148.484 348.473 141.682C349.883 137.262 352.34 135.525 352.031 129.99C351.84 126.622 350.541 123.521 350.33 120.21C350.092 116.515 351.177 113.288 351.421 109.603C351.719 105.151 350.33 99.853 350.941 95.623C351.271 93.343 353.059 92.216 353.646 90.163C354.459 87.308 353.441 84.147 354.783 81.6C358.646 85.533 359.559 92 361.418 96.981C363.615 102.864 366.291 108.402 367.244 114.686V114.686Z" fill="white" stroke="black" stroke-width="1.0982"/>
<path d="M345.407 175.431C345.26 175.366 345.113 175.29 344.965 175.203C340.404 172.542 341.069 162.167 342.412 158.112C343.029 156.241 343.864 154.227 345.307 152.826C345.804 152.346 350.227 150.211 350.195 150.323C348.624 156.076 352.648 162.002 351.743 167.87C351.144 171.733 349.025 177.044 345.407 175.431V175.431Z" fill="white" stroke="black" stroke-width="1.0982"/>
<path d="M285.762 196.943C283.046 194.75 281.19 191.6 278.628 188.442C275.215 184.237 273.981 178.227 270.492 174.405C266.221 169.725 259.105 173.114 253.679 173.089C242.556 173.036 231.794 172.189 220.649 173.143C214.086 173.706 213.802 177.22 211.878 183.717C210.056 189.872 209.77 192.099 204.968 196.598C201.015 200.3 196.629 203.331 192.206 206.432C187.476 209.748 179.764 213.717 176.778 218.9C173.958 223.801 177.385 232.328 180.148 236.701C184.059 242.887 194.173 242.481 200.795 242.116C206.949 241.778 211.029 240.674 215.708 244.485C217.502 245.946 220.751 247.779 221.661 249.993C222.731 252.596 220.869 256.288 221.01 259.272C221.298 265.341 221.129 274.353 228.344 276.321C236.7 278.602 240.323 271.762 244.761 267.242C248.044 270.721 249.962 276.072 255.038 277.373C263.62 279.576 265.329 270.165 265.436 263.751C265.491 260.554 263.296 253.82 264.499 251.089C266.352 246.878 274.886 246.731 278.634 246.33C287.965 245.331 298.058 247.137 307.234 244.825C321.641 241.197 317.198 223.084 316.057 212.439C315.558 207.76 316.604 203.27 311.813 201.203C305.573 198.509 298.57 200.682 292.066 199.677C289.405 199.268 287.424 198.284 285.762 196.943V196.943Z" fill="black"/>
<path d="M274.159 203.86H218.032V289.13H274.159V203.86Z" fill="#7C7C7C"/>
<path d="M229.355 272.478C229.971 276.085 246.475 273.136 250.473 273.406C259.669 274.116 262.407 276.238 271.085 273.671C272.347 270.773 270.433 259.686 270.743 257.287C271.056 254.861 274.272 241.302 270.356 238.457C267.15 236.128 264.131 236.733 250.887 232.882C248.07 232.063 250.252 227.62 254.623 226.112C261.918 223.595 274.022 231.905 278.17 233.798C281.602 236.128 274.293 238.028 277.771 246.864C278.62 254.746 287.874 279.982 282.501 291.453C272.949 287.416 261.759 282.82 247.101 284.477C232.442 286.134 214.315 294.044 214.598 291.711C206.148 286.743 220.583 274.937 217.511 265.637C215.438 259.356 214.199 239.681 217.347 233.753C227.036 230.808 239.251 222.481 243.449 227.447C245.406 229.762 246.571 230.844 244.147 232.399C234.623 238.508 227.917 235.55 222.488 240.518C219.574 243.185 223.712 259.942 224.488 263.399C225.264 266.856 228.093 271.381 229.355 272.478H229.355Z" fill="#FF1700" stroke="black" stroke-width="0.918"/>
<path d="M229.934 264.167C230.271 262.395 235.486 253.922 235.766 252.263C236.6 247.335 235.808 248.964 234.833 242.784C233.779 240.464 233.985 235.908 233.693 233.255C230.653 228.535 227.43 236.249 225.326 234.962C222.165 236.051 222.84 238.539 220.854 243.399C222.23 245.075 222.312 246.132 222.622 248.424C223.341 253.726 224.201 252.084 222.52 256.652C221.386 259.737 220.938 260.749 220.943 264.042C228.413 266.776 227.171 266.322 229.934 264.167V264.167Z" fill="#00FF0B" stroke="black" stroke-width="1.0982"/>
<path d="M245.294 223.329C245.019 229.061 244.494 233.952 244.254 239.5C244.08 243.656 242.592 248.627 241.429 252.552C245.879 255.662 242.333 264.177 247.934 266.297C250.567 257.725 250.748 250.958 249.656 242.403C248.769 235.476 250.989 226.926 247.647 220.68C245.645 221.599 245.611 222.888 245.354 224.615" fill="#4339FF"/>
<path d="M245.294 223.329C245.019 229.061 244.494 233.952 244.254 239.5C244.08 243.656 242.592 248.627 241.429 252.552C245.879 255.662 242.333 264.177 247.934 266.297C250.567 257.725 250.748 250.958 249.656 242.403C248.769 235.476 250.989 226.926 247.647 220.68C245.645 221.599 245.611 222.888 245.354 224.615" stroke="black" stroke-width="1.10468"/>
<path d="M227.959 190.527C228.734 189.724 229.861 189.26 230.465 187.899C231.161 186.335 230.814 184.996 231.601 183.634C232.156 182.677 233.276 181.8 234.141 181.157C238.95 185.031 238.069 189.411 238.445 195.209C238.764 200.134 237.549 204.502 236.317 209.158C235.058 213.908 234.954 218.455 233.526 223.133C232.082 227.853 234.292 232.898 232.983 237.782C230.945 245.394 216.715 265.388 231.054 269.176C234.565 270.107 239.725 270.306 242.381 267.411C244.791 264.781 244.687 260.312 246.154 257.176C246.715 263.647 245.644 270.137 246.414 276.608C247.323 284.264 250.413 292.88 249.525 300.613C248.726 307.579 242.357 307.8 236.576 308.397C228.306 309.247 219.965 309.592 211.77 311.064C207.479 311.835 203.277 313.009 199.045 314.045C198.777 314.11 188.001 316.809 190.294 318.27C189.897 318.017 188.849 317.426 188.551 317.16C187.814 312.751 185.325 309.346 186.145 304.452C187.596 295.811 192.835 283.204 181.602 279.418C175.206 277.265 168.523 277.158 162.034 274.67C158.818 273.438 144.19 268.716 147.967 263.165C151.801 264.965 157.091 259.096 158.902 256.379C158.99 256.251 160.653 252.841 160.729 252.593C161.106 251.354 159.986 251.045 160.546 249.826C161.362 248.032 164.254 248.28 162.062 245.716C164.386 244.15 168.38 243.716 169.459 240.762C170.294 240.669 170.474 240.423 171.151 240.136C168.962 241.061 171.222 235.757 171.739 235.199C172.946 233.904 176.099 232.348 177.728 231.722C178.538 231.411 179.581 232.476 180.513 231.249C180.327 231.073 180.301 231.076 180.435 231.26C184.37 233.02 189.5 228.051 192.462 229.258C192.756 229.15 192.863 228.604 193.15 228.472C193.519 228.461 193.474 228.79 193.842 228.797C194.831 226.974 196.806 224.109 198.457 222.935C198.526 223.206 198.594 223.475 198.662 223.746C200.051 222.239 201.662 220.318 202.795 218.464C203.286 217.66 207.205 221.553 207.493 222.298C209.852 218.458 209.721 213.54 211.463 209.415C213.267 205.148 214.73 202.54 218.356 199.388C221.108 196.998 225.059 197.305 227.104 193.896C227.604 193.065 227.144 191.73 227.525 191.088C227.649 190.879 227.796 190.696 227.959 190.527V190.527Z" fill="#E9D40C" stroke="black" stroke-width="1.0982"/>
<path d="M259.54 234.152C259.424 235.952 255.295 245.004 255.222 246.685C255.002 251.678 255.184 251.102 256.914 257.115C258.247 259.287 260.413 260.889 261.03 263.486C264.63 267.794 265.47 261.548 267.717 262.566C270.718 261.095 268.368 260.784 269.739 255.716C268.167 254.223 269.329 251.109 268.738 248.873C267.371 243.7 268.761 246.542 268.024 242.303C268.769 239.101 267.214 238.274 266.803 235.007C259.053 233.216 262.016 231.674 259.54 234.152L259.54 234.152Z" fill="#00FF0B" stroke="black" stroke-width="1.0982"/>
<path d="M264.742 259.89C264.748 256.392 263.093 253.049 261.93 249.514C260.627 245.564 259.682 241.495 259.63 237.382C259.548 230.734 261.609 224.765 258.243 218.507C255.954 214.247 255.889 209.479 255.831 204.457C255.763 198.337 258.658 189.88 254.997 184.519C257.123 184.301 257.64 182.374 256.839 180.844C259.806 180.103 262.001 174.448 262.362 171.649C272.571 178.197 261.329 191.884 270.8 200.053C275.062 203.728 280.291 205.449 283.565 210.457C286.367 214.747 285.338 219.997 290.349 222.75C296.585 226.178 304.517 225.323 311.355 225.306C319.106 225.287 323.708 224.054 326.635 232.551C328.228 237.167 326.891 240.897 326.915 245.787C326.943 250.808 328.545 253.451 332.455 256.607C333.156 257.174 336.875 259.252 337.098 259.817C338.473 263.263 328.988 267.278 326.768 268.063C321.009 270.105 314.455 272.942 311.581 278.675C308.624 284.566 310.66 291.701 310.549 297.962C310.491 301.38 311.315 310.908 307.923 312.901C305.841 314.125 298.391 312.255 295.639 312.406C289.924 312.719 284.266 311.455 278.633 310.718C272.945 309.974 266.558 310.273 261.241 307.954C260.403 307.589 247.737 301.989 248.411 304.928C247.057 299.011 249.713 292.138 248.188 285.998C246.086 277.553 246.46 267.349 246.235 258.697C248.125 263.02 251.024 270.456 256.781 269.981C260.946 269.636 263.835 265.731 264.572 261.747C264.688 261.122 264.741 260.505 264.742 259.89V259.89Z" fill="#E9D40C" stroke="black" stroke-width="1.0982"/>
<path d="M296.368 235.34C294.642 237.101 294.648 240.018 298.994 240.228C301.357 240.342 303.771 239.258 303.426 236.333C300.951 233.092 297.941 233.735 296.368 235.34Z" fill="url(#paint0_linear)"/>
<path opacity="0.56" d="M261.793 299.465C263.586 300.719 264.937 302.177 265.46 304.145C266.889 301.161 266.334 295.612 264.402 292.939C264.039 293.084 263.923 293.585 263.634 293.697C262.772 292.652 261.364 291.963 260.609 291.088C262.43 293.306 262.207 297.432 261.178 300.079" fill="#BCBEC0"/>
<path opacity="0.56" d="M240.921 298.851C242.691 298.55 244.156 299.115 245.293 300.476C244.615 298.827 244.77 297.747 244.572 295.992C244.658 296.313 244.827 296.582 245.08 296.8C245.753 294.058 244.129 290.904 241.965 289.232C241.07 292.221 242.058 296.411 240.306 298.852" fill="#BCBEC0"/>
<path opacity="0.56" d="M270.388 299.465C272.086 300.011 273.479 300.98 274.593 302.363C275.772 296.131 272.049 289.557 271.74 283.507C271.39 276.781 276.288 268.874 272.948 262.054C274.311 265.423 272.643 271.483 271.477 274.907C270.082 279.015 270.418 278.983 270.399 282.904C270.376 287.566 273.107 294.877 271 299.465" fill="#BCBEC0"/>
<path opacity="0.56" d="M226.188 304.376C226.963 302.874 228.242 301.482 229.666 300.668C226.594 299.695 228.418 282.907 229.177 279.913C223.569 280.662 222.985 269.656 221.861 265.876C221.958 274.175 226.199 281.93 226.189 290.439C226.181 294.889 226.562 299.65 225.573 303.762" fill="#BCBEC0"/>
<path opacity="0.56" d="M286.516 297.486C286.445 296.476 285.294 295.047 285.089 293.939C283.935 287.708 285.693 280.789 285.733 274.482C285.69 281.362 284.053 288.969 283.096 295.793C282.815 297.795 282.826 300.424 281.517 302.131C279.794 304.38 276.473 303.567 275.374 307.368C279.333 306.499 282.348 305.751 286.254 308.041C285.563 304.168 286.776 301.122 286.516 297.486Z" fill="#BCBEC0"/>
<path opacity="0.56" d="M290.646 308.673C290.444 306.679 290.914 304.537 291.348 302.627C298.812 302.018 295.811 286.463 296.307 281.085C298.146 286.804 295.453 297.919 298.762 303.061C299.179 302.938 299.315 302.691 299.764 302.625C299.25 303.574 298.781 307.177 301.115 306.141C302.222 305.649 302.642 301.909 302.923 301.22C302.991 301.466 303.478 302.53 303.66 303.103C308.641 299.963 303.139 295.544 304.641 292.82C304.905 292.993 304.902 293.07 304.628 293.049C305.124 291.857 306.195 288.87 306.592 286.571C307.166 283.234 306.142 279.119 307.772 276.264C306.826 276.445 305.819 276.196 304.815 276.659C307.826 274.555 309.941 270.511 312.746 267.756C314.519 271.613 324.412 266.492 327.891 265.792C321.172 272.912 309.776 272.152 308.449 283.504C307.438 292.173 311.722 305.704 304.902 312.31C304.647 310.68 303.906 309.048 302.938 307.983C301.423 308.8 300.162 309.907 299.241 311.216C297.899 309.893 296.273 307.966 294.299 307.386C292.526 306.865 292.044 311.456 290.033 307.445" fill="#BCBEC0"/>
<path opacity="0.56" d="M294.941 240.532C294.426 244.496 289.024 244.353 285.83 244.308C287.488 248.905 283.845 247.711 280.917 248.605C281.589 253.151 282.338 257.904 282.802 262.647C283.148 266.225 282.195 272.284 283.909 275.307C285.33 270.419 285.158 265.287 286.964 260.363C290.324 271.757 291.157 286.169 291.258 297.14C291.294 289.809 289.108 273.352 293.56 267.593C293.884 269.263 295.373 271.104 295.604 272.377C296.119 275.238 295.251 278.05 296.186 280.862C296.089 274.072 293.96 267.481 294.208 260.855C293.567 261.784 291.981 262.947 291.272 263.932C288.854 262.573 289.564 259.692 288.805 257.351C288.737 257.577 288.581 257.677 288.34 257.65C287.981 255.539 286.661 254.28 284.74 255.342C285.93 253.119 285.681 249.321 287.577 247.688C288.174 247.174 290.21 248.234 291.318 247.469C293.372 246.053 294.846 242.237 293.714 239.92" fill="#BCBEC0"/>
<path opacity="0.56" d="M272.634 234.735C271.887 229.849 270.039 217.701 265.553 214.79C265.946 220.295 268.848 226.338 269.805 231.954C270.446 235.717 271.664 244.988 268.025 247.435C271.218 250.371 272.191 254.901 273.49 259.049C271.224 251.809 273.794 242.322 272.634 234.735V234.735Z" fill="#BCBEC0"/>
<path opacity="0.56" d="M214.552 296.585C214.44 296.816 211.293 303.605 210.889 303.031C207.074 297.63 205.031 288.918 207.189 282.433C204.772 289.699 205.93 298.62 205.93 306.308C206.556 306.632 205.318 306.206 205.974 305.844C204.512 306.88 203.631 307.787 202.723 309.205C202.516 308.667 201.714 308.155 201.543 306.911C200.43 307.531 198.605 308.553 197.441 309.207C197.06 304.053 198.631 298.235 197.826 293.344C195.193 297.448 195.599 303.779 195.369 308.611C193.456 308.82 194.466 308.346 192.56 309.719C192.402 309.532 191.311 308.067 191.33 308.103C191.014 308.645 190.893 309.292 190.417 309.717C188.798 302.735 191.154 297.771 191.827 291.111C191.759 291.282 191.64 291.382 191.468 291.412C191.461 287.579 190.008 282.472 188.745 279.73C190.051 288.857 183.049 307.505 189.849 314.795C189.681 313.27 190.516 312.048 190.691 310.607C191.763 310.371 193.829 310.011 194.727 309.991C195.353 311.035 196.815 311.842 197.367 312.789C198.787 307.776 202.126 309.907 205.158 312.304C203.122 310.693 210.471 308.048 212.615 310.316C212.374 307.88 213.908 306.862 216.285 307.35C215.015 304.365 214.448 300.051 214.552 296.585V296.585Z" fill="#BCBEC0"/>
<path d="M200.405 241.647C207.76 238.775 195.91 231.391 194.834 232.998C192.777 236.077 196.159 243.248 200.312 241.683C200.343 241.671 200.374 241.659 200.405 241.647Z" fill="url(#paint1_linear)"/>
<path opacity="0.56" d="M194.88 242.373C195.91 244.175 196.826 245.989 197.981 247.684C197.988 246.705 198.36 246.445 198.549 245.675C200.387 247.491 199.722 246.547 201.646 246.593C202.578 247.281 203.788 248.303 204.779 249.112C202.619 252.83 206.315 258.302 206.392 261.975C206.509 267.514 204.973 275.477 205.315 279.921C205.315 274.56 205.707 267.629 202.383 263.459C202.185 263.3 201.727 264.199 201.599 264.262C201.561 263.708 201.807 263.208 201.493 262.677C196.815 269.149 200.553 278.696 198.085 285.774C197.452 278.985 199.643 271.48 197.844 265.192C195.916 263.73 195.109 260.497 192.07 260.776C191.958 260.955 191.42 261.499 191.167 261.802C191.28 259.406 190.535 260.268 189.475 258.563C185.295 261.755 183.84 265.801 178.799 268.524C183.237 266.62 187.359 263.035 188.843 258.427C189.233 258.174 190.826 257.504 191.32 257.322C193.038 259.583 199.818 262.424 198.212 257.291C198.903 259.01 200.342 259.799 202.154 259.466C203.013 255.588 200.406 251.551 198.427 248.484C196.918 246.147 196.015 244.335 194.881 241.76" fill="#BCBEC0"/>
<path opacity="0.56" d="M228.643 219.045C228.587 231.399 220.105 242.969 221.325 255.03C218.954 247.261 221.7 239.195 223.901 231.473C225.807 224.778 226.857 217.785 229.522 211.326C228.225 215.39 227.049 218.869 229.871 222.728" fill="#BCBEC0"/>
<path d="M214.034 171.161C207.598 164.223 201.596 161.724 192.543 167.105C185.507 171.288 179.37 178.078 174.604 184.667C172.708 187.29 166.51 190.716 165.968 193.861C165.435 196.927 171.252 204.924 173.895 206.075C173.787 205.376 173.703 205.116 173.453 204.437C176.625 204.039 174.723 206.128 176.451 207.41C177.95 208.519 179.748 208.945 180.773 210.573C183.175 214.392 181.366 221.022 183.341 225.09C190.298 223.759 195.852 216.519 202.306 213.81C202.266 213.968 201.912 213.47 201.894 213.534C202.527 212.721 203.78 212.254 204.532 211.755C209.345 219.539 211.984 207.592 213.142 204.433C215.267 198.646 219.3 193.74 220.694 187.734C221.365 184.841 221.567 181.343 220.629 178.53C219.397 174.841 216.815 174.16 214.034 171.161V171.161Z" fill="white" stroke="black" stroke-width="1.0982"/>
<path d="M293.012 161.493C285.099 162.798 279.362 165.767 274.609 171.928C269.661 178.344 269.328 182.508 271.387 190.767C273.075 197.54 276.434 205.341 283.28 208.135C288.942 210.441 298.897 218.033 305.311 216.365C305.418 216.337 308.973 212.066 309.703 211.467C312.063 209.526 314.376 207.683 317.074 206.154C319.207 204.946 319.782 204.973 322.563 204.311C329.63 202.625 326.101 199.689 328.832 194.444C329.922 192.353 332.926 192.27 332.936 189.745C332.939 188.842 324.743 179.103 323.934 177.974C318.373 170.22 302.383 159.949 293.012 161.493V161.493Z" fill="white" stroke="black" stroke-width="1.0982"/>
<path d="M295.909 149.688C295.948 149.828 296.039 149.966 296.186 150.098C296.989 150.817 303.091 150.47 302.534 149.327C301.088 146.364 295.473 148.146 295.909 149.688Z" fill="url(#paint2_linear)"/>
<path d="M249.529 209.607C249.866 207.835 249.738 205.849 250.018 204.19C250.852 199.262 251.159 193.068 249.039 188.414C247.985 186.094 246.842 185.316 246.55 182.663C246.467 181.918 246.684 180.274 246.174 179.66C246.142 179.622 244.986 178.184 244.845 179.045C244.887 178.798 244.766 178.217 244.845 177.902C242.567 177.577 238.34 181.746 237.479 180.02C235.346 182.171 231.805 182.612 234.725 186.167C236.101 187.843 236.946 188.137 237.256 190.429C237.975 195.731 235.21 198.668 233.529 203.236C232.395 206.321 231.756 209.623 231.761 212.916C231.764 214.93 231.694 219.902 233.522 221.126C234.673 219.719 235.574 218.007 236.491 216.438C236.769 215.959 240.654 210.62 241.222 211.857C241.63 212.752 242.115 213.404 242.31 214.395C245.265 212.942 246.861 215.111 248.833 211.614C249.18 211.002 249.392 210.323 249.529 209.607V209.607Z" fill="#FDBEA9" stroke="black" stroke-width="1.0982"/>
<path d="M261.837 225.011C261.027 221.171 257.005 217.412 258.074 213.31C257.517 213.685 254.107 213.373 254.127 213.191C254.356 211.15 252.871 209.142 250.91 210.119C250.183 212.279 249.902 215.34 246.783 214.088C247.467 208.665 247.143 202.303 246.838 197.227C246.727 195.381 245.725 193.911 245.534 192.093C245.308 189.996 246.021 187.884 246.103 185.794C246.238 182.423 244.075 180.026 247.079 177.978C250.131 180.271 252.776 177.386 255.812 178.145C255.585 178.087 258.664 179.52 258.564 179.451C259.535 180.132 260.248 180.525 259.56 181.837C261.915 183.828 257.914 187.916 257.309 190.056C255.733 195.64 260.19 200.374 261.507 205.367C263.202 211.789 260.489 218.617 261.837 225.011V225.011Z" fill="#FDBEA9" stroke="black" stroke-width="1.0982"/>
<path opacity="0.56" d="M250.742 191.421C250.92 192.282 251.186 193.114 251.537 193.917C251.391 193.586 251.938 192.768 252.14 192.533C255.698 196.491 255.496 204.776 255.777 209.807C256.205 209.839 256.368 209.406 256.762 209.279C257.395 210.91 256.932 210.633 257.956 211.14C259.064 213.776 258.73 216.619 258.689 219.441C261.675 214.64 260.917 209.55 259.271 204.45C258.135 200.93 253.513 194.018 255.141 190.294C257.186 189.064 257.91 185.476 257.37 182.876C255.531 185.427 253.543 188.724 250.899 190.715C250.636 190.432 250.392 190.027 250.086 189.793C250.01 190.471 250.274 190.94 250.742 191.421" fill="#BCBEC0"/>
<path d="M222.504 193.416C223.306 196.529 225.212 201.009 224.706 204.126C224.181 207.356 220.639 211.691 218.547 214.098C221.054 210.397 218.963 206.97 219.026 203.029C219.084 199.445 221.216 195.82 222.504 192.495" fill="white"/>
<path d="M222.504 193.416C223.306 196.529 225.212 201.009 224.706 204.126C224.181 207.356 220.639 211.691 218.547 214.098C221.054 210.397 218.963 206.97 219.026 203.029C219.084 199.445 221.216 195.82 222.504 192.495" stroke="black" stroke-width="1.0982"/>
<path d="M228.032 199.911C227.124 201.766 220.828 211.335 219.631 212.855C220.671 211.538 219.339 205.106 219.116 203.568C218.668 200.487 222.536 190.274 224.614 187.765C228.929 184.044 230.872 189.562 230.353 192.646C230.182 194.853 229.053 197.823 228.032 199.911V199.911Z" fill="#14E1E7" stroke="black" stroke-width="1.0982"/>
<path d="M266.8 188.4C270.713 188.387 272.626 194.729 273.304 197.68C274.489 202.847 274.13 206.601 277.967 211.011C272.074 207.255 267.142 201.395 265.119 194.529C264.502 192.439 263.455 188.412 266.8 188.4V188.4Z" fill="white" stroke="black" stroke-width="1.0982"/>
<path d="M273.376 196.941C271.539 193.383 271.985 193.192 269.417 188.775C267.029 186.429 264.643 187.53 265.701 184.875C267.309 186.747 265.366 186.424 264.373 188.556C262.343 195.718 273.584 209.889 279.241 212.975C274.93 205.52 275.607 203.597 273.376 196.941V196.941Z" fill="#14E1E7" stroke="black" stroke-width="1.0982"/>
<path d="M175.47 203.395C174.812 203.005 174.114 202.638 173.24 202.251C172.481 201.914 170.093 200.91 169.65 200.228C168.905 199.075 170.88 198.331 170.453 197.561C169.444 195.75 166.653 195.082 165.082 193.841C164.075 193.045 164.021 190.957 163.355 190.512C162.311 189.818 160.864 190.467 159.724 189.842C158.441 189.139 157.88 187.859 157.03 186.824C154.883 184.215 153.036 181.187 150.691 178.671C148.975 176.832 147.083 175.786 146.435 173.171C146.315 172.689 140.143 182.135 139.665 183.411C137.728 188.592 136.153 194.373 136.867 199.941C137.219 202.671 137.742 204.145 137.777 206.767C137.835 211.321 140.489 216.638 139.536 221.002C138.161 218.248 135.96 221.43 134.068 221.372C133.183 221.344 127.323 217.761 127.489 217.28C126.302 220.74 125.855 224.674 124.971 228.114C129.928 230.037 134.782 244.494 137.206 249.002C139.384 253.054 143.309 263.319 146.995 265.424C150.254 263.979 152.811 265.131 156.096 264.991C157.323 258.932 162.384 255.106 164.874 249.693C164.423 249.172 164.322 249.396 163.763 249.023C164.085 248.318 164.679 247.179 164.859 246.838C168.146 245.021 174.441 241.765 174.529 237.566C174.182 237.496 173.833 237.428 173.484 237.356C174.369 235.143 176.311 233.374 175.815 230.312C176.091 230.867 176.359 231.184 176.568 231.83C180.407 232.385 187.136 232.297 190.12 230.261C192.249 228.807 194.688 226.482 195.362 223.99C192.735 223.789 191.017 226.546 188.433 227.048C186.138 227.493 182.991 227.112 180.685 226.944C180.036 225.58 179.506 207.938 181.822 208.759C181.588 208.676 180.34 208.316 180.167 208.541C180.469 208.147 180.67 207.255 181.018 206.859C178.099 207.287 178.719 205.547 177.279 204.567C176.643 204.132 176.073 203.753 175.47 203.395V203.395Z" fill="#4A9640" stroke="black" stroke-width="1.0982"/>
<path opacity="0.56" d="M142.356 194.045C139.457 197.942 140.313 211.618 143.198 215.324C143.331 215.177 143.496 215.11 143.69 215.121C142.446 219.367 145.435 222.551 144.59 227.12C142.716 237.272 148.661 244.966 150.474 254.586C150.384 254.544 150.294 254.504 150.205 254.465C150.223 256.033 150.219 257.6 150.241 259.168C148.673 253.918 147.496 248.767 145.59 243.559C144.488 240.543 142.367 237.432 141.54 234.405C140.555 230.804 140.738 225.542 137.938 222.46C138.976 223.362 139.717 223.182 140.963 223.275C139.519 220.756 140.196 217.286 139.655 214.619C138.9 210.899 137.965 207.78 137.684 204.006C137.179 197.151 137.49 191.12 140.652 185.177C139.703 186.962 143.317 192.446 143.656 194.264C143.22 194.212 142.781 194.148 142.356 194.045V194.045Z" fill="#BCBEC0"/>
<path opacity="0.56" d="M150.679 220.119C152.383 220.393 153.567 221.406 154.154 222.949C152.804 219.079 151.683 215.413 150.816 211.397C150.108 208.107 150.572 203.331 149.273 200.486C149.411 207.188 149.794 213.22 151.14 219.659" fill="#BCBEC0"/>
<path opacity="0.56" d="M160.348 232.551C165.751 236.077 172.418 236.333 178.624 236.212C177.137 237.116 175.492 238.096 173.808 238.477C174.041 238.424 170.596 237.065 170.214 236.993C168.621 236.69 167.03 237.142 165.411 236.704C162.042 235.793 158.572 232.682 157.585 229.329" fill="#BCBEC0"/>
<path opacity="0.56" d="M167.416 220.725C162.009 215.123 159.233 207.779 159.417 200.002C160.042 203.55 166.042 206.907 168.93 209.124C165.995 206.871 164.359 203.36 162.067 200.554C159.729 197.687 156.599 194.754 156.229 190.791C153.958 196.455 152.859 203.843 154.443 209.844C155.915 215.415 159.571 221.238 164.106 224.802C168.419 228.193 180.279 234.13 185.518 230.224C181.682 233.085 169.699 223.088 167.416 220.725V220.725Z" fill="#BCBEC0"/>
<path d="M341.105 183.273C340.893 183.353 340.691 183.437 340.489 183.524C340.522 183.509 333.411 186.467 335.674 187.393C333.76 186.61 331.825 185.46 329.854 184.246C329.805 187.81 327.786 189.449 326.164 192.433C325.827 193.052 325.514 193.683 325.212 194.326C324.027 196.868 322.571 200.098 319.262 199.471C319.413 200.403 318.928 201.679 319.121 202.601C318.456 202.116 317.075 202.081 316.499 201.763C316.671 202.512 316.219 203.64 316.362 204.397C312.567 205.234 312.859 207.336 312.323 210.522C312.129 211.682 312.276 213.991 311.335 214.901C311.064 215.162 308.313 216.252 308.693 215.563C307.912 216.981 306.844 218.001 306.694 219.591C305.391 219.676 290.478 217.267 290.726 216.036C288.58 226.691 302.003 225.04 308.197 225.044C310.733 225.045 313.751 224.126 316.19 225.069C318.866 226.103 321.977 229.006 324.553 230.595C323.516 231.317 322.556 232.359 321.99 233.403C323.31 233.402 324.72 233.536 325.98 234.014C324.054 235.72 321.246 236.701 321.562 239.491C321.673 240.505 324.164 240.748 323.865 243.073C324.289 243.101 324.71 243.157 325.132 243.233C324.653 244.069 322.959 247.261 323.279 248.204C324.078 250.544 327.062 250.086 328.677 251.072C328.489 251.31 328.296 251.546 328.094 251.775C330.613 253.812 331.493 257.769 330.285 260.693C332.803 260.121 332.803 262.705 333.062 264.721C333.331 266.826 346.024 258.199 346.837 257.427C350.157 254.276 351.884 250.954 355.56 248.229C360.358 244.676 360.913 242.693 362.009 237.152C363.546 229.409 368.722 222.16 367.378 214.135C366.24 207.319 362.695 208.982 359.254 211.374C358.333 212.014 357.919 213.166 356.819 213.719C355.47 214.398 353.128 213.689 352.282 214.138C350.621 215.025 349.099 217.173 347.771 219.067C351.283 214.054 354.117 206.337 354.282 200.148C354.441 194.246 354.822 187.765 353.311 182.021C352.98 180.754 351.103 177.228 352.704 175.973C351.172 177.174 350.559 179.494 348.887 180.497C346.763 181.771 343.569 182.321 341.105 183.273V183.273Z" fill="#4A9640" stroke="black" stroke-width="1.0982"/>
<path opacity="0.56" d="M349.303 216.01C351.967 207.573 355.553 198.777 353.781 189.668C353.342 187.422 352.433 185.147 352.012 182.948C351.224 185.336 351.08 186.837 350.973 189.363C350.656 196.758 350.881 203.402 348.096 210.203C346.187 214.872 344.82 219.645 345.514 225.125C347.407 224.524 349.033 221.378 350.846 220.106C353.69 218.108 356.963 217.832 360.522 216.897C356.953 215.578 353.054 217.326 349.622 217.758C349.659 217.352 349.856 216.338 349.96 216.044C349.742 215.93 349.521 215.918 349.303 216.01V216.01Z" fill="#BCBEC0"/>
<path opacity="0.56" d="M341.753 259.255C344.237 256.912 346.378 253.822 347.645 250.644C348.157 249.368 348.767 244.13 350.098 243.703C354.634 242.245 357.279 237.235 358.335 233.001C358.541 232.183 357.342 231.815 357.566 231.18C357.916 230.19 359.123 229.705 359.71 228.867C361.032 226.969 362.837 225.605 363.869 223.472C362.783 231.892 362.675 244.055 353.341 247.364C352.817 252.857 345.796 255.989 342.214 259.255" fill="#BCBEC0"/>
<path opacity="0.56" d="M343.594 210.451C338.712 222.543 329.35 225.775 318.275 230.053C324.796 228.529 332.673 225.807 338.159 222.088C343.141 218.711 341.385 214.508 343.594 210.451Z" fill="#BCBEC0"/>
<path opacity="0.56" d="M345.719 192.13C344.939 195.699 345.161 199.357 345.043 202.243C345.996 200.507 347.14 198.289 347.299 196.286C347.374 195.323 345.831 191.618 345.719 192.13Z" fill="#BCBEC0"/>
<path opacity="0.56" d="M333.066 197.827C332.435 197.956 331.821 197.904 331.267 197.604C328.968 201.283 323.951 205.634 323.379 210.033C326.213 211.153 327.58 206.058 330.201 205.41C326.033 218.449 308.663 220.79 297.681 223.354C301.921 222.364 307.505 223.854 312.018 223.244C318.608 222.353 324.703 218.408 329.943 214.587C336.58 209.749 338.576 200.588 337.975 192.79C337.608 194.72 335.263 197.376 333.066 197.827V197.827Z" fill="#BCBEC0"/>
<path d="M133.522 123.829C133.468 127.845 131.946 132.26 132.249 136.753C132.683 143.21 133.943 148.263 137.638 153.33C140.232 156.886 142.897 159.497 144.879 163.384C145.868 165.319 142.372 172.646 141.902 174.853C141.23 178.011 139.87 181.318 139.598 184.503C140.245 183.732 141.422 183.26 141.886 182.877C141.718 183.454 141.652 184.112 141.53 184.63C141.897 184.279 142.862 183.731 143.232 183.323C142.8 184.536 142.732 186.129 143.419 187.391C145.171 185.679 146.263 182.731 147.85 180.661C147.847 181.04 147.624 181.483 147.502 181.839C147.955 181.82 148.8 181.79 149.231 181.974C149.279 182.519 149.369 183.129 149.38 183.667C150.666 184.766 152.196 185.242 153.441 186.142C157.788 189.28 161.304 191.914 166.152 194.458C171.95 197.5 171.045 196.303 175.821 190.989C180.346 185.954 186.132 181.145 189.799 175.52C189.27 175.407 188.723 175.39 188.187 175.338C191.385 173.281 194.385 170.765 197.353 167.707C197.547 168.094 197.698 168.483 197.907 168.829C198.887 167.638 200.245 166.44 201.497 165.685C201.488 165.691 214.743 176.234 216.497 177.528C221.554 181.263 227.586 184.478 231.089 189.944C236.909 186.915 239.094 180.944 246.311 181.138C248.905 181.207 254.127 180.906 256.745 181.736C259.185 182.509 260.614 185.36 262.62 187.183C263.16 187.435 262.409 187.361 262.395 186.705C262.409 189.111 262.818 191.268 264.707 192.587C264.491 189.348 269.099 183.627 271.743 180.848C278.372 173.873 288.738 171.244 294.975 164.471C296.278 164.523 297.558 164.579 299.133 164.519C301.436 174.272 312.924 178.935 318.869 186.28C319.409 185.971 320.171 185.651 320.632 185.317C320.74 186.923 320.28 188.608 319.374 190.018C321.41 189.219 325.538 188.182 327.534 186.546C328.222 188.674 326.668 190.702 326.182 193.1C327.167 191.597 328.461 190.282 329.871 189.148C329.745 189.672 329.53 190.14 329.379 190.654C330.613 189.365 331.563 187.649 332.268 186.054C332.117 187.653 332.686 189.235 333.004 190.589C336.958 183.975 341.307 183.59 349.529 183.347C349.14 181.013 351.392 178.949 351.313 177.778C351.169 175.675 348.742 173.691 347.738 171.774C344.687 165.946 345.918 159.888 347.245 153.42C347.709 153.429 347.76 153.785 348.195 153.882C351.392 154.593 355.487 138.721 355.973 136.101C357.346 128.713 357.853 121.129 354.557 114.121C355.348 114.745 356.611 115.1 357.494 115.767C357.651 112.23 354.969 109.082 355.184 105.632C355.997 106.209 356.878 106.31 357.464 106.62C357.504 104.008 356.715 101.22 355.812 98.786C357 99.487 358.632 99.513 359.921 99.886C360.704 95.777 358.795 91.227 357.125 87.581C351.849 76.033 345.647 66.373 337.977 56.395C333.879 51.067 328.695 48.306 323.328 44.615C310.271 35.635 296.538 29.79 280.931 26.746C265.55 23.746 247.343 20.893 231.725 23.353C221.063 25.032 211.569 25.943 201.318 29.293C192.075 32.313 183.317 36.818 175.252 42.229C159.114 53.052 144.435 68.221 137.303 86.568C135.084 92.274 132.645 98.163 132.436 104.362C132.22 110.798 133.607 117.356 133.522 123.829V123.829Z" fill="white" stroke="black" stroke-width="1.0982"/>
<path opacity="0.56" d="M143.926 172.39C145.901 165.25 148.807 161.388 152.688 155.186C155.087 151.353 158.834 146.636 160.039 142.309C163.721 129.06 151.543 117.577 149.928 105.522C147.928 109.017 148.511 113.523 148.085 117.72C147.869 117.177 147.241 116.275 147.014 115.486C145.602 120.596 146.047 120.856 142.067 123.74C139.882 125.323 137.986 126.525 136.056 128.389C135.821 128.603 135.825 128.577 136.065 128.309C136.45 128.156 136.641 128.314 136.635 128.787C136.043 128.798 135.166 129.336 133.923 129.033C132.636 133.788 134.029 145.886 137.202 150.086C136.83 146.992 137.429 142.407 139.508 140.915C139.124 140.769 140.215 140.685 140.872 141.022C140.933 139.578 141.722 139.116 140.918 137.525C141.783 137.764 142.853 137.486 143.832 137.953C143.568 137.254 143.771 136.318 143.375 135.544C149.231 131.702 155.126 138.942 154.379 144.778C153.325 152.973 146.25 160.322 145.769 169.319" fill="#BCBEC0"/>
<path opacity="0.56" d="M348.349 173.003C343.141 162.423 333.64 152.524 332.393 140.334C331.44 131.038 338.015 126.156 339.86 117.233C346.156 116.712 347.054 103.612 347.249 98.899C353.961 108.551 352.367 128.187 349.562 139.11C349.583 137.284 349.136 135.445 347.904 134.364C346.588 136.641 346.802 139.728 345.281 141.749C344.077 143.346 342.713 142.154 341.584 143.492C339.152 146.378 339.54 150.332 339.761 153.985C340.127 160.109 342.641 164.656 345.282 169.934" fill="#BCBEC0"/>
<path opacity="0.56" d="M252.584 153.358C255.82 153.744 260.345 153.353 260.043 149.137C265.296 149.304 268.547 142.833 272.887 140.557C276.399 138.719 281.563 137.753 285.563 137.979C280.927 139.298 264.801 145.187 265.388 151.293C262.791 152.041 263.578 155.036 261.211 155.856C259.129 156.579 254.906 153.145 252.584 152.744" fill="#BCBEC0"/>
<path opacity="0.56" d="M186.376 103.721C186.236 104.033 186.214 104.348 186.314 104.667C184.838 101.919 182.163 100.705 179.16 101.086C180.128 94.832 170.955 95.98 167.443 96.776C172.069 95.104 175.794 97.115 179.66 98.118C185.775 99.703 191.811 101.802 193.558 108.643C191.714 106.238 189.104 104.896 186.376 103.721Z" fill="#BCBEC0"/>
<path opacity="0.56" d="M146.166 100.502C144.751 99.768 143.043 99.107 141.459 98.753C141.049 100.021 140.031 100.797 140.106 102.356C139.749 101.424 138.356 100.757 137.789 100.017C134.233 103.867 136.073 110.609 137.217 115.11C132.311 105.509 132.958 86.699 142.005 79.321C141.242 79.944 141.674 88.797 141.825 90.158C142.225 93.78 143.49 97.9 146.166 100.502Z" fill="#BCBEC0"/>
<path opacity="0.56" d="M342.824 68.643C346.957 74.365 344.67 84.164 343.518 90.523C346.672 88.473 351.659 91.072 353.151 94.283C353.219 91.539 351.782 88.923 352.145 86.142C353.259 87.26 354.259 89.032 354.992 90.581C354.935 83.57 348.263 76.73 344.667 71.099" fill="#BCBEC0"/>
<path opacity="0.56" d="M229.256 179.142C230.738 172.853 233.878 162.611 227.777 157.815C222.918 153.992 212.885 154.391 207.019 153.959C198.595 153.339 190.099 153.94 182.002 155.679C166.441 159.016 155.965 169.904 152.764 185.34C153.427 185.216 153.808 184.941 154.377 184.59C154.941 185.029 154.866 185.738 155.573 185.975C156.006 185.854 156.237 185.295 156.65 185.375C157.837 186.607 159.333 187.387 160.991 187.646C161.383 187.02 162.067 186.61 162.464 185.988C168.48 189.208 167.804 185 171.631 180.565C176.379 175.063 183.67 167.586 191.008 166.4C189.56 165.703 188.476 164.806 186.947 164.275C191.9 160.378 200.684 158.813 207.11 159.622C207.033 160.09 206.659 160.103 206.62 160.572C210.148 162.083 214.933 162.051 218.637 163.061C218.439 163.006 217.378 162.708 217.144 162.674C228.562 165.768 228.417 174.899 229.703 183.87C229.512 182.541 231.492 179.14 231.694 177.502C231.987 175.116 231.255 173.143 231.198 170.906C231.083 166.639 232.507 161.982 228.809 158.719C228.759 158.674 228.705 158.63 228.651 158.586" fill="#BCBEC0"/>
<path opacity="0.56" d="M265.114 163.391C270.577 156.951 283.715 156.158 291.02 155.887C303.527 155.422 316.484 155.606 327.083 163.192C330.015 165.29 332.626 167.835 334.587 170.876C335.728 172.647 337.37 180.712 338.446 181.399C335.46 179.492 331.702 176.206 328.842 179.694C328.575 178.173 327.476 177.591 327.005 176.737C326.022 179.991 322.782 183.135 319.109 182.12C318.968 182.08 315.416 173.565 314.624 172.562C312.088 169.354 308.854 167.071 305.373 165.012C298.211 160.778 289.937 162.382 282.626 166.177C279.438 167.83 276.593 172.468 273.46 173.629C270.259 174.815 267.558 173.165 265.085 176.201C263.806 177.772 263.8 180.578 263.19 182.443C260.612 177.574 261.305 169.9 263.897 165.157C264.242 164.524 264.651 163.937 265.114 163.391Z" fill="#BCBEC0"/>
<path opacity="0.56" d="M141.932 181.905C138.586 175.383 145.578 166.196 148.932 161.064C152.937 154.935 157.996 149.457 159.438 142.148C160.325 137.649 162.33 128.162 157.204 125.313C156.964 130.645 159.359 138.879 154.467 142.712C154.274 142.492 154.096 142.191 153.879 142C153.939 147.129 152.424 152.938 150.24 157.595C146.974 164.559 138.974 174.116 141.931 182.366" fill="#BCBEC0"/>
<path opacity="0.56" d="M334.846 127.115C334.094 131.028 332.105 134.526 332.058 138.615C332.012 142.919 333.853 147.229 335.756 151.044C339.787 159.134 344.536 166.794 347.194 175.398C344.519 171.746 343.505 165.28 341.753 160.78C340.299 157.046 338.815 153.317 338.454 149.283C330.939 148.852 334.239 130.168 335.767 126.193" fill="#BCBEC0"/>
<path d="M195.12 145.076C197.384 144.297 199.976 144.955 201.17 147.229C199.695 148.929 195.548 147.575 194.264 145.932" fill="url(#paint3_linear)"/>
<path d="M291.729 146.583C292.959 148.006 297.708 147.876 297.528 145.268C297.257 141.458 291.588 146.422 291.729 146.583Z" fill="url(#paint4_linear)"/>
<path d="M194.7 311.109C194.099 310.71 193.445 310.425 192.741 310.302C190.384 314.883 190.387 323.531 191.934 328.585C192.249 329.599 197.535 326.072 197.88 325.652C199.211 324.06 199.519 322.732 199.456 320.683C199.374 318.01 197.694 313.104 194.7 311.109Z" fill="white" stroke="black"/>
<path d="M200.285 327.428C209.405 323.836 203.951 304.489 198.617 311.665C197.214 313.551 195.966 329.13 200.285 327.428Z" fill="white" stroke="black"/>
<path d="M213.735 322.986C215.962 317.142 211.534 306.048 205.858 310.928C203.17 313.241 203.096 324.991 207.079 326.014C210.719 326.949 212.806 325.425 213.735 322.986Z" fill="white" stroke="black"/>
<path d="M219.073 307.411C217.012 307.091 214.771 307.974 213.55 310.322C211.966 313.371 213.519 317.166 214.78 320.193C215.217 321.242 219.731 326.867 219.605 327.249C221.134 322.621 224.666 316.471 223.429 311.444C222.865 309.144 221.055 307.72 219.073 307.411V307.411Z" fill="white" stroke="black"/>
<path d="M231.993 322.504C234.629 320.296 233.894 310.823 232.453 308.157C230.015 303.643 225.414 306.78 224.288 310.588C223.169 314.372 223.235 319.654 224.133 323.472C227.997 324.261 230.479 323.772 231.993 322.504V322.504Z" fill="white" stroke="black"/>
<path d="M249.212 320.047C248.658 311.579 246.701 298.877 241.018 302.163C234.907 305.692 233.817 315.026 234.08 320.9C234.274 325.317 234.903 325.95 239.767 326.587C240.44 326.675 249.341 326.993 249.357 326.821C249.43 326.003 249.428 323.347 249.212 320.047V320.047Z" fill="white" stroke="black"/>
<path d="M303.635 308.654C304.214 308.226 304.854 307.907 305.549 307.746C308.138 312.204 308.573 320.841 307.289 325.966C307.026 326.994 301.566 323.742 301.199 323.34C299.789 321.818 299.416 320.507 299.372 318.457C299.319 315.783 300.746 310.8 303.635 308.654V308.654Z" fill="white" stroke="black"/>
<path d="M298.886 325.237C289.596 322.116 294.055 302.515 299.754 309.411C301.246 311.223 303.289 326.715 298.886 325.237Z" fill="white" stroke="black"/>
<path d="M285.229 321.486C282.708 315.763 286.564 304.458 292.481 309.044C295.286 311.217 295.96 322.946 292.032 324.174C288.445 325.291 286.28 323.876 285.229 321.486Z" fill="white" stroke="black"/>
<path d="M279.106 306.204C281.146 305.78 283.43 306.546 284.768 308.83C286.506 311.795 285.15 315.663 284.045 318.751C283.66 319.819 279.438 325.669 279.582 326.044C277.822 321.498 273.98 315.536 274.957 310.454C275.406 308.125 277.143 306.613 279.106 306.204Z" fill="white" stroke="black"/>
<path d="M266.971 321.936C264.226 319.864 264.478 310.367 265.776 307.632C267.983 303 272.737 305.897 274.057 309.641C275.366 313.364 275.571 318.642 274.866 322.501C271.049 323.485 268.546 323.125 266.971 321.936V321.936Z" fill="white" stroke="black"/>
<path d="M249.648 320.36C249.772 311.876 251.076 299.089 256.92 302.083C263.202 305.296 264.767 314.562 264.805 320.441C264.834 324.862 264.241 325.526 259.414 326.409C258.747 326.533 249.873 327.302 249.851 327.133C249.734 326.32 249.602 323.666 249.648 320.36Z" fill="white" stroke="black"/>
<path d="M196.607 359.174C198.871 358.395 201.463 359.053 202.657 361.327C201.182 363.027 197.035 361.673 195.751 360.03" fill="url(#paint5_linear)"/>
<path d="M293.215 360.681C294.445 362.104 299.194 361.974 299.014 359.366C298.743 355.555 293.075 360.52 293.215 360.681Z" fill="url(#paint6_linear)"/>
<path d="M387.029 357.373L247.332 252.217" stroke="#FF0000" stroke-linecap="round"/>
<path d="M369.006 252.492L342.784 238.463" stroke="#FF0000" stroke-linecap="round"/>
<path d="M241.575 194.975L129.353 68.4489" stroke="#FF0000" stroke-linecap="round"/>
<path d="M224.02 197.265L115.615 131.033" stroke="#FF0000" stroke-linecap="round"/>
<path d="M200.977 271.799L89.3587 292.521" stroke="#FF0000" stroke-linecap="round"/>
<path d="M165.923 324.538L98.6484 354.736" stroke="#FF0000" stroke-linecap="round"/>
<path d="M229.52 253.162L108.063 218.782" stroke="#FF0000" stroke-linecap="round"/>
<path d="M384.677 152.807L256.58 230.59" stroke="#FF0000" stroke-linecap="round"/>
<path d="M164.974 432H162.621V417.006C162.055 417.547 161.309 418.087 160.386 418.627C159.471 419.167 158.647 419.573 157.915 419.843V417.568C159.231 416.95 160.381 416.2 161.366 415.32C162.351 414.44 163.048 413.586 163.458 412.758H164.974V432ZM178.556 432V427.412H170.242V425.255L178.987 412.836H180.909V425.255H183.497V427.412H180.909V432H178.556ZM178.556 425.255V416.614L172.556 425.255H178.556ZM194.583 432V419.947H192.504V418.117H194.583V416.64C194.583 415.708 194.665 415.015 194.831 414.562C195.057 413.952 195.454 413.459 196.02 413.085C196.596 412.701 197.397 412.509 198.426 412.509C199.088 412.509 199.82 412.588 200.622 412.745L200.269 414.797C199.781 414.71 199.319 414.666 198.883 414.666C198.169 414.666 197.663 414.819 197.367 415.124C197.071 415.429 196.922 416 196.922 416.836V418.117H199.628V419.947H196.922V432H194.583ZM210.531 430.288C209.659 431.028 208.818 431.551 208.008 431.856C207.206 432.161 206.343 432.314 205.419 432.314C203.894 432.314 202.722 431.943 201.903 431.203C201.084 430.453 200.674 429.499 200.674 428.34C200.674 427.66 200.827 427.041 201.132 426.484C201.445 425.917 201.851 425.464 202.347 425.124C202.853 424.784 203.419 424.527 204.047 424.353C204.509 424.231 205.206 424.113 206.138 424C208.038 423.773 209.437 423.503 210.334 423.189C210.343 422.867 210.348 422.662 210.348 422.575C210.348 421.616 210.125 420.941 209.681 420.549C209.08 420.017 208.186 419.751 207.001 419.751C205.894 419.751 205.075 419.947 204.544 420.34C204.021 420.723 203.633 421.407 203.38 422.392L201.079 422.078C201.289 421.093 201.633 420.3 202.112 419.699C202.591 419.089 203.284 418.623 204.191 418.3C205.097 417.969 206.147 417.804 207.341 417.804C208.526 417.804 209.489 417.943 210.23 418.222C210.971 418.501 211.515 418.854 211.864 419.281C212.213 419.699 212.457 420.231 212.596 420.876C212.674 421.276 212.714 422 212.714 423.046V426.183C212.714 428.37 212.762 429.756 212.857 430.34C212.962 430.915 213.162 431.468 213.459 432H211.001C210.757 431.512 210.6 430.941 210.531 430.288ZM210.334 425.033C209.48 425.381 208.199 425.677 206.491 425.921C205.524 426.061 204.84 426.218 204.439 426.392C204.038 426.566 203.729 426.823 203.511 427.163C203.293 427.494 203.184 427.865 203.184 428.274C203.184 428.902 203.419 429.425 203.89 429.843C204.369 430.261 205.066 430.471 205.981 430.471C206.888 430.471 207.694 430.274 208.4 429.882C209.106 429.481 209.624 428.937 209.955 428.248C210.208 427.717 210.334 426.932 210.334 425.895V425.033ZM225.433 426.915L227.747 427.216C227.494 428.81 226.845 430.061 225.799 430.967C224.762 431.865 223.485 432.314 221.969 432.314C220.069 432.314 218.539 431.695 217.38 430.457C216.23 429.211 215.655 427.429 215.655 425.111C215.655 423.612 215.903 422.3 216.4 421.176C216.897 420.052 217.651 419.211 218.661 418.653C219.681 418.087 220.788 417.804 221.982 417.804C223.489 417.804 224.723 418.187 225.681 418.954C226.64 419.712 227.254 420.793 227.524 422.196L225.237 422.549C225.019 421.616 224.631 420.915 224.073 420.444C223.524 419.974 222.858 419.738 222.073 419.738C220.888 419.738 219.925 420.165 219.184 421.019C218.444 421.865 218.073 423.207 218.073 425.046C218.073 426.911 218.431 428.266 219.145 429.111C219.86 429.956 220.792 430.379 221.943 430.379C222.866 430.379 223.638 430.096 224.256 429.529C224.875 428.963 225.267 428.091 225.433 426.915ZM229.773 415.542V412.836H232.126V415.542H229.773ZM229.773 432V418.117H232.126V432H229.773ZM244.78 430.288C243.908 431.028 243.067 431.551 242.257 431.856C241.455 432.161 240.592 432.314 239.668 432.314C238.143 432.314 236.971 431.943 236.152 431.203C235.333 430.453 234.923 429.499 234.923 428.34C234.923 427.66 235.076 427.041 235.381 426.484C235.694 425.917 236.1 425.464 236.596 425.124C237.102 424.784 237.668 424.527 238.296 424.353C238.758 424.231 239.455 424.113 240.387 424C242.287 423.773 243.686 423.503 244.584 423.189C244.592 422.867 244.597 422.662 244.597 422.575C244.597 421.616 244.374 420.941 243.93 420.549C243.329 420.017 242.435 419.751 241.25 419.751C240.143 419.751 239.324 419.947 238.793 420.34C238.27 420.723 237.882 421.407 237.629 422.392L235.328 422.078C235.538 421.093 235.882 420.3 236.361 419.699C236.84 419.089 237.533 418.623 238.44 418.3C239.346 417.969 240.396 417.804 241.59 417.804C242.775 417.804 243.738 417.943 244.479 418.222C245.22 418.501 245.764 418.854 246.113 419.281C246.462 419.699 246.706 420.231 246.845 420.876C246.923 421.276 246.963 422 246.963 423.046V426.183C246.963 428.37 247.011 429.756 247.106 430.34C247.211 430.915 247.411 431.468 247.708 432H245.25C245.006 431.512 244.849 430.941 244.78 430.288ZM244.584 425.033C243.73 425.381 242.448 425.677 240.74 425.921C239.773 426.061 239.089 426.218 238.688 426.392C238.287 426.566 237.978 426.823 237.76 427.163C237.542 427.494 237.433 427.865 237.433 428.274C237.433 428.902 237.668 429.425 238.139 429.843C238.618 430.261 239.315 430.471 240.231 430.471C241.137 430.471 241.943 430.274 242.649 429.882C243.355 429.481 243.873 428.937 244.204 428.248C244.457 427.717 244.584 426.932 244.584 425.895V425.033ZM250.571 432V412.836H252.924V432H250.571ZM266.205 432H264.022V412.836H266.375V419.673C267.368 418.427 268.636 417.804 270.179 417.804C271.033 417.804 271.839 417.978 272.597 418.327C273.364 418.666 273.992 419.15 274.48 419.778C274.976 420.396 275.364 421.146 275.643 422.026C275.922 422.906 276.061 423.847 276.061 424.85C276.061 427.229 275.473 429.067 274.297 430.366C273.12 431.664 271.708 432.314 270.061 432.314C268.423 432.314 267.137 431.63 266.205 430.261V432ZM266.179 424.954C266.179 426.619 266.405 427.821 266.859 428.562C267.599 429.773 268.601 430.379 269.865 430.379C270.893 430.379 271.782 429.935 272.532 429.046C273.281 428.148 273.656 426.815 273.656 425.046C273.656 423.233 273.294 421.895 272.571 421.032C271.856 420.17 270.989 419.738 269.97 419.738C268.941 419.738 268.052 420.187 267.303 421.085C266.554 421.974 266.179 423.263 266.179 424.954ZM278.061 425.059C278.061 422.488 278.776 420.584 280.205 419.346C281.399 418.318 282.854 417.804 284.571 417.804C286.48 417.804 288.04 418.431 289.251 419.686C290.462 420.932 291.068 422.658 291.068 424.863C291.068 426.649 290.798 428.057 290.258 429.085C289.726 430.105 288.946 430.898 287.918 431.464C286.898 432.031 285.783 432.314 284.571 432.314C282.628 432.314 281.055 431.691 279.852 430.444C278.658 429.198 278.061 427.403 278.061 425.059ZM280.48 425.059C280.48 426.836 280.868 428.17 281.643 429.059C282.419 429.939 283.395 430.379 284.571 430.379C285.739 430.379 286.711 429.935 287.486 429.046C288.262 428.157 288.65 426.802 288.65 424.98C288.65 423.263 288.258 421.965 287.473 421.085C286.698 420.196 285.73 419.751 284.571 419.751C283.395 419.751 282.419 420.191 281.643 421.072C280.868 421.952 280.48 423.281 280.48 425.059ZM293.839 432V418.117H295.957V420.091C296.977 418.566 298.45 417.804 300.376 417.804C301.212 417.804 301.979 417.956 302.676 418.261C303.382 418.557 303.909 418.95 304.258 419.438C304.607 419.926 304.851 420.505 304.99 421.176C305.077 421.612 305.121 422.375 305.121 423.464V432H302.768V423.555C302.768 422.597 302.676 421.882 302.493 421.412C302.31 420.932 301.983 420.553 301.513 420.274C301.051 419.987 300.506 419.843 299.879 419.843C298.877 419.843 298.009 420.161 297.277 420.797C296.554 421.433 296.192 422.64 296.192 424.418V432H293.839ZM318.245 427.529L320.677 427.83C320.293 429.25 319.583 430.353 318.546 431.137C317.509 431.922 316.184 432.314 314.572 432.314C312.541 432.314 310.929 431.691 309.735 430.444C308.55 429.189 307.957 427.433 307.957 425.176C307.957 422.841 308.559 421.028 309.761 419.738C310.964 418.449 312.524 417.804 314.441 417.804C316.297 417.804 317.814 418.435 318.99 419.699C320.167 420.963 320.755 422.741 320.755 425.033C320.755 425.172 320.751 425.381 320.742 425.66H310.389C310.476 427.185 310.907 428.353 311.683 429.163C312.459 429.974 313.426 430.379 314.585 430.379C315.448 430.379 316.184 430.152 316.794 429.699C317.404 429.246 317.888 428.523 318.245 427.529ZM310.52 423.725H318.271C318.167 422.558 317.87 421.682 317.382 421.098C316.633 420.191 315.661 419.738 314.467 419.738C313.387 419.738 312.476 420.1 311.735 420.823C311.003 421.547 310.598 422.514 310.52 423.725ZM322.703 427.856L325.03 427.49C325.16 428.423 325.522 429.137 326.115 429.634C326.716 430.131 327.553 430.379 328.624 430.379C329.705 430.379 330.507 430.161 331.03 429.725C331.553 429.281 331.814 428.762 331.814 428.17C331.814 427.638 331.583 427.22 331.121 426.915C330.799 426.706 329.997 426.44 328.716 426.118C326.99 425.682 325.792 425.307 325.121 424.993C324.459 424.671 323.953 424.231 323.605 423.673C323.265 423.107 323.095 422.483 323.095 421.804C323.095 421.185 323.234 420.614 323.513 420.091C323.801 419.56 324.189 419.12 324.677 418.771C325.043 418.501 325.539 418.274 326.167 418.091C326.803 417.899 327.483 417.804 328.206 417.804C329.296 417.804 330.25 417.96 331.069 418.274C331.897 418.588 332.507 419.015 332.899 419.555C333.291 420.087 333.561 420.802 333.71 421.699L331.409 422.013C331.304 421.298 330.999 420.741 330.494 420.34C329.997 419.939 329.291 419.738 328.376 419.738C327.295 419.738 326.524 419.917 326.062 420.274C325.6 420.632 325.37 421.05 325.37 421.529C325.37 421.834 325.465 422.109 325.657 422.353C325.849 422.605 326.149 422.815 326.559 422.98C326.794 423.067 327.487 423.268 328.638 423.582C330.302 424.026 331.461 424.392 332.115 424.68C332.777 424.958 333.296 425.368 333.67 425.908C334.045 426.449 334.232 427.12 334.232 427.921C334.232 428.706 334.002 429.447 333.54 430.144C333.086 430.832 332.428 431.368 331.566 431.752C330.703 432.126 329.727 432.314 328.638 432.314C326.834 432.314 325.457 431.939 324.507 431.19C323.566 430.44 322.964 429.329 322.703 427.856Z" fill="white"/>
</g>
<defs>
<linearGradient id="paint0_linear" x1="293.773" y1="240.031" x2="301.139" y2="236.348" gradientUnits="userSpaceOnUse">
<stop stop-color="white"/>
<stop offset="0.1046" stop-color="#FAFAFA"/>
<stop offset="0.2282" stop-color="#ECECEC"/>
<stop offset="0.3616" stop-color="#D4D4D4"/>
<stop offset="0.5018" stop-color="#B2B2B2"/>
<stop offset="0.6474" stop-color="#888888"/>
<stop offset="0.7976" stop-color="#535353"/>
<stop offset="0.9487" stop-color="#161616"/>
<stop offset="1"/>
</linearGradient>
<linearGradient id="paint1_linear" x1="202.287" y1="239.833" x2="196.149" y2="236.764" gradientUnits="userSpaceOnUse">
<stop stop-color="white"/>
<stop offset="0.1046" stop-color="#FAFAFA"/>
<stop offset="0.2282" stop-color="#ECECEC"/>
<stop offset="0.3616" stop-color="#D4D4D4"/>
<stop offset="0.5018" stop-color="#B2B2B2"/>
<stop offset="0.6474" stop-color="#888888"/>
<stop offset="0.7976" stop-color="#535353"/>
<stop offset="0.9487" stop-color="#161616"/>
<stop offset="1"/>
</linearGradient>
<linearGradient id="paint2_linear" x1="298.498" y1="147.148" x2="299.727" y2="151.141" gradientUnits="userSpaceOnUse">
<stop stop-color="#F4D58D"/>
<stop offset="0.1072" stop-color="#EFD18A"/>
<stop offset="0.2341" stop-color="#E1C482"/>
<stop offset="0.3708" stop-color="#C9AF74"/>
<stop offset="0.5146" stop-color="#A79261"/>
<stop offset="0.6639" stop-color="#7D6D48"/>
<stop offset="0.8179" stop-color="#483F2A"/>
<stop offset="0.9728" stop-color="#0B0A07"/>
<stop offset="1"/>
</linearGradient>
<linearGradient id="paint3_linear" x1="198.258" y1="144.155" x2="197.401" y2="148.011" gradientUnits="userSpaceOnUse">
<stop stop-color="white"/>
<stop offset="0.1046" stop-color="#FAFAFA"/>
<stop offset="0.2282" stop-color="#ECECEC"/>
<stop offset="0.3616" stop-color="#D4D4D4"/>
<stop offset="0.5018" stop-color="#B2B2B2"/>
<stop offset="0.6474" stop-color="#888888"/>
<stop offset="0.7976" stop-color="#535353"/>
<stop offset="0.9487" stop-color="#161616"/>
<stop offset="1"/>
</linearGradient>
<linearGradient id="paint4_linear" x1="294.728" y1="142.851" x2="294.576" y2="147.773" gradientUnits="userSpaceOnUse">
<stop stop-color="white"/>
<stop offset="0.1046" stop-color="#FAFAFA"/>
<stop offset="0.2282" stop-color="#ECECEC"/>
<stop offset="0.3616" stop-color="#D4D4D4"/>
<stop offset="0.5018" stop-color="#B2B2B2"/>
<stop offset="0.6474" stop-color="#888888"/>
<stop offset="0.7976" stop-color="#535353"/>
<stop offset="0.9487" stop-color="#161616"/>
<stop offset="1"/>
</linearGradient>
<linearGradient id="paint5_linear" x1="199.743" y1="358.253" x2="198.887" y2="362.108" gradientUnits="userSpaceOnUse">
<stop stop-color="white"/>
<stop offset="0.1046" stop-color="#FAFAFA"/>
<stop offset="0.2282" stop-color="#ECECEC"/>
<stop offset="0.3616" stop-color="#D4D4D4"/>
<stop offset="0.5018" stop-color="#B2B2B2"/>
<stop offset="0.6474" stop-color="#888888"/>
<stop offset="0.7976" stop-color="#535353"/>
<stop offset="0.9487" stop-color="#161616"/>
<stop offset="1"/>
</linearGradient>
<linearGradient id="paint6_linear" x1="296.214" y1="356.949" x2="296.062" y2="361.871" gradientUnits="userSpaceOnUse">
<stop stop-color="white"/>
<stop offset="0.1046" stop-color="#FAFAFA"/>
<stop offset="0.2282" stop-color="#ECECEC"/>
<stop offset="0.3616" stop-color="#D4D4D4"/>
<stop offset="0.5018" stop-color="#B2B2B2"/>
<stop offset="0.6474" stop-color="#888888"/>
<stop offset="0.7976" stop-color="#535353"/>
<stop offset="0.9487" stop-color="#161616"/>
<stop offset="1"/>
</linearGradient>
<clipPath id="clip0">
<rect width="498.219" height="437.003" fill="white"/>
</clipPath>
</defs>
</svg>
