<svg width="80" height="444" viewBox="0 0 80 444" fill="none" xmlns="http://www.w3.org/2000/svg">
<path d="M17.037 402.802C14.113 404.207 10.993 405.519 8.145 407.03C7.258 407.5 6.942 408.485 5.792 408.166C4.941 407.932 4.22999 407.013 3.53999 406.55C2.88099 406.108 2.715 406.006 2.599 405.058C2.294 402.558 3.07299 399.953 3.64799 397.564C4.13899 395.533 2.28799 393.579 2.39799 391.557C2.48999 389.89 4.943 388.131 6.119 387.288C10.242 384.34 15.277 383.166 19.735 380.969C22.213 379.748 22.612 378.608 25.476 379.889C27.642 380.858 29.363 381.514 28.953 383.854C29.015 383.5 30.014 384.527 30.073 384.668C30.316 385.244 29.926 386.097 29.751 386.636C29.156 388.47 28.518 389.653 28.951 391.693C29.252 393.107 30.403 394.808 29.776 396.269C28.971 398.151 26.137 398.588 24.452 399.207C21.923 400.137 19.481 401.626 17.037 402.802Z" fill="#F3D48C" stroke="#967348" stroke-width="0.269"/>
<path d="M7.79601 395.56C7.19901 396.077 5.491 398.67 6.922 399.193C7.724 399.483 8.613 397.614 9.068 397.156C9.857 396.362 11.58 394.226 12.745 394.086C13.34 394.015 13.137 394.272 13.743 394.376C15.003 394.594 16.125 394.297 17.362 393.971C18.382 393.702 21.567 392.759 20.882 391.171C20.507 390.302 19.73 390.714 19.528 389.814C19.386 389.191 19.841 387.716 19.873 386.988C19.967 384.924 19.248 384.851 17.23 385.192C15.986 385.402 14.231 386.342 12.977 386.171C13.854 384.593 15.637 384.338 17.269 384.217C18.124 384.154 18.964 384.217 19.773 383.857C20.608 383.484 21.091 382.669 21.918 382.302C23.121 381.772 26.269 382.685 27.125 383.531C29.6 385.98 26.314 390.213 27.249 393.074C27.564 394.036 28.955 394.817 29.049 395.793C29.206 397.468 26.978 397.731 25.79 397.985C24.719 398.215 23.836 398.618 22.816 399.011C21.233 399.619 19.886 400.585 18.438 401.449C16.818 402.418 14.816 403.188 13.046 403.887C11.12 404.644 9.22401 405.349 7.32601 406.179C5.86301 406.819 4.753 406.505 3.665 405.098C2.789 403.965 3.62901 402.654 3.98501 401.447C4.42001 399.981 4.727 398.419 4.622 396.884C4.456 394.431 2.01201 393.113 4.29801 390.926C1.90701 393.21 5.68801 395.673 7.79601 395.56Z" fill="#DCC06D"/>
<path d="M8.784 387.243C8.814 387.49 17.914 387.077 18.562 386.929C19.801 386.644 20.089 386.008 20.86 384.942C21.482 384.084 21.591 383.767 22.647 383.564C23.592 383.383 23.748 383.833 24.628 383.883C25.077 383.909 25.827 383.497 26.201 383.732C26.798 384.11 26.601 386.197 26.593 386.71C26.577 387.971 25.822 389.57 25.908 390.708C25.974 391.568 27.081 392.522 27.625 393.207C28.414 391.392 28.144 389.241 28.945 387.394C29.446 386.24 30.141 385.71 29.79 384.407C29.32 382.667 27.116 380.56 25.332 380.238C23.138 379.841 21.056 381.699 19.241 382.665C17.142 383.777 15.274 383.854 12.93 384.179C9.38699 384.668 5.491 386.549 4.2 390.174C5.098 388.52 7.327 387.945 8.757 386.901C8.779 387.016 8.768 387.123 8.784 387.243Z" fill="#CCB25C"/>
<path d="M27.842 399.088C29.692 400.247 31.78 400.755 33.897 401.161C35.566 401.481 37.664 402.564 39.346 401.849C40.956 401.163 41.812 398.737 41.39 397.11C41.031 395.732 38.627 393.891 37.335 393.401C36.145 392.951 34.846 392.809 33.689 392.261C32.703 391.793 32.106 390.847 31.199 390.386C29.384 389.463 27.541 391.836 25.768 392.059C24.499 392.22 23.021 392.145 21.78 391.986C20.654 391.841 19.747 392.084 20.259 393.345C20.62 394.238 21.912 396.037 22.717 396.521C23.321 396.885 24.067 396.805 24.731 397.085C25.848 397.556 26.821 398.448 27.842 399.088Z" fill="#F3D48C" stroke="#967348" stroke-width="0.269"/>
<path d="M30.498 391.553C30.048 394.297 33.87 394.794 35.691 394.912C37.139 395.007 39.652 396.562 38.903 398.353C38.357 399.665 36.195 399.554 35.145 399.04C33.545 398.256 33.131 397.533 33.055 395.895C32.34 396.357 31.449 395.607 30.998 396.504C30.65 396.13 29.966 395.349 29.396 395.196C27.989 394.82 27.146 395.169 25.862 394.26C24.851 393.545 23.955 392.521 22.653 392.38C23.852 392.51 26.204 394.651 24.41 395.606C25.341 396.339 26.722 396.391 27.752 397.06C28.993 397.865 30.254 398.725 31.794 398.792C33.129 398.851 34.665 398.69 35.847 399.457C36.276 399.732 36.949 401.157 37.463 400.183C38.744 400.543 38.856 400.315 39.355 399.223C39.773 398.306 40.268 397.41 40.961 396.672C39.769 396.441 39.275 395.461 38.431 394.771C37.484 393.995 36.055 393.584 34.896 393.265C33.841 392.977 32.918 392.615 32 392.051C31.352 391.655 31.106 391.037 30.229 391.686" fill="#DCC06D"/>
<path d="M15.813 394.52C15.719 394.579 15.628 394.633 15.536 394.68C13.647 395.685 11.955 397.029 10.115 398.125C8.99301 398.791 7.86301 399.624 6.62801 399.87C5.57901 400.079 5.11501 399.622 4.47701 400.54C3.40901 402.085 4.227 403.808 4.98 405.261C5.35 405.974 5.39701 408.816 6.72501 408.57C7.30501 408.462 7.551 407.314 8.043 406.97C8.686 406.525 9.50901 406.584 10.255 406.542C11.944 406.445 12.318 405.123 13.192 403.894C14.065 402.667 14.864 401.361 15.922 400.283C17.13 399.051 18.408 399.17 19.778 398.36C20.957 397.661 21.583 395.866 22.162 394.672C21.684 394.331 21.036 394.329 20.573 393.937C20.029 393.475 20.087 393.017 19.877 392.382C18.489 392.298 17.01 393.778 15.813 394.52Z" fill="#F3D48C" stroke="#967348" stroke-width="0.269"/>
<path d="M10.515 405.23C9.45699 406.105 8.32499 406.882 7.26699 407.779C6.63099 408.317 6.749 408.384 6.192 407.645C5.23 406.371 4.805 403.856 4.884 402.311C5.072 403.884 6.228 405.022 6.089 406.672C6.026 405.131 6.70599 403.144 7.94099 402.14C8.49499 401.69 9.047 401.77 9.712 401.614C10.303 401.473 10.51 401.12 11.163 401.321C11.602 400.137 12.398 397.883 13.731 397.483C14.49 397.255 15.318 397.479 16.118 397.22C17.084 396.909 17.806 396.15 18.341 395.329C18.439 395.177 19.475 393.681 19.477 393.721C19.561 394.627 20.344 394.768 20.828 395.301C20.18 396.009 20.022 396.976 19.397 397.617C18.3 398.741 16.528 399.222 15.216 400.092C13.186 401.438 12.315 403.744 10.515 405.23Z" fill="#DCC06D"/>
<path d="M26.648 401.218C28.349 401.472 31.49 397.451 29.512 396.46C29.062 396.236 27.959 396.39 27.415 396.251C26.572 396.039 25.79 395.659 25.039 395.264C23.743 394.58 22.936 393.987 21.654 395.076C21.065 395.578 19.301 397.742 19.348 398.41C21.947 398.512 23.967 400.819 26.648 401.218Z" fill="#F3D48C" stroke="#967348" stroke-width="0.269"/>
<path d="M29.028 398.983C29.28 398.935 29.282 398.691 29.253 398.497C29.061 398.628 28.843 398.571 28.679 398.447C28.801 398.68 29.056 398.854 28.971 399.149" fill="#DCC06D"/>
<path d="M19.918 403.154C21.266 403.253 22.175 401.061 22.398 400.053C22.78 398.339 22.247 398.032 20.573 397.722C19.016 397.435 19.014 396.836 17.847 395.969C16.098 394.667 13.877 396.581 13.73 398.439C13.544 400.797 16.174 402.615 18.081 403.354C18.996 403.708 19.173 403.199 19.932 403.21" fill="#F3D48C"/>
<path d="M19.918 403.154C21.266 403.253 22.175 401.061 22.398 400.053C22.78 398.339 22.247 398.032 20.573 397.722C19.016 397.435 19.014 396.836 17.847 395.969C16.098 394.667 13.877 396.581 13.73 398.439C13.544 400.797 16.174 402.615 18.081 403.354C18.996 403.708 19.173 403.199 19.932 403.21" stroke="#967348" stroke-width="0.269"/>
<path d="M20.898 401.699C21.154 401.709 21.209 401.47 21.224 401.274C21.008 401.359 20.808 401.256 20.676 401.098C20.743 401.352 20.956 401.58 20.806 401.85" fill="#DCC06D"/>
<path d="M7.295 406.447C6.985 408.241 7.09 410.277 8.282 411.426C9.274 412.383 10.04 413.314 11.494 413.322C11.283 414.089 11.989 414.192 12.494 414.007C13.215 413.742 14.004 412.661 14.733 411.964C15.565 411.169 16.068 410.791 16.629 409.693C17.392 408.2 18.096 406.643 18.875 405.162C17.981 404.494 17.362 403.577 16.727 402.679C16.249 402.007 15.913 400.944 15.315 400.402C14.769 399.904 13.864 400.083 13.099 400.167C10.635 400.433 8.70701 402.162 7.83901 404.434C7.61901 405.011 7.42 405.708 7.295 406.447Z" fill="#F3D48C" stroke="#967348" stroke-width="0.2036"/>
<path d="M11.249 407.991C11.424 408.476 11.735 407.88 11.964 408.05C12.145 408.183 12.126 409.118 12.231 409.375C12.579 408.841 12.485 408.022 12.363 407.567C12.783 407.324 12.92 407.845 12.657 408.203C12.689 408.275 12.772 408.376 12.819 408.428C13.043 408.266 13.164 408.225 13.233 407.905C13.389 408.171 13.284 408.542 13.391 408.82C13.063 408.972 12.839 407.587 12.321 408.729C11.941 409.574 12.905 409.744 13.08 410.237C13.341 410.24 13.547 410.431 13.777 410.542C13.829 410.285 13.897 410.009 13.972 409.741C14.326 410.46 13.991 411.455 13.641 412.25C13.36 412.893 12.528 414.11 11.975 413.518C11.762 413.293 11.936 412.976 11.644 412.839C11.381 412.718 10.883 412.749 10.58 412.663C9.861 412.459 9.50099 412.264 9.24099 411.441C9.00899 410.705 8.333 410.356 8.132 409.587C7.855 408.536 8.817 406.918 9.604 406.287C10.009 405.962 10.396 405.66 10.918 405.891C12.027 406.384 10.991 407.268 11.249 407.991Z" fill="#DCC06D"/>
<path d="M17.822 404.755C17.434 404.3 16.959 403.874 16.89 403.791C16.366 403.167 15.779 401.388 15.088 401.067C14.436 400.765 12.981 401.418 12.424 401.755C13.158 401.815 14.618 401.946 14.015 403.074C15.111 402.54 17.376 405.125 17.244 406.235C17.291 405.847 17.242 405.42 17.259 405.007C17.253 405.117 17.846 405.986 17.988 405.969C18.627 405.887 18.288 405.301 17.822 404.755Z" fill="#DCC06D"/>
<path d="M46.703 402.568C47.53 403.637 48.443 404.563 49.209 405.713C50.066 406.995 50.868 408.022 51.875 409.117C52.434 409.726 53.128 410.239 53.629 410.883C53.889 411.219 54.053 411.631 54.337 411.94C54.652 412.285 55.02 412.514 55.348 412.839C56.169 413.649 56.269 414.183 56.247 415.042C56.239 415.36 56.277 415.849 56.169 416.078C56.068 416.289 55.762 416.208 55.683 416.425C55.613 416.611 55.774 416.785 55.776 417.012C55.779 417.458 55.796 417.986 55.623 418.283C55.37 418.727 54.75 418.843 54.184 418.655C52.294 418.031 51.864 415.342 50.951 413.551C49.778 411.247 47.773 409.383 46.107 407.857C44.47 406.351 43.109 405.248 41.566 404.622C40.661 404.254 38.781 401.985 38.978 400.819C39.063 400.319 39.609 400.298 39.89 400.055C40.208 399.779 40.404 399.361 40.488 398.816C40.548 398.422 40.603 398.247 40.786 397.942C41.004 397.583 41.277 396.486 41.668 396.41C42.223 396.304 43.93 398.339 44.403 399.085C45.167 400.289 45.829 401.438 46.703 402.568Z" fill="#F3D48C" stroke="#967348" stroke-width="0.269"/>
<path d="M55.924 414.765C55.938 415.765 55.011 414.8 55.194 414.024C55.047 414.462 55.131 415.463 55.503 416.11C55.833 416.002 56.151 415.289 55.951 414.666" fill="#DCC06D"/>
<path d="M40.733 404.001C40.04 403.295 39.072 401.474 39.355 400.855C39.499 400.547 39.865 400.518 40.072 400.269C40.176 400.142 40.323 400.032 40.414 399.895C40.54 399.709 40.537 399.379 40.688 399.23C40.677 399.481 40.241 399.953 40.625 400.33C40.578 400.514 40.506 400.662 40.674 400.915C40.892 401.238 41.135 401.186 41.25 401.076C41.593 401.795 40.8 401.445 40.851 402.008C40.878 402.331 41.166 402.882 41.278 403.227C41.4 403.612 41.438 404.07 41.649 404.442C41.988 404.219 42.521 404.416 43.014 404.63C43.526 404.849 43.751 404.872 43.34 404.02C43.589 403.807 45.855 406.622 46.305 407.146C47.437 408.456 48.548 409.814 49.71 411.056C50.039 411.409 50.318 411.666 50.606 412.107C50.818 412.426 51.095 412.987 51.45 413.128C51.593 413.188 51.688 413.012 51.744 413.041C51.955 413.152 52.149 413.542 52.327 413.777C52.535 414.057 52.838 414.529 52.979 414.285C52.963 414.239 52.949 414.181 52.942 414.159C53.205 414.498 53.471 414.938 53.783 415.075C53.783 415.279 53.68 415.408 53.54 415.463C53.457 415.182 53.25 415.043 53.064 414.847C52.906 415.088 53.048 415.317 53.284 415.617C53.461 415.842 53.445 415.581 53.589 415.967C53.67 416.19 53.632 416.474 53.602 416.614C53.373 416.269 53.177 415.841 52.865 415.651C52.766 415.803 52.937 416.296 53.091 416.575C53.392 417.111 53.689 417.212 54.045 417.435C53.852 417.549 53.428 417.658 54.067 418.029C54.728 418.413 54.95 417.629 54.769 416.933C54.553 416.116 54.084 415.26 53.739 414.439C53.797 414.388 53.945 414.365 53.973 414.282C53.996 414.218 53.952 413.969 53.982 413.93C54.102 413.794 54.404 413.832 54.601 413.742C54.616 414.234 54.49 414.455 54.634 415.033C54.756 415.523 54.965 416.034 55.097 416.525C55.238 417.038 55.576 417.773 55.389 418.119C55.101 418.649 54.041 418.642 53.235 417.859C52.457 417.107 51.964 415.523 51.574 414.576C50.425 411.797 48.568 410.198 46.677 408.275C45.907 407.492 45.161 406.73 44.36 406.11C43.707 405.605 43.101 405.064 42.462 404.812C41.898 404.588 41.338 404.619 40.733 404.001Z" fill="#DCC06D"/>
<path d="M43.135 398.13C43.392 397.69 42.62 397.176 42.302 397.044C42.431 397.363 43.031 398.419 43.166 398.11" fill="#DCC06D"/>
<path d="M37.941 397.737C38.833 399.612 39.97 401.484 41.309 403.108C41.787 403.685 42.385 404.341 42.936 404.847C43.626 405.486 44.235 406.282 44.961 406.884C45.567 407.387 46.288 407.757 46.857 408.321C47.311 408.774 47.503 409.358 47.87 409.852C48.246 410.359 48.614 410.354 49.077 410.739C49.506 411.096 49.682 411.825 50.114 412.193C50.536 412.556 50.864 412.494 51.222 413.036C51.606 413.612 51.896 414.297 52.286 414.889C52.793 415.658 53.29 416.506 52.634 417.128C51.725 417.988 49.889 418.283 49.78 419.859C49.629 419.738 49.491 419.65 49.396 419.432C48.792 419.644 48.781 419.578 48.108 419.11C47.712 418.834 46.959 418.588 46.684 418.212C46.362 417.774 46.374 417.175 46.065 416.703C45.694 416.138 45.085 415.785 44.709 415.217C44.519 414.93 44.484 414.499 44.208 414.249C43.918 413.989 43.707 414.088 43.406 413.758C43.028 413.345 42.738 412.647 42.399 412.174C40.423 409.421 37.896 406.572 34.846 405.27C33.987 404.903 32.692 404.892 31.935 404.214C31.413 403.742 30.515 401.701 30.681 401.099C30.758 400.811 31.142 400.745 31.368 400.549C31.685 400.269 31.848 399.822 32.031 399.439C32.477 398.496 33.01 397.811 33.812 397.18C34.2 396.871 34.701 396.734 35.091 396.427C35.424 396.169 35.49 395.974 35.991 396.161C36.345 396.294 36.915 396.77 37.252 396.992C37.617 397.236 37.724 397.277 37.941 397.737Z" fill="#F3D48C" stroke="#967348" stroke-width="0.269"/>
<path d="M49.405 416.387C49.392 416.703 49.153 416.941 49.061 417.229C49.003 417.416 48.994 417.601 48.89 417.756C48.842 417.468 48.635 417.496 48.475 417.273C48.249 416.96 48.284 416.578 48.182 416.242C48.111 416.603 48.108 416.988 48.203 417.381C48.022 417.259 47.875 417.036 47.656 417.01C47.468 416.555 47.986 416.306 47.73 415.834C47.427 416.443 47.041 416.169 46.791 415.602C46.574 415.105 46.484 414.306 46.097 413.899C45.92 413.711 45.811 413.756 45.616 413.613C45.272 413.359 45.447 413.284 45.312 413.025C44.667 411.756 43.55 410.663 42.535 409.691C41.347 408.558 39.919 407.255 39.006 405.879C38.377 404.934 37.846 403.631 36.909 403.04C36.237 402.617 34.974 402.187 34.735 401.32C34.842 401.794 34.661 402.334 34.612 402.781C34.563 403.233 34.687 404.169 34.077 404.039C33.427 403.898 32.855 402.569 32.75 402.012C32.663 401.561 32.674 400.856 32.94 400.538C32.66 400.713 32.477 400.171 32.537 399.942C32.676 399.41 33.084 399.976 33.245 400.333C33.369 400.258 33.45 400.133 33.477 399.977C32.96 399.548 33.626 398.795 33.816 398.502C33.989 398.233 34.538 396.782 34.979 397.305C35.374 397.77 34.846 398.777 34.635 399.051C34.552 399.161 34.456 399.32 34.356 399.412C34.296 399.465 34.052 399.513 34.03 399.596C33.895 400.05 34.944 400.178 35.143 400.51C34.864 400.168 34.565 399.829 34.311 399.474C34.356 399.418 34.415 399.358 34.484 399.336C34.797 399.407 35.169 400.02 35.471 399.872C35.484 399.579 35.266 399.569 35.085 399.367C34.784 399.04 34.939 399.008 34.794 398.714C34.941 398.7 35.128 398.76 35.271 398.881C35.273 398.502 35.563 398.318 35.566 397.967C35.079 397.964 35.234 397.505 35.203 397.282C35.171 397.06 35.037 397.083 35.105 396.847C35.156 396.662 35.359 396.576 35.508 396.516C35.849 396.378 36.454 396.453 36.588 397.007C36.699 397.471 36.29 398.093 36.081 398.415C36.441 398.792 36.648 398.48 36.375 398.09C36.691 398.153 36.546 397.8 36.63 397.591C36.697 397.42 36.932 397.351 36.901 397.112C36.834 396.605 35.936 396.269 35.545 396.197C34.975 397.238 33.604 397.296 32.965 398.205C32.67 398.631 32.734 399.126 32.577 399.571C32.409 400.054 31.687 400.463 31.311 400.767C30.814 401.168 30.987 401.471 31.248 402.179C31.449 402.723 31.69 403.464 32.087 403.923C32.533 404.437 33.345 404.58 33.917 404.761C34.578 404.97 35.214 405.231 35.855 405.578C37.037 406.222 38.13 407.068 39.095 408.074C39.98 409.003 40.864 409.941 41.66 410.952C42.051 411.443 42.474 411.972 42.778 412.519C43.019 412.953 43.138 413.44 43.554 413.77C43.89 414.041 44.373 413.918 44.666 414.249C44.995 414.614 44.711 415.123 45.204 415.456C45.31 415.528 45.69 415.723 45.773 415.607C45.901 415.434 45.37 415.038 45.294 414.851C45.17 414.553 45.129 414.487 45.422 414.518C45.75 414.555 45.72 414.762 45.912 414.956C46.26 415.303 46.654 415.707 46.533 416.246C46.471 416.195 46.375 416.18 46.301 416.106C46.291 416.211 46.273 416.33 46.265 416.424C46.673 416.9 46.501 417.537 46.788 417.97C47.087 418.423 47.89 418.463 48.322 418.759C48.812 419.095 49.023 419.343 49.51 419.148C49.977 418.964 50.041 418.316 50.061 417.822C50.05 418.104 49.568 417.784 49.496 417.668C49.322 417.386 49.431 416.689 49.405 416.387Z" fill="#DCC06D"/>
<path d="M49.427 413.845C50.07 413.636 49.336 412.904 49.057 412.496C48.992 413.019 49.199 413.442 49.573 413.876" fill="#DCC06D"/>
<path d="M29.354 396.16C29.68 396.148 29.779 396.58 29.968 396.718C30.499 397.109 30.927 396.918 31.485 397.287C32.046 397.656 32.972 398.404 33.272 399.035C33.45 399.41 33.479 399.905 33.637 400.303C33.885 400.928 34.134 401.726 34.528 402.292C34.956 402.9 35.612 403.461 36.091 404.051C37.278 405.514 38.367 407.049 39.594 408.468C40.785 409.848 41.577 411.589 43.058 412.767C43.759 413.327 44.518 413.5 45.222 414.016C46.081 414.646 46.907 415.428 47.414 416.375C47.671 416.854 48.093 417.7 48.046 418.181C47.983 418.828 46.811 419.174 46.4 419.536C45.591 420.242 44.104 422.974 42.847 420.846C42.799 421.025 42.642 421.064 42.55 421.196C42.001 420.871 41.239 419.848 40.963 419.375C40.774 419.051 40.505 418.704 40.342 418.442C40.149 418.129 40.154 417.743 40.003 417.399C39.657 416.615 38.932 416.103 38.341 415.534C36.896 414.147 35.552 412.557 34.221 411.055C33.018 409.694 31.717 408.568 30.436 407.325C29.802 406.713 29.329 406.311 28.544 405.929C27.804 405.571 27.014 405.283 26.375 404.698C25.824 404.195 25.131 403.342 24.857 402.68C24.692 402.278 24.305 401.093 24.467 400.757C24.523 400.643 24.986 400.538 25.105 400.451C25.336 400.285 25.498 400.105 25.703 399.889C26.044 399.527 26.39 399.05 26.745 398.745C27.234 398.325 27.876 398.096 28.364 397.67C28.729 397.351 28.84 396.181 29.354 396.16Z" fill="#F3D48C" stroke="#967348" stroke-width="0.269"/>
<path d="M45.995 418.092C45.604 418.219 44.939 418.482 44.845 418.935C45.089 418.819 45.756 418.473 45.509 419.069C45.379 419.382 45.131 419.682 44.946 419.956C44.828 420.13 44.526 420.727 44.235 420.693C43.898 420.656 43.784 419.695 43.772 419.433C43.753 418.916 43.956 418.172 44.46 418.018C43.994 417.681 43.256 418.589 43.06 418.889C42.988 418.684 42.974 418.451 42.885 418.251C42.739 417.925 42.439 417.718 42.242 417.432C42.053 417.154 42.112 417.064 42.134 416.801C42.16 416.474 42.035 416.181 41.878 415.857C41.422 414.917 40.592 414.446 39.9 413.717C39.261 413.048 38.603 412.386 37.96 411.712C37.393 411.115 36.813 410.521 36.252 409.914C35.059 408.619 34.089 407.148 32.85 405.883C32.252 405.277 31.652 404.681 31.038 404.087C30.67 403.732 30.236 403.218 29.78 402.983C29.426 402.802 29.214 403.011 28.895 403.087C28.272 403.233 27.638 403.245 26.956 403.045C27.142 402.809 27.489 402.703 27.728 402.515C27.901 402.378 28.052 402.21 28.239 402.099C27.773 402.137 27.424 402.679 26.898 402.537C27.242 402.144 27.276 401.878 27.383 401.359C27.558 400.521 28.165 399.952 28.724 399.412C28.742 399.442 28.774 399.485 28.792 399.515C28.988 399.417 29.146 398.887 29.223 398.688C29.313 398.457 29.255 398.25 29.253 397.998C29.251 397.767 29.355 397.336 29.679 397.427C30.234 397.579 30.128 398.517 30.053 398.839C30.389 399.012 30.345 398.381 30.282 398.183C30.203 397.927 29.989 397.593 29.799 397.387C30.195 397.188 30.86 398.371 31.061 398.636C31.02 398.236 30.553 397.55 30.184 397.314C29.755 397.04 29.887 397.403 29.615 397.537C29.157 397.252 28.785 398.496 28.595 398.745C28.335 399.088 28.073 399.405 27.738 399.679C27.428 399.927 26.846 400.556 26.366 400.472C26.446 400.134 26.808 399.969 27.039 399.756C27.339 399.48 27.621 399.172 27.898 398.872C28.351 398.376 28.662 397.645 28.945 397.02C28.672 397.256 28.471 397.566 28.24 397.843C27.896 398.252 27.45 398.556 27.03 398.875C26.408 399.346 25.883 399.907 25.36 400.492C25.249 400.617 25.142 400.789 24.989 400.871C24.969 400.881 24.797 400.916 24.797 400.916C24.651 401.11 24.845 401.258 24.912 401.561C24.944 401.694 24.878 402.13 24.975 402.234C25.101 402.368 25.699 402.324 25.855 402.266C25.69 402.346 25.544 402.495 25.425 402.627C25.727 402.769 26.093 402.681 26.398 402.706C26.113 402.869 25.92 403.256 25.569 403.299C25.729 403.605 26.066 403.971 26.304 404.26C26.475 404.465 26.523 404.574 26.767 404.676C26.993 404.769 27.223 404.796 27.448 404.92C27.92 405.177 28.425 405.498 28.873 405.807C29.312 406.107 29.758 406.338 30.172 406.692C31.415 407.752 32.639 408.752 33.744 409.981C34.309 410.607 34.896 411.205 35.459 411.83C36.111 412.555 36.603 413.408 37.26 414.132C37.69 414.607 38.161 415.028 38.642 415.448C39.422 416.135 40.19 416.755 40.37 417.772C40.43 418.1 40.455 418.224 40.639 418.484C40.884 418.826 41.027 419.153 41.255 419.51C41.526 419.933 42.116 420.765 42.594 420.926C42.916 421.036 42.846 420.677 43.135 420.857C43.304 420.962 43.377 421.286 43.55 421.43C43.759 421.6 43.972 421.637 44.179 421.55C44.52 421.403 44.872 420.923 45.157 420.67C45.718 420.168 46.213 419.603 46.771 419.101C46.933 418.956 47.08 418.788 47.245 418.663C47.383 418.559 47.822 418.353 47.465 418.141C47.095 417.92 46.321 417.986 45.995 418.092Z" fill="#DCC06D"/>
<path d="M45.705 416.959C45.852 416.481 45.286 416.347 45.129 415.971C44.882 416.067 44.6 414.953 44.451 414.71C44.329 415.027 44.554 415.678 44.763 416.008C45.159 416.01 45.557 416.426 45.697 416.798" fill="#DCC06D"/>
<path d="M25.22 399.555C25.669 400.226 25.821 401.045 26.219 401.75C26.732 402.658 27.38 403.436 28.051 404.249C29.446 405.933 30.864 407.33 32.447 408.869C33.639 410.031 34.944 411.136 36.096 412.322C36.728 412.974 36.877 413.655 37.456 414.344C38.241 413.735 40.024 415.413 40.726 416.077C41.24 416.568 41.908 417.07 42.134 417.677C42.318 418.168 42.397 419.775 42.2 420.158C41.836 420.871 40.689 421.076 40.021 421.498C39.601 421.762 39.265 422.468 38.7 422.47C37.794 422.472 36.691 421.655 35.971 420.99C34.811 419.916 35.046 419.276 34.406 418.141C34.076 417.556 33.103 416.787 32.593 416.304C31.546 415.314 30.536 414.317 29.5 413.317C27.493 411.383 25.526 409.44 23.231 407.761C22.666 408.059 22.186 407.416 21.629 407.035C20.917 406.553 20.145 406.253 19.39 405.901C18.526 405.503 18.675 405.604 18.078 404.862C17.42 404.047 17.21 403.842 17.203 402.866C17.193 401.245 18.561 400.906 19.771 400.103C20.626 399.539 20.997 398.355 21.953 397.9C22.886 397.462 24.53 398.517 25.22 399.555Z" fill="#F3D48C" stroke="#967348" stroke-width="0.269"/>
<path d="M38.05 414.568C38.038 414.859 37.785 415.413 38.329 415.589C38.265 415.659 38.224 415.89 37.987 415.872C37.807 415.574 37.556 415.287 37.389 414.977C37.68 414.911 37.542 414.485 37.968 414.563" fill="#DCC06D"/>
<path d="M38.548 416.713C38.36 416.63 38.192 416.515 38.082 416.358C37.877 416.684 38.398 416.994 38.578 416.676" fill="#DCC06D"/>
<path d="M31.359 414.572C30.417 413.647 29.388 412.774 28.391 411.912C27.43 411.082 26.519 410.207 25.571 409.367C25.238 409.071 24.923 408.762 24.588 408.471C24.268 408.194 23.912 407.976 23.592 407.706C23.339 407.489 23.212 407.422 22.905 407.384C22.455 407.327 22.342 407.097 21.969 406.827C20.793 405.982 19.499 406.043 18.441 404.924C17.485 403.917 16.765 401.886 18.119 401.489C17.859 401.568 17.868 401.825 18.16 401.997C18.538 402.219 19.167 401.946 19.44 401.835C19.586 401.777 20.144 401.558 20.031 401.313C19.888 401.009 19.282 401.129 19.048 401.046C20.14 401.05 20.556 400.095 20.982 399.42C21.091 399.242 21.317 399.232 21.439 399.091C21.548 398.969 21.473 398.721 21.581 398.619C21.757 398.462 22.452 398.319 22.607 398.673C22.787 399.076 22.095 399.206 22.578 399.698C22.162 399.685 22.542 400.362 22.82 400.458C22.795 400.623 22.641 400.716 22.631 400.899C22.621 401.093 22.826 401.215 22.834 401.374C22.857 401.82 22.406 401.701 22.064 401.404C21.972 401.539 21.706 401.637 21.661 401.785C21.577 402.046 21.807 402.193 21.966 402.498C21.807 402.468 20.822 401.742 21.262 402.468C20.624 401.892 20.389 402.883 20.57 403.3C20.654 403.491 20.988 403.931 21.236 403.947C21.409 403.957 21.537 403.668 21.633 403.57C21.806 403.754 22.013 403.986 22.271 404.066C22.229 403.973 22.26 403.835 22.222 403.74C22.992 403.719 24.244 405.185 24.802 405.717C26.356 407.196 27.957 408.623 29.514 410.103C30.989 411.501 32.491 412.89 33.954 414.283C34.325 414.637 34.975 415.102 35.178 415.544C35.305 415.813 35.208 416.38 35.846 416.382C36.011 416.572 35.968 417.069 36.271 417.097C36.561 417.124 36.304 416.521 36.804 416.686C36.763 416.646 36.718 416.555 36.67 416.504C36.928 416.637 36.977 416.348 37.179 416.27C37.199 416.29 37.288 416.352 37.316 416.379C37.28 416.419 37.252 416.479 37.225 416.524C37.519 416.832 38.272 417.887 38.698 417.68C38.733 418.153 39.353 418.001 39.236 417.593C39.153 417.578 39.071 417.531 38.984 417.527C39.084 417.451 39.153 417.365 39.207 417.255C39.42 417.48 40.253 418.392 40.514 418.075C40.525 418.232 40.473 418.298 40.307 418.273C40.211 418.259 40.098 418.156 39.994 418.134C39.875 418.111 39.774 418.152 39.682 418.181C39.43 418.264 39.202 418.48 39.565 418.743C39.486 418.853 39.323 419.079 39.461 419.249C39.683 419.524 40.295 419.366 40.507 419.336C40.954 419.268 41.374 419.094 41.859 419.14C41.767 420.033 41.347 420.688 40.709 421.242C40.379 421.529 39.999 421.719 39.545 421.845C39.349 421.899 39.129 421.977 38.895 421.931C38.916 421.454 39.327 421.112 39.317 420.598C39.313 420.436 39.259 420.26 39.259 420.102C39.259 419.976 39.378 419.592 39.267 419.456C39.03 419.175 38.833 419.569 38.663 419.528C38.531 419.497 38.533 419.397 38.456 419.303C38.313 419.12 38.143 419.003 37.968 418.846C38.166 418.736 37.937 418.442 37.979 418.264C38.006 418.152 38.282 418.119 38.242 417.97C38.154 417.66 37.41 417.778 37.248 417.785C37.166 417.642 36.928 417.418 36.77 417.493C36.552 417.599 37.246 418.492 37.356 418.714C37.014 418.383 36.863 418.948 37.058 419.202C37.168 419.348 37.676 419.815 37.826 419.697C37.707 419.823 37.619 419.904 37.747 420.098C37.87 420.287 38.223 420.484 38.425 420.582C38.244 421.007 38.588 421.729 38.736 422.224C37.867 422.005 36.886 421.499 36.116 420.92C35.575 420.509 35.321 419.933 35.137 419.386C35.043 419.109 34.981 418.825 34.868 418.549C34.749 418.253 34.534 418.018 34.328 417.747C34.063 417.4 33.771 417.07 33.449 416.758C32.883 416.209 32.381 415.619 31.837 415.052C31.675 414.89 31.517 414.73 31.359 414.572Z" fill="#DCC06D"/>
<path d="M25.634 400.883C25.337 400.416 25.28 399.954 24.99 399.504C24.632 398.953 23.848 398.517 23.294 398.233C23.633 398.438 25.279 399.87 24.653 400.079C24.977 400.177 25.367 400.365 25.434 400.721" fill="#DCC06D"/>
<path d="M33.174 419.172C32.457 418.775 31.544 418.583 30.602 418.245C25.846 416.524 22.058 411.347 20.488 406.755C20.305 406.218 20.656 405.613 20.405 405.131C19.014 402.457 12.998 406.729 12.151 408.275C11.238 409.938 11.053 412.015 11.693 413.75C12.326 415.479 14.071 415.598 15.53 416.339C17.164 417.169 19.142 418.161 20.547 419.364C21.464 420.149 22.104 421.292 23.002 422.078C23.754 422.733 24.533 423.151 25.175 424.01C26.458 425.725 27.377 427.778 29.311 428.662C30.443 429.179 30.891 428.211 32.039 427.295C33.547 426.09 34.811 423.403 34.601 421.483C34.46 420.221 33.923 419.585 33.174 419.172Z" fill="#F3D48C" stroke="#967348" stroke-width="0.269"/>
<path d="M32.441 425.558C32.679 425.448 33.841 424.455 33.575 424.127C34.459 425.214 30.694 428.358 29.796 428.538C29.259 428.644 28.672 428.079 28.286 427.791C26.861 426.734 26.49 424.762 25.262 423.482C23.882 422.049 22.4 420.868 21.114 419.304C19.752 417.646 17.323 416 15.349 415.158C14.472 414.784 13.312 414.613 13.47 413.411C10.499 413.715 14.928 408.099 15.882 407.571C15.425 408.014 14.826 408.614 15.012 409.344C16.682 408.903 16.678 405.605 19.188 405.704C17.561 405.64 15.3 408.98 15.647 410.407C16.005 411.88 16.53 411.099 17.494 411.359C18.742 411.696 18.862 412.057 19.462 413.389C19.928 414.416 20.569 415.354 21.201 416.225C22.252 417.676 23.816 418.407 24.982 419.704C26.028 420.866 26.961 422.537 28.431 423.094C28.638 423.17 29.022 423.149 29.197 423.28C29.572 423.568 29.633 424.181 30.091 424.367C30.051 424.17 30.007 423.933 29.988 423.754C30.451 423.996 32.048 424.351 31.455 423.12C31.894 423.568 32.524 423.852 32.37 424.766C32.085 424.76 31.775 424.736 31.494 424.666C31.451 425.175 31.014 425.169 30.681 425.3C30.732 425.246 30.811 425.087 30.873 425.018C30.81 424.765 30.625 424.67 30.39 424.709C30.227 424.948 30.036 425.404 29.797 425.489C29.521 425.585 29.321 425.146 29.058 425.22C28.86 425.277 28.693 425.653 28.476 425.757C28.115 425.93 27.643 425.721 27.319 425.706C27.405 425.881 27.844 426.118 27.977 426.211C28.152 426.331 28.251 426.748 28.566 426.334C28.671 426.916 29.216 427.831 29.712 426.681C29.665 427.067 29.475 427.706 29.872 427.769C30.338 427.184 30.853 426.561 30.975 425.831C31.468 425.596 31.937 425.785 32.441 425.558Z" fill="#DCC06D"/>
<path d="M20.243 405.063C19.834 404.959 19.654 405.611 19.64 405.981C19.52 405.76 19.407 405.548 19.341 405.294C19.587 405.11 19.889 404.956 20.164 404.93" fill="#DCC06D"/>
<path d="M65.451 424.916C65.909 424.316 66.965 423.264 66.596 422.356C66.321 421.682 65.533 420.986 64.888 420.618C64.493 420.392 64.037 420.375 63.656 420.129C63.05 419.742 62.469 419.126 61.897 418.668C61.073 418.007 59.657 417.137 59.307 416.152C59.189 415.823 59.078 415.431 58.807 415.157C58.662 415.009 58.497 414.918 58.308 414.853C58.07 414.769 57.865 414.66 57.632 414.594C57.284 414.499 57.092 414.715 56.813 414.797C56.361 414.93 55.879 414.932 55.444 415.123C55.1 415.272 54.889 415.518 54.79 415.882C54.621 416.489 54.894 417.137 54.975 417.768C55.061 418.434 54.822 419.06 55.634 419.54C56.068 419.796 56.459 419.681 56.904 419.795C57.787 420.02 58.653 420.711 59.529 421.04C61.065 421.618 61.787 422.536 62.716 423.788C62.756 423.811 62.787 423.84 62.81 423.877C62.766 423.903 62.72 423.933 62.674 423.959C62.955 424.208 63.276 424.432 63.55 424.684C63.518 424.713 63.487 424.695 63.452 424.72C63.65 424.908 63.806 424.824 64.005 424.908C64.188 424.985 64.35 425.136 64.536 425.196C65.067 425.37 65.224 425.212 65.451 424.916Z" fill="#F3D48C" stroke="#967348" stroke-width="0.269"/>
<path d="M65.282 421.744C64.881 421.592 65.105 420.944 64.736 420.848C64.277 420.729 64.896 421.995 65.34 421.744" fill="#DCC06D"/>
<path d="M66.356 423.123C66.393 423.069 66.41 422.994 66.404 422.927C66.157 422.819 65.574 422.889 65.419 423.076C65.284 423.236 65.378 423.478 65.199 423.64C65.093 423.738 64.729 423.752 64.689 423.853C64.599 424.077 65.092 424.581 64.996 424.889C64.793 424.734 63.695 423.045 63.537 423.771C63.416 423.488 63.066 423.357 62.921 423.097C62.836 422.94 62.735 422.939 62.889 422.798C62.973 422.724 63.033 422.695 63.175 422.777C62.737 422.331 62.028 421.95 61.701 421.414C61.603 421.252 61.656 421.173 61.445 420.973C61.069 420.62 60.528 420.307 60.095 420.034C59.366 419.572 58.464 419.099 57.831 418.508C57.616 418.309 57.543 418.059 57.177 418.166C56.974 418.226 56.941 418.462 56.699 418.159C56.718 418.192 56.737 418.225 56.757 418.258C56.57 418.07 56.363 418.025 56.147 417.898C55.783 417.686 55.495 417.322 55.292 416.978C55.582 416.992 56.261 417.201 56.42 417.464C55.829 416.486 55.881 415.762 56.486 415.04C56.169 415.332 55.596 415.302 55.306 415.65C55.117 415.876 55.021 416.194 55.055 416.519C55.091 416.86 55.163 417.223 55.208 417.581C55.289 418.235 55.026 418.908 55.736 419.404C55.615 419.085 55.95 419.107 56.144 419.322C56.069 419.379 55.967 419.433 55.868 419.466C56.067 419.631 56.465 419.559 56.716 419.62C57.029 419.697 57.283 419.838 57.573 419.979C57.935 420.156 58.31 420.289 58.682 420.441C59.16 420.639 59.699 420.754 60.153 420.986C61.103 421.47 61.877 422.32 62.519 423.139C62.621 423.273 62.83 423.434 62.877 423.588C62.937 423.782 62.742 423.758 62.917 423.986C63.011 424.106 63.186 424.156 63.326 424.264C63.546 424.436 63.722 424.685 63.915 424.872C64.162 424.615 64.433 425.004 64.743 425.073C65.139 425.159 65.24 424.996 65.372 424.727C65.672 424.112 66.268 423.564 66.412 422.979" fill="#DCC06D"/>
<path d="M61.16 427.241C61.618 426.64 62.674 425.589 62.305 424.679C62.03 424.005 61.242 423.31 60.596 422.942C60.201 422.717 59.746 422.699 59.365 422.453C58.759 422.067 58.178 421.45 57.606 420.993C56.781 420.331 55.365 419.46 55.016 418.476C54.898 418.145 54.787 417.756 54.516 417.481C54.371 417.334 54.206 417.243 54.017 417.176C53.779 417.094 53.574 416.984 53.341 416.919C52.992 416.822 52.801 417.039 52.522 417.121C52.07 417.254 51.588 417.257 51.153 417.447C50.809 417.596 50.598 417.842 50.499 418.205C50.33 418.812 50.603 419.46 50.684 420.093C50.77 420.758 50.531 421.385 51.343 421.865C51.777 422.12 52.168 422.005 52.612 422.119C53.496 422.344 54.361 423.036 55.238 423.365C56.774 423.941 57.494 424.86 58.425 426.113C58.465 426.134 58.495 426.164 58.519 426.201C58.475 426.227 58.429 426.258 58.382 426.284C58.664 426.533 58.985 426.757 59.259 427.009C59.227 427.038 59.196 427.019 59.161 427.044C59.359 427.232 59.515 427.149 59.713 427.233C59.897 427.309 60.059 427.46 60.244 427.52C60.776 427.694 60.933 427.536 61.16 427.241Z" fill="#F3D48C" stroke="#967348" stroke-width="0.269"/>
<path d="M60.991 424.069C60.59 423.916 60.814 423.267 60.446 423.172C59.986 423.052 60.605 424.319 61.049 424.068" fill="#DCC06D"/>
<path d="M62.065 425.446C62.101 425.391 62.119 425.318 62.115 425.251C61.865 425.143 61.283 425.213 61.127 425.4C60.993 425.56 61.087 425.801 60.908 425.964C60.801 426.063 60.438 426.077 60.398 426.178C60.308 426.402 60.8 426.905 60.705 427.213C60.502 427.058 59.404 425.37 59.246 426.094C59.125 425.812 58.775 425.681 58.63 425.42C58.545 425.265 58.444 425.263 58.598 425.122C58.682 425.047 58.742 425.02 58.883 425.101C58.446 424.653 57.737 424.273 57.41 423.737C57.311 423.576 57.365 423.495 57.154 423.296C56.778 422.943 56.237 422.631 55.803 422.357C55.074 421.896 54.173 421.422 53.54 420.832C53.324 420.631 53.252 420.383 52.886 420.489C52.683 420.547 52.652 420.785 52.407 420.482C52.427 420.514 52.446 420.547 52.465 420.581C52.279 420.393 52.072 420.348 51.856 420.22C51.491 420.009 51.204 419.645 51.001 419.3C51.291 419.316 51.97 419.524 52.129 419.788C51.538 418.81 51.59 418.086 52.195 417.363C51.877 417.655 51.305 417.626 51.015 417.971C50.826 418.2 50.73 418.518 50.764 418.843C50.8 419.182 50.871 419.546 50.917 419.904C50.998 420.559 50.735 421.231 51.445 421.726C51.324 421.409 51.659 421.43 51.853 421.645C51.778 421.703 51.676 421.755 51.577 421.788C51.776 421.955 52.173 421.882 52.425 421.944C52.738 422.019 52.991 422.161 53.282 422.302C53.644 422.479 54.019 422.611 54.391 422.764C54.869 422.962 55.408 423.077 55.862 423.309C56.813 423.792 57.586 424.643 58.227 425.463C58.33 425.595 58.539 425.758 58.585 425.911C58.645 426.105 58.451 426.081 58.626 426.308C58.72 426.428 58.895 426.477 59.035 426.587C59.255 426.76 59.431 427.009 59.624 427.194C59.871 426.939 60.143 427.327 60.452 427.395C60.848 427.482 60.948 427.319 61.081 427.049C61.381 426.435 61.977 425.885 62.121 425.301" fill="#DCC06D"/>
<path d="M56.028 425.896C55.723 425.495 54.929 425.171 54.482 424.859C53.746 424.351 53.218 423.607 52.656 422.921C52.065 422.196 51.461 421.511 50.979 420.7C50.578 420.026 50.296 419.331 50.051 418.583C49.878 418.059 49.686 417.667 49.123 417.479C47.574 416.963 45.683 418.035 44.708 419.308C43.877 420.396 43.354 422.714 44.555 423.596C44.898 423.847 45.485 423.961 45.87 424.148C46.527 424.467 47.12 424.856 47.696 425.296C48.571 425.969 49.468 426.604 50.217 427.424C50.739 427.999 51.038 428.42 51.184 429.168C51.321 429.855 51.333 430.093 52.005 430.381C52.514 430.6 52.906 431.02 53.443 430.946C54.205 430.842 54.471 430.286 54.963 429.729C55.349 429.291 55.855 429.074 56.26 428.689C57.044 427.94 56.561 426.594 56.028 425.896Z" fill="#F3D48C" stroke="#967348" stroke-width="0.269"/>
<path d="M54.162 429.522C54.053 429.682 53.907 430.037 54.164 430.103C54.093 430.21 54.011 430.344 54.038 430.46C54.494 430.143 54.652 429.81 54.948 429.362C55.125 429.09 55.936 428.894 55.978 428.657C55.988 428.602 55.142 428.798 55.081 428.82C54.722 428.958 54.38 429.203 54.162 429.522Z" fill="#DCC06D"/>
<path d="M54.764 426.512C54.963 426.168 54.659 426.289 54.562 426.069C54.466 425.853 54.75 425.694 54.649 425.473C54.335 425.558 53.571 426.623 54.068 426.704C54.275 426.738 54.223 426.534 54.313 426.497C54.466 426.432 54.656 426.593 54.764 426.512Z" fill="#DCC06D"/>
<path d="M54.434 427.351C54.424 427.29 54.392 427.255 54.34 427.247C54.084 427.479 54.219 427.907 54.01 428.185C53.99 428.177 53.969 428.172 53.95 428.172C54.052 428.283 54.073 428.468 54.192 428.557C54.406 428.285 54.606 427.504 54.412 427.234" fill="#DCC06D"/>
<path d="M53.541 429.721C53.611 429.625 53.665 429.492 53.644 429.388C53.625 429.29 53.102 430.11 53.077 430.131C52.949 429.802 52.776 429.509 52.488 429.263C52.504 429.329 52.467 429.419 52.473 429.485C52.138 429.513 51.658 429.101 51.641 428.755C51.634 428.557 51.859 428.143 52.091 428.235C52.11 428.231 52.11 428.23 52.093 428.229C51.56 428.493 52.617 428.951 52.581 428.284C52.675 428.552 52.827 428.421 52.939 428.243C53.137 427.936 52.959 427.751 52.8 427.472C52.96 427.633 53.146 427.769 53.286 427.945C53.409 428.097 53.461 428.416 53.621 428.48C53.902 428.036 53.34 427.135 52.888 427.018C52.922 426.85 52.838 426.697 52.734 426.574C52.869 426.495 52.903 426.323 52.877 426.185C52.473 426.231 52.41 425.95 52.249 425.653C52.044 425.281 51.871 425.078 51.471 424.962C50.7 424.739 50.082 423.824 49.497 423.301C49.169 423.512 48.833 423.121 48.674 422.919C48.318 422.462 47.924 421.965 47.488 421.582C47.413 421.756 47.277 421.745 47.174 421.607C47.072 421.472 47.174 421.306 47.164 421.153C47.143 420.937 47.136 420.993 47.009 420.84C46.872 420.676 46.512 420.214 46.334 420.176C46.426 420.458 46.545 420.987 46.354 421.27C46.128 421.603 45.979 421.203 45.791 420.999C45.653 420.848 45.407 420.741 45.299 420.605C45.105 420.368 45.357 420.072 45.558 419.895C45.636 419.825 45.757 419.797 45.821 419.722C45.942 419.586 45.863 419.688 45.898 419.544C45.914 419.483 45.875 419.361 45.905 419.262C45.93 419.16 46.026 419.03 46.091 418.946C46.343 418.614 46.721 418.588 47.029 418.371C47.185 418.262 47.206 418.097 47.339 417.978C46.874 418.204 46.318 418.172 45.877 418.464C45.334 418.824 44.918 419.405 44.615 419.968C44.265 420.623 44.172 421.205 44.181 421.913C44.186 422.177 44.085 422.64 44.242 422.857C44.289 422.733 44.348 422.609 44.399 422.491C44.572 422.482 44.712 422.692 44.721 422.848C44.723 422.905 44.608 422.961 44.613 423.052C44.613 423.082 44.741 423.208 44.76 423.23C44.844 423.319 44.75 423.311 44.894 423.371C45.002 423.418 45.182 423.397 45.314 423.447C45.761 423.617 46.112 423.9 46.515 424.145C47.329 424.642 48.075 425.239 48.83 425.804C49.327 426.174 49.779 426.564 50.249 426.969C50.612 427.282 50.889 427.512 51.054 427.976C51.154 428.261 51.235 428.562 51.301 428.86C51.347 429.067 51.352 429.404 51.462 429.585C51.543 429.716 52.272 430.009 51.876 430.148C52.216 430.371 52.763 430.276 53.095 430.535C53.099 430.426 53.074 430.285 52.991 430.196C53.109 430.3 53.25 430.29 53.349 430.44C53.525 430.279 53.557 429.944 53.541 429.721Z" fill="#DCC06D"/>
<path d="M57.26 428.431C56.699 428.205 56.168 427.844 55.671 427.929C54.832 428.073 55.019 428.955 54.816 429.639C54.665 430.151 54.088 430.146 54.135 430.933C54.173 431.616 54.564 432.256 55.161 432.437C55.343 432.492 55.513 432.426 55.747 432.512C55.899 432.569 56.246 432.747 56.428 432.86C57.074 433.259 57.736 434.142 58.199 434.786C58.309 434.941 58.779 435.461 58.651 435.648C58.453 435.948 58.12 435.306 57.887 435.377C57.345 435.545 58.646 437.107 58.894 437.315C59.043 437.44 59.27 437.552 59.437 437.665C59.506 437.71 59.644 437.694 59.69 437.731C59.794 437.815 59.841 437.989 59.932 438.063C60.242 438.312 60.515 438.577 60.875 438.561C61.192 438.548 62.406 438.048 61.871 437.477C62.542 437.394 62.11 436.388 62.05 435.925C62.003 435.579 62.266 434.936 61.571 434.876C61.591 434.426 61.248 433.735 60.815 433.444C59.969 432.878 60.721 433.863 60.502 434.138C59.585 433.077 58.999 431.722 58.637 430.462C58.477 429.905 58.743 429.335 58.517 428.763C58.352 428.346 58.443 428.523 58.189 428.376C58.304 428.441 57.628 428.267 57.708 428.27C57.462 428.261 57.354 428.093 57.26 428.431Z" fill="#F3D48C" stroke="#967348" stroke-width="0.269"/>
<path d="M58.527 429.017C58.417 429.372 58.316 429.021 58.24 428.901C58.079 428.666 57.975 428.562 57.709 428.574C57.344 428.587 57.395 429.001 57.749 429.279C57.729 429.387 57.734 429.515 57.691 429.604C57.467 429.318 57.578 429.009 57.296 428.762C56.908 428.42 56.503 428.784 56.398 429.098C56.212 428.61 54.985 429.554 55.516 429.975C55.409 430.036 55.279 430.017 55.17 429.999C55.295 430.176 55.504 430.216 55.646 430.394C55.684 430.368 55.746 430.382 55.781 430.355C55.944 430.549 56.026 430.759 56.239 430.907C56.219 430.941 56.171 430.971 56.134 430.986C56.009 430.884 55.933 430.732 55.787 430.684C55.804 430.734 55.8 430.822 55.85 430.902C55.787 430.912 55.69 430.959 55.688 431.039C55.686 431.227 55.783 431.158 55.873 431.299C56.04 431.56 56.07 431.687 56.084 431.973C56.009 431.783 55.891 431.609 55.718 431.508C55.716 431.628 55.744 431.782 55.71 431.889C55.693 431.874 55.678 431.857 55.658 431.839C55.686 431.973 55.778 432.104 55.89 432.199C55.574 432.017 55.498 431.79 55.322 431.435C55.443 431.501 55.695 431.678 55.725 431.501C55.749 431.337 55.46 431.136 55.377 430.997C55.53 430.908 55.786 431.123 55.707 430.741C55.644 430.436 55.271 430.193 55.066 430.312C54.788 430.471 54.865 431.246 54.954 431.594C55.011 431.819 55.218 432.128 55.068 432.281C54.941 432.197 54.772 431.956 54.678 431.828C54.496 431.581 54.348 431.319 54.326 431.035C54.292 430.63 54.452 430.238 54.693 430.02C54.791 429.931 55.007 429.941 55.073 429.831C55.121 429.746 55.032 429.448 55.045 429.331C55.077 429.021 55.209 428.597 55.411 428.412C55.664 428.183 55.973 428.183 56.346 428.265C56.623 428.325 57.02 428.486 57.278 428.492C57.405 428.494 57.437 428.385 57.543 428.369C57.674 428.349 57.786 428.422 57.929 428.462C58.213 428.547 58.558 428.641 58.48 429.039C58.453 429 58.439 429.014 58.417 429.008" fill="#DCC06D"/>
<path d="M57.104 432.08C56.861 432.18 56.592 432.1 56.358 431.838C56.302 431.901 56.264 432.363 56.318 432.498C56.412 432.723 56.847 432.859 57.062 433.015C57.42 433.277 57.637 433.586 57.934 433.941C58.265 434.336 58.635 434.773 58.834 435.251C58.966 435.575 58.874 435.858 58.546 435.793C58.305 435.743 57.81 435.196 57.876 435.689C57.973 436.383 59.039 437.305 59.588 437.525C59.135 437.055 59.306 436.472 59.879 436.847C60.229 437.075 59.912 436.978 60.071 437.227C60.181 437.401 60.297 437.271 60.343 437.179C60.586 437.483 60.713 437.653 60.608 437.984C60.556 438.14 60.399 438.499 60.779 438.353C60.729 437.99 60.684 437.625 60.646 437.269C60.631 437.132 60.508 436.407 60.771 436.637C60.88 436.285 61.471 437.251 61.577 437.419C61.722 437.151 61.478 436.776 61.508 436.465C61.542 436.098 61.671 435.726 61.538 435.293C61.462 435.41 61.51 435.649 61.42 435.756C61.263 435.603 61.267 435.402 61.161 435.242C61.056 435.083 60.898 435.032 60.81 434.843C60.704 434.614 60.834 434.495 60.821 434.294C60.806 434.099 60.674 433.898 60.64 433.712C60.853 434.722 60.053 433.711 59.792 433.359C59.972 433.756 60.437 434.315 60.504 434.691C60.556 434.966 60.379 434.921 60.687 435.167C60.898 435.337 61.13 435.433 61.064 435.745C61.026 435.932 60.968 435.895 60.775 435.874C60.787 436.007 60.846 436.143 60.934 436.262C60.997 436.019 61.181 436.014 61.298 436.283C61.445 436.624 61.384 436.93 61.085 436.692C60.999 436.625 60.983 436.509 60.882 436.469C60.797 436.437 60.691 436.527 60.613 436.532C60.406 436.546 60.364 436.499 60.175 436.278C59.958 436.023 59.715 435.778 59.618 435.461C59.58 435.339 59.601 435.15 59.538 435.033C59.459 434.887 59.237 434.702 59.124 434.58C58.627 434.055 58.166 433.548 57.714 432.969C57.531 432.734 57.054 432.376 57.123 432.062" fill="#DCC06D"/>
<path d="M43.181 428.721C41.993 427.793 40.526 427.062 39.406 426.137C38.14 425.095 38.251 424.366 38.328 422.748C38.465 419.99 41.394 419.499 43.335 418.519C43.834 418.916 44.417 418.959 44.831 419.375C45.46 420.008 45.728 421.505 46.072 422.33C46.969 424.476 47.899 426.301 49.879 427.345C50.763 427.807 52.854 429.718 52.641 430.846C52.468 431.751 51.225 432.008 50.627 432.471C49.996 432.958 49.358 434.486 48.652 434.718C47.891 434.967 46.824 433.913 46.464 433.364C46.006 432.663 46.036 431.722 45.526 431.054C45.189 430.613 44.667 430.237 44.298 429.786C43.979 429.396 43.597 429.046 43.181 428.721Z" fill="#F3D48C" stroke="#967348" stroke-width="0.269"/>
<path d="M52.073 431.226C51.561 430.725 50.062 430.667 49.619 431.431C50.241 431.566 50.538 431.54 50.05 432.17C49.719 432.595 48.986 433.474 49.184 434.028C49.57 433.685 49.8 433.133 50.159 432.747C50.453 432.433 50.797 432.184 51.159 431.958C51.537 431.717 52.26 431.444 52.442 430.964C52.593 430.557 52.12 429.853 51.853 429.603C51.421 429.199 51.197 428.653 50.733 428.256C50.962 428.676 51.048 429.157 51.406 429.493C51.611 429.684 51.855 429.759 52.027 430.005C52.257 430.336 52.407 431.588 51.765 430.959" fill="#DCC06D"/>
<path d="M50.187 429.969C50.316 429.861 50.465 429.764 50.581 429.659C50.293 429.572 50.36 429.428 50.252 429.245C50.122 429.026 49.945 428.743 49.734 428.556C49.917 429.019 50.039 429.523 50.264 429.96" fill="#DCC06D"/>
<path d="M38.575 424.342C38.662 424.892 38.813 425.327 39.227 425.678C39.823 426.188 40.583 426.497 41.194 427.023C42.853 428.448 45.51 429.599 46.153 431.919C46.339 432.582 46.801 433.354 47.337 433.755C47.59 433.946 47.974 434.347 48.296 434.363C48.344 433.59 48.133 432.369 48.977 431.899C48.776 431.045 47.66 432.728 47.918 433.153C47.582 432.599 46.541 432.56 46.394 431.873C46.347 431.658 46.437 431.43 46.683 431.376C47.17 431.274 47.329 431.922 47.403 432.267C47.561 431.915 47.514 430.586 46.99 430.635C46.998 429.112 46.226 428.284 45.115 427.479C44.625 427.123 44.37 426.408 44.023 425.905C43.618 425.321 43.255 424.718 42.841 424.172C42.894 424.568 42.726 424.579 42.416 424.597C42.356 424.603 42.225 424.501 42.131 424.502C41.777 424.504 41.559 424.876 41.139 424.736C40.723 424.597 39.756 423.324 40.696 423.18C40.408 422.907 40.689 422.481 41.073 422.842C41.048 422.773 40.875 422.445 40.732 422.468C40.536 422.5 40.534 422.878 40.469 423.067C40.375 423.342 40.162 423.939 39.85 424.056C39.39 424.23 39.294 423.765 39.514 423.405C39.683 423.129 39.983 422.954 40.188 422.69C39.959 422.426 40.09 422.011 40.329 421.767C40.658 421.432 41.028 421.558 41.381 421.465C41.1 421.537 40.756 421.226 40.493 421.172C40.232 421.119 39.657 421.248 39.736 420.776C39.713 420.74 39.647 420.655 39.619 420.616C39.224 420.9 38.933 421.636 38.717 422.078C38.341 422.832 38.455 423.575 38.575 424.342Z" fill="#DCC06D"/>
<path d="M45.638 421.927C45.491 421.509 45.383 420.967 45.079 420.657C45.126 420.959 45.387 421.645 45.629 421.701" fill="#DCC06D"/>
<path d="M53.835 434.507C53.681 434.136 53.467 433.691 53.394 433.316C53.344 433.059 53.481 432.708 53.389 432.471C53.205 431.995 52.576 431.98 52.059 431.874C51.52 431.765 50.998 431.843 50.505 432.01C49.654 432.302 49.103 433.053 48.984 433.948C48.909 434.51 48.63 435.03 49.294 435.43C49.885 435.784 50.631 435.894 51.261 436.319C51.896 436.752 52.325 437.374 52.861 437.92C53.128 438.194 53.481 438.429 53.548 438.791C53.345 438.684 53.199 438.75 53.038 438.723C53.468 440.103 56.042 442.236 56.897 440.907C56.996 440.754 56.878 440.498 56.949 440.337C56.987 440.248 57.239 440.194 57.297 440.032C57.359 439.863 57.284 439.223 57.256 439.005C57.188 438.402 56.809 438.138 56.581 437.684C56.4 437.327 56.335 436.322 55.785 436.444C55.731 436.307 55.58 436.161 55.463 436.072C55.054 436.436 55.111 436.835 54.544 436.068C54.206 435.609 54.042 435.012 53.835 434.507Z" fill="#F3D48C" stroke="#967348" stroke-width="0.269"/>
<path d="M50.175 433.938C49.991 434.201 49.654 434.228 49.541 434.594C49.478 434.798 49.498 435.12 49.599 435.334C49.789 435.225 49.966 435.051 50.134 434.947C50.26 434.868 50.509 434.623 50.674 434.581C51.102 434.475 51.964 435.27 52.173 435.661C52.196 435.058 53.037 436.247 53.154 436.386C53.687 437.022 54.284 437.611 54.835 438.232C54.756 438.41 54.875 438.67 54.941 438.866C54.516 438.654 54.732 439.531 55.001 439.088C55.091 439.254 55.212 439.412 55.329 439.561C55.275 439.596 55.241 439.69 55.188 439.721C55.51 439.978 55.943 439.194 55.964 438.938C55.992 438.55 55.73 438.041 55.584 437.67C55.48 437.4 55.397 437.034 55.23 436.795C55.385 436.78 55.466 436.638 55.475 436.482C55.601 436.843 55.767 437.023 56.021 437.283C55.365 436.983 56.158 437.893 56.158 437.93C56.124 437.941 56.102 437.939 56.072 437.951C56.092 438.095 56.203 438.21 56.339 438.273C56.025 438.301 56.235 438.553 56.412 438.666C56.171 438.512 56.448 439.151 56.47 439.188C56.549 439.327 56.739 439.708 56.933 439.592C57.069 439.511 57.029 438.919 56.988 438.753C57.238 439.244 56.971 439.556 56.835 439.947C56.805 439.731 56.816 439.524 56.603 439.366C56.331 439.161 55.978 439.291 55.992 439.597C55.996 439.683 56.115 439.782 56.111 439.859C56.109 439.893 56.019 440.109 56.01 440.074C55.884 439.54 55.531 439.859 55.69 440.081C55.65 440.138 55.556 440.208 55.481 440.225C55.399 440.039 55.224 439.932 55.069 440.07C54.958 439.908 54.764 439.658 54.591 439.857C54.495 439.691 54.191 439.218 53.971 439.333C53.732 439.457 54.255 439.692 54.148 439.881C54.249 440 54.392 440.042 54.528 440.012C54.536 440.11 54.568 440.241 54.637 440.326C54.664 440.36 54.976 440.53 54.997 440.533C55.163 440.56 55.547 440.544 55.621 440.427C55.673 440.534 55.715 440.509 55.805 440.6C55.98 440.429 56.287 440.355 56.36 440.124C56.81 440.393 56.13 440.434 56.032 440.562C55.998 440.536 55.972 440.508 55.938 440.483C55.846 440.56 55.765 440.652 55.675 440.727C55.657 440.695 55.598 440.638 55.579 440.593C55.513 440.644 55.415 440.649 55.359 440.726C55.203 440.407 55.006 440.508 54.811 440.646C54.664 440.524 54.636 440.337 54.493 440.226C54.348 440.415 54.28 440.278 54.186 440.147C54.123 440.061 54.137 439.954 54.08 439.87C54.019 439.785 53.954 439.794 53.888 439.721C53.621 439.435 53.344 439.138 53.244 438.762C53.423 438.762 53.679 438.944 53.835 438.853C53.568 438.545 53.369 438.199 53.091 437.891C52.638 437.399 52.184 436.917 51.732 436.426C51.275 435.933 50.68 435.587 50.066 435.443C49.501 435.31 49.006 435.32 48.917 434.6C49.184 434.92 49.616 434.012 49.408 433.844C49.288 433.944 49.181 434.059 49.077 434.17C49.092 432.78 50.435 432.006 51.668 431.891C51.498 432.029 51.434 432.242 51.225 432.321C51.079 432.374 50.801 432.377 50.618 432.439C50.069 432.62 49.552 432.802 49.53 433.476C49.95 433.525 50.445 433.077 50.739 432.82C50.95 432.632 51.141 432.469 51.464 432.621C51.368 432.939 50.795 433.111 50.539 433.281C50.415 433.362 50.213 433.463 50.157 433.609C50.134 433.663 50.167 433.949 50.175 433.938Z" fill="#DCC06D"/>
<path d="M34.204 422.51C35.982 422.545 36.354 422.995 36.786 424.772C37.17 426.33 37.932 427.858 38.716 429.108C39.021 429.596 39.403 430.352 39.846 430.674C40.22 430.947 40.922 430.723 41.224 430.976C41.843 431.505 41.945 433.445 41.954 434.33C41.039 434.782 40.933 435.578 40.311 436.354C39.73 437.081 38.973 437.09 38.431 437.804C37.551 437.455 36.781 437.178 36.045 436.577C36.739 434.139 34.72 432.473 33.461 431.374C32.82 430.812 32.437 430.59 31.607 430.62C30.685 430.652 30.242 430.972 29.717 430.206C28.851 428.95 29.701 426.774 30.704 425.415C31.189 424.754 32.313 424.143 32.954 423.561C33.692 422.897 34.349 422.034 35.275 422.871" fill="#F3D48C"/>
<path d="M34.204 422.51C35.982 422.545 36.354 422.995 36.786 424.772C37.17 426.33 37.932 427.858 38.716 429.108C39.021 429.596 39.403 430.352 39.846 430.674C40.22 430.947 40.922 430.723 41.224 430.976C41.843 431.505 41.945 433.445 41.954 434.33C41.039 434.782 40.933 435.578 40.311 436.354C39.73 437.081 38.973 437.09 38.431 437.804C37.551 437.455 36.781 437.178 36.045 436.577C36.739 434.139 34.72 432.473 33.461 431.374C32.82 430.812 32.437 430.59 31.607 430.62C30.685 430.652 30.242 430.972 29.717 430.206C28.851 428.95 29.701 426.774 30.704 425.415C31.189 424.754 32.313 424.143 32.954 423.561C33.692 422.897 34.349 422.034 35.275 422.871" stroke="#967348" stroke-width="0.2591"/>
<path d="M40.893 433.458C39.867 433.521 40.296 432.045 39.926 431.473C39.515 431.809 39.079 431.862 38.747 431.597C38.88 432.19 38.695 432.899 38.527 433.54C38.302 433.602 38.266 433.437 38.08 433.401C37.938 433.374 37.731 433.465 37.61 433.302C37.401 433.03 37.757 432.32 37.803 431.981C37.351 432.161 37.208 431.782 36.925 431.52C36.364 430.999 35.798 430.48 35.265 429.913C34.751 429.376 34.26 428.79 33.783 428.21C33.59 427.978 33.387 427.574 33.154 427.434C32.937 427.73 32.685 427.984 32.395 428.15C32.148 427.781 31.855 429.036 31.316 428.906C30.751 428.768 31.264 427.952 31.291 427.498C31.308 427.222 31.169 427.272 31.243 426.911C31.261 426.83 31.444 426.427 31.504 426.294C31.709 425.842 32.08 425.168 32.511 425.405C32.519 425.37 32.481 425.33 32.481 425.295C32.508 425.219 32.544 425.285 32.535 425.143C32.029 424.937 31.628 426.017 31.023 426.108C31.157 425.565 31.764 425.061 31.827 424.615C31.334 425.66 30.419 426.364 30.044 427.499C29.8 428.234 29.594 428.895 29.692 429.594C29.903 431.048 31.216 430.396 32.264 430.426C33.524 430.459 34.55 431.224 35.361 432.122C35.853 432.667 36.37 433.59 36.557 434.4C36.657 434.835 36.258 436.265 36.491 436.3C36.561 436 36.813 435.885 36.99 436.074C37.108 436.202 37.001 436.687 37.12 436.875C37.269 437.113 38.046 437.618 38.359 437.589C38.996 437.529 41.014 435.474 41.126 434.622C40.88 434.594 40.456 434.409 40.186 434.528C39.761 434.718 40.023 434.657 39.927 435.021C39.712 435.848 39.581 436.333 38.739 436.466C38.067 436.572 38.176 436.157 38.459 435.402C38.582 435.076 39.063 433.797 38.354 434.309C38.545 433.913 39.958 433.535 40.134 433.81C40.309 433.605 40.533 433.47 40.612 433.596" fill="#DCC06D"/>
<path d="M35.268 423.147C35.124 422.79 34.761 422.861 34.432 422.912C35.204 423.128 34.305 424.769 33.897 425.227C34.136 425.318 34.338 425.268 34.52 425.005C34.651 424.822 34.661 424.33 34.74 424.109C34.906 423.641 35.173 423.276 35.425 422.855" fill="#DCC06D"/>
<path d="M44.898 438.612C44.941 438.49 43.795 437.207 43.7 436.9C43.457 436.118 43.949 435.531 43.945 434.711C43.939 434.291 42.936 433.384 42.834 433.932C43.111 432.442 42.006 433.754 41.589 433.979C41.254 434.158 40.032 433.838 40.345 434.869C39.066 435.57 38.95 436.521 39 437.617C39.008 437.781 38.739 438.057 38.756 438.328C38.763 438.428 39.195 438.979 39.277 439.052C39.617 439.357 39.918 439.582 40.437 439.589C40.736 438.132 43.955 440.266 43.063 441.991C43.952 442.639 44.793 444.261 46.035 442.48C47.348 440.595 46.594 438.667 45.431 437.811C45.204 438.128 45.015 438.28 44.898 438.612Z" fill="#F3D48C" stroke="#967348" stroke-width="0.2108"/>
<path d="M45.152 438.508C45.035 439.028 45.037 439.232 45.226 439.591C45.489 439.4 45.988 439.923 45.928 440.252C45.856 440.244 45.769 440.294 45.737 440.296C45.865 440.859 46.308 441.01 45.984 441.752C45.95 441.635 45.942 441.272 45.841 441.22C45.587 441.088 45.67 441.293 45.498 441.45C45.299 441.63 44.874 442.065 44.806 442.341C44.653 443.026 45.433 442.07 45.688 442.32C45.528 443.209 44.516 443.11 44.197 442.857C43.937 442.649 43.768 442.353 43.561 442.075C43.314 441.737 43.438 441.725 43.415 441.277C43.364 440.167 41.477 437.844 40.365 439.248C40.272 439.063 40.111 438.905 39.971 438.784C39.934 438.837 39.894 438.888 39.854 438.939C39.775 438.767 39.58 438.791 39.38 438.874C39.611 438.422 39.485 438.127 39.083 438.149C39.591 437.65 39.2 436.774 39.388 436.151C39.55 436.102 39.687 436.138 39.783 436.249C39.345 436.95 39.267 437.719 39.679 438.102C39.83 437.782 39.789 436.958 40.064 436.81C40.036 436.754 40.03 436.681 40.018 436.64C40.701 436.677 40.981 436.235 41.462 435.55C41.774 435.109 41.639 435.14 41.733 434.572C41.556 435.245 42.151 434.822 42.311 435.191C41.675 435.347 40.616 436.205 41.174 436.897C41.406 437.183 41.756 436.857 42.055 436.956C42.302 437.035 42.542 437.377 42.684 437.6C43.107 438.273 43.346 439.187 43.793 439.872C44.13 440.387 44.279 440.821 44.529 441.385C44.695 441.76 45.209 441.808 45.446 441.246C45.682 440.695 45.25 440.11 45.09 439.749C45.405 439.157 44.279 439.011 45.063 438.373" fill="#DCC06D"/>
<path d="M43.402 435.509C43.745 435.143 43.536 434.763 43.185 434.834C43.183 435.124 43.446 435.357 43.559 435.442" fill="#DCC06D"/>
<path d="M65.464 430.604C65.496 430.521 64.462 429.201 64.368 428.936C64.134 428.267 64.543 427.963 64.514 427.332C64.496 427.01 63.597 426.019 63.525 426.408C63.72 425.348 62.797 426.028 62.443 426.076C62.155 426.113 61.083 425.509 61.387 426.39C60.292 426.548 60.223 427.241 60.299 428.096C60.312 428.223 60.085 428.357 60.11 428.569C60.118 428.647 60.513 429.198 60.584 429.276C60.889 429.61 61.16 429.873 61.611 430.031C61.827 429.005 64.693 431.588 63.968 432.646C64.763 433.406 65.546 434.896 66.572 433.9C67.654 432.843 66.94 431.144 65.901 430.145C65.715 430.323 65.556 430.384 65.464 430.604Z" fill="#F3D48C" stroke="#967348" stroke-width="0.1709"/>
<path d="M65.683 430.599C65.595 430.961 65.604 431.12 65.781 431.45C66.003 431.382 66.453 431.93 66.412 432.164C66.347 432.138 66.274 432.149 66.246 432.141C66.374 432.612 66.765 432.858 66.506 433.33C66.472 433.229 66.455 432.95 66.366 432.88C66.139 432.705 66.219 432.886 66.073 432.955C65.907 433.034 65.549 433.242 65.499 433.433C65.387 433.912 66.037 433.412 66.265 433.678C66.156 434.31 65.272 433.936 64.984 433.648C64.752 433.412 64.596 433.134 64.406 432.862C64.182 432.531 64.289 432.557 64.257 432.208C64.179 431.343 62.466 429.007 61.54 429.753C61.452 429.584 61.307 429.414 61.182 429.28C61.152 429.311 61.118 429.337 61.086 429.365C61.011 429.208 60.843 429.17 60.672 429.175C60.861 428.898 60.74 428.634 60.392 428.533C60.818 428.301 60.45 427.514 60.595 427.092C60.734 427.103 60.856 427.17 60.941 427.281C60.583 427.692 60.538 428.256 60.91 428.671C61.031 428.47 60.97 427.828 61.204 427.795C61.179 427.746 61.17 427.688 61.159 427.652C61.755 427.882 61.982 427.626 62.384 427.244C62.642 426.999 62.525 426.983 62.589 426.575C62.453 427.038 62.959 426.89 63.11 427.22C62.562 427.154 61.665 427.497 62.174 428.191C62.385 428.48 62.677 428.333 62.942 428.496C63.16 428.632 63.377 428.964 63.507 429.177C63.897 429.816 64.131 430.587 64.543 431.244C64.852 431.737 64.995 432.116 65.23 432.621C65.385 432.955 65.834 433.144 66.026 432.784C66.214 432.431 65.819 431.857 65.668 431.533C65.927 431.173 64.94 430.728 65.603 430.47" fill="#DCC06D"/>
<path d="M64.066 427.783C64.354 427.604 64.16 427.252 63.857 427.204C63.864 427.424 64.1 427.682 64.2 427.78" fill="#DCC06D"/>
<path d="M68.079 426.587C67.747 426.316 67.633 425.813 67.5 425.436C67.329 424.948 67.365 424.74 67.446 424.312C67.649 423.242 66.046 423.599 65.653 423.892C65.278 424.172 64.713 425.018 64.894 425.651C64.999 426.029 65.337 425.951 65.597 426.056C65.919 426.187 66.209 426.573 66.459 426.834C66.719 427.108 66.894 427.357 67.083 427.684C66.996 427.717 66.87 427.675 66.77 427.659C66.815 427.848 66.973 428.157 67.06 428.333C67.156 428.521 67.297 428.792 67.436 428.949C67.581 428.933 67.73 429.197 67.881 429.292C68.078 429.415 68.351 429.474 68.544 429.436C68.926 429.362 69.101 429.065 69.246 428.738C69.194 428.686 69.199 428.64 69.17 428.597C69.284 428.761 69.344 428.272 69.34 428.242C69.321 428.034 69.194 427.823 69.122 427.623C69.047 427.428 68.846 426.742 68.563 426.963C68.7 426.799 68.536 426.563 68.334 426.474C68.265 426.439 67.896 426.438 68.079 426.587Z" fill="#F3D48C" stroke="#967348" stroke-width="0.269"/>
<path d="M66.458 425.731C66.709 425.878 66.945 426.26 67.166 426.513C67.419 426.809 67.856 427.098 68.057 427.44C68.137 427.574 68.115 427.705 68.175 427.842C68.217 427.942 68.302 428.015 68.323 428.115C68.166 428.146 67.943 428.136 68.02 428.413C68.099 428.684 68.317 428.608 68.464 428.57C68.322 429.027 68.054 428.68 67.773 428.57C67.685 428.186 67.417 428.518 67.417 428.719C67.511 428.809 67.594 428.738 67.665 428.685C67.713 428.74 67.745 428.801 67.759 428.869C67.739 428.879 67.721 428.908 67.701 428.918C67.718 428.995 67.761 429.062 67.828 429.112C67.901 429.091 67.914 429.025 67.866 428.94C67.952 428.981 68.012 429.064 68.012 429.159C68.049 429.096 68.113 429.065 68.189 429.072C68.177 429.096 68.175 429.135 68.16 429.162C68.316 429.363 68.466 429.099 68.608 429.084C68.595 429.138 68.579 429.224 68.617 429.291C68.497 429.299 68.401 429.384 68.288 429.369C68.173 429.353 68.115 429.216 67.978 429.302C67.865 429.141 67.682 429.058 67.616 428.878C67.439 428.97 67.238 428.508 67.13 428.325C67.067 428.221 66.914 427.974 66.932 427.857C66.956 427.694 67.105 427.82 67.199 427.744C67.127 427.523 66.939 427.318 66.788 427.152C66.594 426.939 66.387 426.688 66.184 426.453C65.993 426.228 65.798 426.009 65.534 425.921C65.332 425.855 65.134 425.963 65.014 425.711C64.775 425.204 65.114 424.615 65.336 424.297C65.436 424.151 65.572 423.976 65.733 423.901C65.909 423.819 66.226 423.837 65.968 424.07C65.874 424.156 65.635 424.133 65.582 424.255C65.51 424.411 65.712 424.65 65.498 424.725C65.464 424.674 65.406 424.618 65.379 424.556C65.275 424.607 65.339 424.764 65.347 424.883C65.363 425.086 65.341 425.08 65.266 425.208C65.188 425.343 64.989 425.594 65.143 425.788C65.313 425.803 65.574 425.698 65.698 425.592C65.894 425.423 65.902 425.154 65.988 424.909C65.976 424.942 66.084 425.284 66.103 425.34C66.171 425.54 66.276 425.626 66.458 425.731Z" fill="#DCC06D"/>
<path d="M68.978 428.042C68.978 428.109 68.98 428.182 68.986 428.249C68.95 428.153 68.874 428.102 68.805 428.15C68.838 428.046 68.875 427.86 68.841 427.748C68.79 427.574 68.668 427.56 68.54 427.424C68.412 427.292 68.425 427.202 68.367 427.069C68.299 426.923 68.179 426.78 68.107 426.632C68.399 426.546 68.435 427.144 68.544 427.277C68.645 427.402 68.819 427.425 68.896 427.544C68.963 427.65 68.996 428.023 68.986 428.133" fill="#DCC06D"/>
<path d="M68.935 428.934C68.96 428.871 68.984 428.81 68.986 428.741C68.888 428.706 68.829 428.61 68.82 428.506C68.575 428.47 68.767 428.894 68.921 428.912" fill="#DCC06D"/>
<path d="M39.479 242.989C39.799 240.65 40.511 238.842 42.107 239.17C41.305 239.42 40.211 239.387 39.396 239.41C39.853 235.36 43.318 228.542 47.392 227.159C47.524 229.329 49.013 231.412 49.498 233.595C50.115 236.36 48.882 237.837 47.852 240.295C47.464 240.259 46.933 240.422 46.537 240.385C47.023 250.901 45.894 262.579 43.32 272.894C40.066 285.953 40.297 299.178 38.172 312.438C37.039 319.515 36.545 326.775 35.041 333.785C33.849 339.348 32.4 344.92 32.456 350.608C32.501 355.471 33.364 360.632 32.857 365.47C32.391 369.89 32.4 373.427 33.628 377.872C34.291 380.261 33.916 381.84 33.174 384.508C31.873 384.595 28.351 382.778 27.199 381.929C25.444 380.636 24.999 379.331 24.786 376.903C24.293 371.324 26.395 365.937 25.835 360.505C25.347 355.775 26.403 351.222 26.839 346.533C27.287 341.718 27.891 336.752 28.222 331.985C28.554 327.211 29.312 322.614 29.914 317.907C30.933 309.973 31.81 302.59 33.526 294.751C35.348 286.418 36.756 277.981 37.399 269.47C37.851 263.441 38.327 257.282 39.122 251.263C39.553 247.986 38.252 241.761 41.379 239.408C37.736 239.156 39.515 233.945 40.551 231.987C41.78 229.663 44.094 223.509 46.72 227.057C46.432 227.116 46.206 227.007 46.041 226.731" fill="#F3D48C"/>
<path d="M39.479 242.989C39.799 240.65 40.511 238.842 42.107 239.17C41.305 239.42 40.211 239.387 39.396 239.41C39.853 235.36 43.318 228.542 47.392 227.159C47.524 229.329 49.013 231.412 49.498 233.595C50.115 236.36 48.882 237.837 47.852 240.295C47.464 240.259 46.933 240.422 46.537 240.385C47.023 250.901 45.894 262.579 43.32 272.894C40.066 285.953 40.297 299.178 38.172 312.438C37.039 319.515 36.545 326.775 35.041 333.785C33.849 339.348 32.4 344.92 32.456 350.608C32.501 355.471 33.364 360.632 32.857 365.47C32.391 369.89 32.4 373.427 33.628 377.872C34.291 380.261 33.916 381.84 33.174 384.508C31.873 384.595 28.351 382.778 27.199 381.929C25.444 380.636 24.999 379.331 24.786 376.903C24.293 371.324 26.395 365.937 25.835 360.505C25.347 355.775 26.403 351.222 26.839 346.533C27.287 341.718 27.891 336.752 28.222 331.985C28.554 327.211 29.312 322.614 29.914 317.907C30.933 309.973 31.81 302.59 33.526 294.751C35.348 286.418 36.756 277.981 37.399 269.47C37.851 263.441 38.327 257.282 39.122 251.263C39.553 247.986 38.252 241.761 41.379 239.408C37.736 239.156 39.515 233.945 40.551 231.987C41.78 229.663 44.094 223.509 46.72 227.057C46.432 227.116 46.206 227.007 46.041 226.731" stroke="#967348" stroke-width="0.3218"/>
<path d="M45.246 230.648C47.087 231.901 47.46 234.542 46.591 236.371C46.251 236.253 45.881 236.192 45.551 236.055C45.859 237.801 44.504 238.373 43.067 238.475C45.753 238.286 46.96 240.453 48.448 236.705C49.615 233.769 48.515 230.129 46.109 228.198C45.607 228.875 44.922 229.567 44.539 230.276" fill="#DCC06D"/>
<path d="M39.742 255.574C39.386 259.432 40.922 263.254 40.247 267.023C39.678 270.2 38.475 273.405 37.894 276.539C37.714 273.123 38.577 269.614 38.825 266.218C39.063 262.885 37.975 257.803 39.398 254.853" fill="#DCC06D"/>
<path d="M35.934 320.951C33.455 329.811 31.526 339.021 30.467 348.033C29.565 355.71 30.474 365.36 27.716 372.541C28.815 369.805 29.358 368.533 30.632 371.627C31.794 374.45 32.133 377.926 32.968 380.878C31.28 368.872 31.234 356.463 32.97 344.499C33.615 340.048 34.595 335.728 35.449 331.313C36.141 327.738 38.305 320.124 36.007 316.79C35.173 319.771 34.901 323.192 34.397 326.287" fill="#DCC06D"/>
<path d="M48.121 201.791C47.674 204.722 46.726 207.602 44.979 209.85C43.39 211.894 41.564 210.742 39.344 210.566C36.813 210.367 34.667 208.668 32.033 208.434C28.362 208.11 24.813 208.963 21.586 210.714C19.071 212.078 16.228 212.985 13.417 213.059C13.782 215.197 10.898 213.324 10.341 212.707C8.882 211.091 8.256 209.325 7.379 207.408C6.852 206.259 6.382 205.498 6.472 204.186C6.568 202.82 6.66601 201.452 6.77901 200.086C6.88201 198.851 7.13899 197.694 6.98599 196.441C6.89799 195.725 6.74701 194.958 6.93201 194.244C7.11401 193.552 7.64001 193.01 8.03301 192.431C9.11601 190.827 10.179 189.227 11.13 187.539C13.052 184.127 14.665 180.553 16.245 176.974C18.075 172.832 19.638 168.699 21.118 164.441C22.035 161.8 22.731 159.256 23.45 156.561C25.503 148.848 28.509 141.508 30.491 133.755C32.568 125.626 34.059 117.344 35.826 109.136C37.433 101.68 40.261 94.609 42.741 87.4C44.068 83.548 45.005 79.549 46.423 75.693C47.212 73.545 47.875 71.396 48.43 69.172C49.21 66.051 49.371 62.979 49.992 59.834C50.736 56.077 52.078 52.473 53.321 48.864C53.876 47.254 54.337 45.629 54.912 44.018C55.817 41.489 55.742 39.49 55.791 36.911C56.333 38.165 56.331 39.726 56.028 41.148C55.449 43.875 54.4 46.805 53.372 49.398C52.842 48.105 53.065 46.716 52.801 45.168C52.553 43.728 52.078 42.205 51.449 40.89C51.192 40.353 50.394 39.465 50.281 38.954C49.938 37.4 51.576 36.717 52.336 35.651C53.987 33.33 54.571 29.33 52.954 26.858C51.576 24.75 49.875 22.34 47.514 21.285C45.237 20.268 41.964 20.215 40.367 18.104C35.831 12.102 40.758 7.417 45.115 3.436C47.642 1.127 51.264 -0.287006 54.512 1.70699C58.05 3.87799 55.919 9.03299 54.107 11.517C55.171 9.32199 56.287 8.156 56.411 5.592C56.576 5.53 56.761 5.47999 56.932 5.43899C58.01 7.49499 58.585 10.067 60.303 11.871C62.275 13.945 65.783 15.812 68.72 15.493C67.738 15.588 64.779 15.225 64.461 13.935C64.293 13.248 65.268 11.822 65.286 10.948C67.57 10.15 70.84 9.53699 72.967 11.116C74.007 11.888 74.149 12.916 74.654 13.981C75.214 15.154 76.136 16.025 76.983 16.879C75.917 18.36 76.77 21.3 77.307 22.878C78.087 25.167 79.841 26.766 79.033 29.35C78.179 32.075 75.828 33.933 74.535 36.408C70.779 43.601 68.657 51.576 66.439 59.489C64.289 67.166 62.008 74.828 60.606 82.685C59.946 86.368 59.983 89.974 58.879 93.584C57.763 97.243 56.115 100.708 54.761 104.279C52.882 109.228 51.549 114.288 50.174 119.389C48.757 124.647 48.094 130.019 46.654 135.285C45.901 138.046 45.537 140.801 44.732 143.53C43.795 146.717 42.614 149.853 42.294 153.184C41.941 156.887 41.765 160.639 41.681 164.353C41.624 166.975 42.262 169.446 42.356 172C42.467 175.005 42.462 177.896 42.753 180.92C42.955 183.02 43.354 184.91 44.269 186.814C45.15 188.643 46.37 189.825 47.624 191.343C48.701 192.651 48.408 194.564 48.446 196.406C48.484 198.128 48.399 199.971 48.121 201.791Z" fill="#F3D48C" stroke="#967348" stroke-width="0.3218"/>
<path d="M41.91 179.729C40.947 175.514 40.761 171.452 40.674 167.151C40.621 164.483 40.399 161.797 40.326 159.145C40.241 156.127 41.288 153.06 41.572 150.052C41.313 152.791 40.498 155.544 40.083 158.277C39.68 160.922 38.69 163.427 38.187 166.049C37.738 168.393 37.626 170.113 36.126 172.105C34.648 174.074 32.727 175.974 30.893 177.6C29.158 179.135 25.586 180.882 24.736 182.731C23.687 185.006 24.625 187.971 22.974 190.018C21.241 192.165 18.045 193.723 15.885 195.464C16.906 196.687 13.693 198.303 12.741 198.544C12.647 197.253 11.832 196.233 11.516 194.999C11.292 194.127 11.764 193.055 10.266 193.406C10.177 192.629 10.507 191.387 11.134 190.907C11.893 191.479 12.849 191.572 13.143 192.59C13.051 192.015 12.571 191.869 12.392 191.412C12.158 190.818 12.21 190.77 12.149 190.169C12.045 189.116 12.697 188.134 12.456 187.129C10.995 188.09 10.037 190.954 9.005 192.425C8.22 193.544 7.621 194.936 7.138 196.157C10.817 199.276 10.882 204.475 11.873 208.706C11.415 205.296 13.571 201.908 15.592 199.503C17.107 197.701 18.407 195.658 20.368 194.284C21.622 193.404 23.078 192.958 24.422 192.199C27.085 190.696 29.212 187.54 31.442 185.421C33.33 183.626 35.294 180.026 37.723 179.083C38.304 180.325 37.073 182.424 37.246 183.919C37.502 186.101 39.303 187.832 40.309 189.698C41.13 191.222 42.21 193.812 41.792 195.589C41.452 197.027 40.762 196.818 39.58 197.306C42.2 200.102 42.04 204.696 38.715 206.725C36.674 207.97 34.819 208.441 32.603 208.018C30.418 207.602 28.532 207.838 26.424 208.614C29.279 207.936 31.942 208.454 34.774 208.996C36.873 209.397 39.04 210.399 41.188 210.295C43.555 210.178 44.312 209.369 45.461 207.384C47.302 204.208 47.899 200.036 47.562 196.423C47.156 192.079 44.317 189.341 42.943 185.386C42.335 183.634 42.333 181.572 41.91 179.729Z" fill="#DCC06D"/>
<path d="M65.474 38.94C66.13 37.303 66.371 36.129 67.587 35.212C68.967 34.168 70.434 33.597 71.625 32.247C72.45 31.31 73.017 30.224 73.718 29.206C73.233 30.318 72.659 31.335 71.993 32.352C70.914 33.998 68.47 35.954 67.998 37.891C67.644 39.348 69.196 40.005 68.38 41.649C67.559 43.308 65.82 44.333 65.36 46.284C64.871 48.358 65.036 50.796 64.684 52.943C63.297 61.381 59.916 69.388 57.775 77.639C56.946 80.831 56.195 84.045 55.609 87.291C55.054 90.363 55.124 93.052 54.184 96.099C53.388 98.663 52.738 101.269 51.901 103.825C49.637 110.743 47.485 117.638 44.734 124.385C44.3 125.449 43.042 127.299 43.019 128.491C43.001 129.435 43.703 129.951 43.673 131.366C43.547 137.397 40.578 143.624 41.235 149.666C41.878 148.364 42.116 146.313 42.481 144.816C43.232 141.712 43.908 138.599 44.654 135.49C45.495 131.994 46.683 128.611 47.692 125.163C49.679 118.368 51.32 111.446 53.476 104.689C55.788 97.449 58.846 90.328 60.525 82.954C61.213 79.929 61.519 76.973 61.69 73.925C61.869 70.704 63.55 67.443 64.472 64.387C64.996 62.654 65.208 60.928 65.704 59.19C66.416 56.693 67.106 54.187 67.882 51.709C68.682 49.154 69.955 46.652 70.591 44.065C71.059 42.169 71.254 40.759 72.286 39.016C73.724 36.589 75.278 34.224 76.933 31.939C78.26 30.107 78.966 28.879 78.246 26.523C77.651 24.573 76.441 22.946 76.03 21.062C75.645 19.312 75.883 17.583 74.892 16.038C73.795 14.332 71.572 12.271 69.702 11.525C67.82 10.774 66.541 12.566 65.367 13.941C66.615 13.335 71.636 11.928 71.608 14.711C71.582 17.487 63.955 15.928 62.527 15.217C61.106 14.512 60.007 13.629 58.824 12.615C57.95 11.866 56.369 11.336 56.124 10.1C55.441 10.671 55.198 11.515 54.733 12.258C53.432 14.341 51.875 15.043 49.674 15.935C48.905 16.247 48.161 16.456 47.355 16.622C46.234 16.85 44.792 16.801 43.784 17.315C45.748 18.024 48.87 18.648 49.919 20.671C49.562 20.035 48.004 19.253 48.269 18.248C48.501 17.369 49.95 17.293 50.66 17.356C50.908 17.377 53.336 18.447 52.757 18.683C54.448 17.997 54.658 16.152 56.789 15.694C58.518 15.322 59.506 15.754 60.729 16.552C60.727 16.551 61.156 17.135 61.271 17.229C61.435 17.363 61.834 17.223 62.049 17.37C62.402 17.609 62.955 17.943 63.112 18.329C64.257 21.158 61.241 24.166 58.767 25.016C56.391 25.83 56.242 24.132 54.824 22.953C54.141 24.178 55.033 26.903 55.078 28.345C55.152 30.934 55.009 32.334 53.781 34.723C53.305 35.647 51.697 37.311 51.477 38.164C50.996 40.022 54.064 42.415 53.984 44.722C54.694 43.004 54.97 41.425 55.133 39.611C55.252 38.24 55.029 36.848 55.083 35.465C55.071 35.831 55.979 36.861 56.147 37.281C56.414 37.94 56.569 38.626 56.623 39.334C56.738 40.843 56.279 42.228 55.942 43.67C55.635 44.97 55.558 46.056 54.95 47.267C54.191 48.782 53.247 50.174 52.667 51.779C51.965 53.72 51.411 55.89 50.873 57.925C50.387 59.771 50.304 61.352 50.275 63.237C50.258 64.389 49.925 65.711 50.295 66.801C52.255 59.143 54.894 51.737 57.073 44.132C57.608 42.257 58.011 40.278 58.469 38.382C58.956 36.346 58.237 34.235 58.198 32.169C58.168 30.58 57.393 26.824 58.669 25.591C59.335 24.949 60.645 24.622 61.423 24.053C62.926 22.959 63.289 21.661 64.019 20.095C64.323 19.441 64.484 18.027 64.85 17.529C66.646 15.078 74.57 16.995 72.978 20.58C71.538 23.825 67.967 24.888 66.069 27.678C65.169 29.006 65.673 30.503 65.691 32.066C65.721 34.358 65.907 36.674 65.474 38.94Z" fill="#DCC06D"/>
<path d="M56.603 7.52399C56.241 9.48599 55.759 11.686 54.447 13.262C53.479 14.429 51.879 15.124 50.705 15.991C53.377 14.579 55.077 12.72 57.218 10.737C57.517 11.314 58.077 11.824 58.643 12.255C58.711 11.398 58.045 11.041 57.683 10.327C57.308 9.585 57.314 8.095 56.606 7.703" fill="#CCB25C"/>
<path d="M66.698 11.245C65.864 11.556 64.592 13.555 65.184 14.503C65.508 15.023 66.586 15.128 67.128 15.282C66.081 14.443 65.494 13.023 66.528 11.784" fill="#CCB25C"/>
<path d="M54.852 34.566C54.961 34.284 55.017 33.966 55.119 33.678C54.672 34.091 53.677 34.906 53.477 35.49C53.137 36.469 53.881 37.218 54.173 38.207C54.777 40.266 54.239 42.166 54.513 44.176C55.21 40.92 56.695 37.113 54.662 34.034" fill="#CCB25C"/>
<path d="M76.408 22.306C76.08 23.458 75.305 24.453 74.888 25.543C75.911 24.97 77.016 26.026 77.585 26.749C78.627 28.066 78.193 28.679 77.282 29.968C76.624 30.9 75.567 31.632 74.976 32.523C73.976 34.029 73.113 36.358 72.618 38.063C73.812 35.657 75.715 33.358 77.133 31.042C77.668 30.168 78.599 29.117 78.817 28.116C79.312 25.86 76.471 24.656 76.414 22.484" fill="#CCB25C"/>
<path d="M41.524 182.032C41.495 183.803 41.708 185.682 42.172 187.391C42.525 188.693 42.55 190.284 43.109 191.485C43.473 192.271 46.065 194.218 44.681 194.693C44.665 196.289 44.568 197.394 42.616 197.201C43.623 197.706 45.01 198.225 46.137 198.222C46.415 200.689 45.562 203.297 44.386 205.447C43.424 207.209 42.337 207.387 40.284 207.672C40.395 207.89 40.37 208.129 40.449 208.318C38.792 208.532 38.03 207.975 36.72 207.385C35.457 206.819 34.248 206.969 32.921 206.859C29.485 206.572 26.108 206.179 22.803 207.605C24.392 207.806 26.633 206.806 28.29 206.582C30.017 206.351 31.847 206.637 33.49 207.235C35.109 207.823 37.142 210.265 38.718 210.372C39.627 210.433 39.827 209.518 40.494 209.365C41.282 209.186 41.996 209.742 42.832 209.551C44.477 209.172 45.34 206.219 45.891 204.788C46.717 202.638 47.305 200.341 47.546 198.015C47.708 196.426 48.312 192.924 47.055 191.609C46.894 191.44 46.28 191.563 46.053 191.38C45.672 191.068 45.451 190.695 45.1 190.354C44.543 189.818 44.043 189.282 43.675 188.61C42.549 186.563 42.621 184.297 41.885 182.207" fill="#CCB25C"/>
<path d="M13.84 200.503C12.68 201.929 12.053 203.97 11.652 205.728C15.64 199.498 22.544 195.577 26.841 189.545C23.996 192.119 20.985 194.564 17.903 196.848C16.3 198.035 13.914 200.603 12.424 201.248" fill="#CCB25C"/>
<path d="M45.023 210.769C46.059 210.048 47.001 209.254 47.76 208.498C49.64 206.619 48.629 203.947 48.538 201.666C48.512 200.953 49.596 192.756 46.856 194.98C46.172 195.535 45.915 196.372 45.561 197.148C45.066 198.233 44.665 199.324 43.854 200.22C42.541 201.674 40.964 203.044 39.28 204.047C37.198 205.285 35.951 204.388 33.769 204.862C31.557 205.343 29.445 205.787 27.159 205.936C26.474 205.98 25.544 205.984 24.888 206.164C24.133 206.372 23.618 206.79 22.934 207.145C20.858 208.222 18.322 208.686 15.975 208.464C12.381 208.125 10.455 204.559 9.718 201.399C9.349 199.811 9.125 198.305 8.649 196.75C8.463 196.139 8.395 194.988 7.871 194.544C7.794 194.48 6.354 193.771 6.576 194.433C7.126 196.089 6.91099 198.141 6.86199 199.937C6.81699 201.656 5.838 203.675 6.382 205.311C7.167 207.673 8.01599 210.618 9.81599 212.425C11.172 213.787 12.229 213.322 13.811 213.636C15.185 213.908 16.417 214.42 17.906 214.527C21.804 214.808 25.477 212.642 29.368 212.905C32.665 213.128 35.949 213.701 39.266 213.283C41.144 213.044 43.224 212.016 45.023 210.769Z" fill="#E1E2E3" stroke="#967348" stroke-width="0.3218"/>
<path d="M37.796 206.717C33.097 202.689 28.182 201.463 23.237 205.361C21.775 206.516 18.986 207.547 18.008 208.99C17.056 210.389 16.458 213.468 16.607 215.105C16.84 217.66 19.278 219.957 20.892 221.87C22.351 223.596 24.275 226.125 26.526 226.643C32.051 227.918 36.76 224.024 39.203 219.658C40.461 217.409 41.664 216.063 41.806 213.497C41.963 210.595 40.162 208.747 37.796 206.717Z" fill="#F3D48C" stroke="#967348" stroke-width="0.3218"/>
<path d="M32.29 225.781C24.775 229.534 15.093 214.433 20.657 212.66C20.322 214.214 22.491 217.489 24.114 215.653C25.29 214.324 22.395 212.591 21.704 211.859C21.99 211.609 22.504 211.423 22.909 211.371C23.874 214.269 28.246 212.594 24.95 210.272C25.819 209.691 29.356 211.84 30.728 212.083C32.801 212.445 35.46 212.963 36.674 210.807C36.13 210.315 35.498 209.59 35.112 208.918C37.306 208.031 38.891 209.427 40.624 211.096C42.514 212.917 42.068 214.284 40.939 216.649C39.27 220.142 35.783 224.038 32.29 225.781Z" fill="#DCC06D"/>
<path d="M26.799 225.027C28.959 226.121 33.781 223.345 32.72 220.815C33.814 219.977 34.81 218.897 35.857 218.081C35.94 218.357 36.087 218.6 36.167 218.839C39.487 218.124 36.1 215.23 34.952 214.314C35.067 213.581 35.218 212.91 35.427 212.194C39.267 212.146 36.756 208.818 35.574 207.629C35.032 207.839 34.556 207.703 33.976 207.823C34.019 207.687 34.478 206.738 34.55 206.61C36.77 208.195 40.712 210.185 40.421 213.491C40.048 217.72 37.081 221.651 33.824 223.955C29.574 226.962 24.702 227.621 22.266 221.864C24.953 220.953 25.186 226.311 28.406 224.491" fill="#CCB25C"/>
<path d="M47.396 212.918C48.59 215.49 47.532 220.101 47.371 222.878C47.148 226.644 45.276 229.321 42.933 232.159C40.194 235.475 37.944 240.494 36.338 244.536C31.793 255.976 31.159 269.948 31.123 282.14C31.104 288.536 30.566 295.099 29.893 301.417C29.227 307.663 27.679 313.488 26.542 319.646C23.829 334.367 24.918 349.307 24.492 364.177C24.364 368.646 26.285 374.311 25.067 378.577C24.591 380.237 23.496 381.01 22.159 382.015C20.751 383.072 19.572 385.002 18.094 385.81C16.381 386.749 14.069 386.066 12.134 386.269C9.95 386.497 8.24601 387.681 6.48801 388.944C4.18701 390.595 2.54399 391.317 1.73199 387.957C0.947995 384.716 0.481993 380.673 1.15199 377.419C2.09399 372.846 3.973 368.538 5.424 364.118C8.186 355.703 8.68901 346.079 9.79601 337.286C10.628 330.679 9.66 323.711 10.114 317.018C10.43 312.397 11.037 307.786 11.285 303.106C11.818 293.009 13.036 282.998 12.605 272.961C11.933 257.252 8.514 242.273 5.78 226.885C5.328 224.33 5.90401 223.033 6.47301 220.694C6.88301 219.012 6.763 219.316 6.577 217.557C6.387 215.767 5.355 215.774 6.89 213.993C10.358 209.969 17.066 213.469 20.993 214.467C25.081 215.507 30.362 215.87 34.6 215.653C35.861 215.587 47.006 212.082 47.396 212.918Z" fill="#F3D48C" stroke="#967348" stroke-width="0.3218"/>
<path d="M11.166 239.417C10.065 236.751 4.129 224.804 7.295 222.183C8.786 220.949 12.859 223.855 13.917 225.191C11.985 222.751 9.18 220.467 8.506 217.278C7.49 212.478 11.106 214.535 14.117 215.22C18.274 216.166 22.989 216.514 26.811 218.758C23.871 218.461 20.742 217.046 17.723 217.002C17.823 218.88 21.713 220.731 23.166 221.562C25.812 223.072 28.489 223.678 31.475 224.196C33.788 224.597 37.569 224.557 39.29 226.322C37.864 228.525 35.28 229.762 32.738 229.93C31.315 230.025 26.149 229.856 25.411 228.584C27.323 231.871 27.538 237.381 22.976 232.473C22.675 233.823 23.654 234.069 23.703 235.152C23.788 237.021 23.538 236.227 22.771 238.088C21.263 241.735 20.647 247.454 21.007 251.047C20.257 247.271 20.193 243.711 20.027 240.227C19.873 236.986 17.169 232.714 14.385 231.254C14.543 231.611 14.747 232.004 14.929 232.371C13.433 230.247 11.414 227.794 9.03799 226.645C9.49599 228.609 18.096 237.564 15.409 238.465C15.985 240.333 15.368 243.334 15.573 245.182C15.902 248.172 17.171 251.436 17.734 254.479C19.795 265.55 18.02 277.201 18.54 288.466C18.83 294.771 18.738 301.406 18.346 307.784C17.819 316.387 15.686 325.654 16.589 334.211C17.604 343.838 15.132 352.087 13.095 361.325C12.042 366.101 5.829 377.499 11.308 381.697C12.082 380.768 13.106 380.323 14.019 380.934C14.422 379.248 14.785 377.231 15.03 375.454C15.212 377.975 16.124 379.048 14.646 381.066C13.74 382.3 10.188 385.701 8.933 385.979C9.329 385.891 8.52299 372.789 4.37399 375.227C3.57599 370.069 6.42799 362.749 7.91499 357.768C9.17899 353.526 11.391 349.433 11.705 345.019C12.424 334.875 12.554 324.912 13.271 314.797C14.13 302.645 14.589 290.767 14.7 278.501C14.771 270.924 14.659 263.155 14.081 255.612C13.697 250.594 13.089 244.079 11.166 239.417Z" fill="#DCC06D"/>
<path d="M28.17 247.423C28.264 246.83 28.524 246.556 28.944 246.599C29.119 252.063 27.499 259.264 25.163 264.131C25.264 261.081 25.385 258.269 25.886 255.246C26.204 253.334 27.482 249.375 27.036 247.469C26.516 245.25 23.646 244.832 24.35 242.052C25.12 243.206 26.89 246.05 28.824 245.953C30.428 245.87 30.547 242.922 32.864 244.929C33.06 244.443 33.51 243.823 33.6 243.267C32.376 247.026 32.094 251.205 30.601 254.855C30.748 252.079 32.512 248.096 30.686 245.656" fill="#DCC06D"/>
<path d="M9.048 219.644C8.306 219.031 6.80199 216.495 7.12199 215.461C7.79799 213.267 8.376 214.936 9.711 214.374C6.013 215.93 14.274 220.947 15.363 222.257C14.356 221.436 12.351 221.167 12.061 222.895C11.765 224.666 14.528 226.212 15.702 227.005C17.53 228.237 18.405 229.442 19.955 230.8C16.668 227.923 13.251 225.213 9.547 222.997C9.664 223.197 9.722 223.413 9.716 223.644C9.04 222.933 8.161 222.875 7.325 222.643C7.171 223.173 6.898 223.714 6.877 224.263C7.12 222.599 7.649 220.614 9.048 219.644Z" fill="#CCB25C"/>
<path d="M14.039 318.121C13.939 325.034 12.943 331.883 12.458 338.764C12.044 344.661 10.138 350.224 9.459 355.881C10.474 347.314 11.734 338.894 11.801 330.253C11.831 326.147 10.833 318.482 13.256 315.252C13.851 316.836 13.742 318.576 13.666 320.263" fill="#CCB25C"/>
<path d="M12.115 382.475C9.95201 382.656 8.436 384.335 7.146 385.643C7.037 383.979 7.799 380.646 6.775 379.19C5.017 376.683 4.44101 379.398 4.55201 381.314C1.15401 379.325 3.67701 372.806 5.78501 370.714C7.26701 374.802 7.178 380.586 11.034 383.539" fill="#CCB25C"/>
<path d="M21.487 372.892C22.28 375.552 24.739 380.68 20.043 379.63C21.018 377.311 21.498 375.365 20.414 372.883" fill="#CCB25C"/>
<path d="M12.307 252.974C12.181 251.37 11.977 249.799 11.636 248.291C11.036 245.629 9.48201 243.222 9.11301 240.535C8.87601 238.789 9.154 236.889 8.938 235.089C8.757 233.576 8.467 226.275 6.491 225.803C6.925 225.905 7.835 226.461 8.189 226.788C4.73 231.638 11.399 237.055 12.649 241.357C14.453 247.577 13.717 254.168 14.385 260.53C15.464 270.823 14.719 281.276 14.602 291.56C14.677 283.72 13.819 275.917 12.907 268.14C12.337 263.291 12.702 257.965 12.307 252.974Z" fill="#CCB25C"/>
</svg>
