<svg width="145" height="97" viewBox="0 0 145 97" fill="none" xmlns="http://www.w3.org/2000/svg">
<path d="M44.425 67.556C45.87 65.035 49.298 61.938 49.776 59.316C50.412 55.829 46.103 54.431 43.699 52.363C41.15 50.171 40.336 48.189 36.872 47.701C33.565 47.235 29.374 46.628 26.049 47.069C23.156 47.453 19.361 47.973 17.682 50.287C15.685 53.041 15.245 59.365 17.413 61.819C19.787 64.503 23.653 65.583 26.256 67.996C30.134 71.592 32.003 75.574 31.163 80.578C30.376 85.266 30.89 87.861 35.036 90.435C37.425 91.918 39.966 94.498 42.547 95.362C45.461 96.338 52.313 95.992 55.354 95.364C61.01 94.193 63.384 87.481 69.252 87.032C75.221 86.576 78.838 92.079 84.029 94.02C90.694 96.512 99.168 98.37 105.492 93.861C110.896 90.009 110.395 84.792 110.943 78.948C111.534 72.669 114.228 67.497 118.621 63.024C118.659 63.306 118.639 63.584 118.665 63.817C121.433 61.81 121.977 58.04 121.832 54.569C121.627 49.616 116.947 50.305 113.429 51.238C109.389 52.308 108.084 51.367 104.374 50.928C101.149 50.547 99.023 52.653 96.791 54.675C93.917 57.275 89.233 60.126 90.775 64.259C98.561 66.039 103.294 79.404 97.974 85.635C96.29 87.608 91.479 88.492 89.026 87.78C86.164 86.95 85.258 84.309 82.963 82.933C80.657 81.551 76.309 81.67 73.657 81.407C64.935 80.541 57.818 87.012 49.256 85.506C43.627 84.515 43.188 82.636 41.92 77.5C40.943 73.553 42.502 70.909 44.425 67.556Z" fill="#F9CE82" stroke="#967348" stroke-width="0.3218"/>
<path d="M79.278 82.201C74.351 80.493 79.866 87.468 80.707 88.262C83.224 90.64 86.358 93.331 89.97 93.213C89.761 92.825 89.671 92.304 89.443 91.892C95.517 97.801 105.352 91.536 107.607 85.081C108.729 81.869 107.777 80.459 107.082 77.562C106.358 74.544 107.18 70.7 108.887 68.277C108.584 72.255 110.681 70.759 112.186 68.354C113.831 65.729 115.279 63.292 117.523 61.116C120.025 58.689 120.044 58.283 116.735 56.118C114.895 54.912 110.18 54.121 110.702 51.563C109.649 52.438 108.193 52.717 106.936 52.827C107.091 52.624 107.249 52.421 107.407 52.218C105.675 52.518 103.735 55.427 101.808 56.385C100.168 57.198 98.432 57.85 96.8 58.689C94.439 59.904 90.698 62.207 95.674 62.954C95.706 63.278 95.734 63.588 95.78 63.912C101.759 62.736 98.468 76.032 101.011 77.883C101.188 77.265 101.904 76.564 102.074 76.146C105.696 83.18 100.792 91.673 93.037 90.802C94.349 90.466 95.573 89.767 96.709 89.07C92.478 89.151 89.346 89.507 85.35 86.851C83.682 85.742 80.193 78.958 78.204 82.203" fill="#DCC06D"/>
<path d="M47.523 88.29C52.418 89.947 58.637 86.9929 62.871 84.4719C62.468 84.9059 62.248 85.619 61.862 86.074C62.711 85.992 63.731 86.261 64.589 86.19C60.902 94.78 47.535 97.93 40.77 91.823C42.391 92.308 44.358 92.4539 45.904 91.9549C41.264 90.1519 37.937 84.073 36.384 79.37C35.381 80.004 34.935 81.229 34.491 82.475C33.651 79.593 35.613 74.416 34.149 71.832C33.373 70.461 32.664 71.29 31.7 70.398C30.896 69.654 30.566 68.728 29.876 67.824C27.546 64.778 24.786 62.549 21.759 60.38C18.393 57.966 18.862 54.8129 21.34 51.4419C23.758 52.7239 27.329 53.2659 29.999 52.4209C31.434 51.9659 32.749 50.6719 34.229 50.4469C37.369 49.9699 41.702 53.6679 44.142 55.3819C48.094 58.1549 46.842 59.4669 44.581 63.3469C40.107 71.0209 36.27 84.481 47.523 88.29Z" fill="#DCC06D"/>
<path d="M30.206 67.162C28.506 64.179 28.181 48.71 21.042 51.443C18.384 52.461 18.123 55.7269 18.684 58.1359C19.456 61.4479 21.183 61.63 23.335 63.492C21.035 61.501 20.384 57.6259 24.519 59.2219C27.169 60.2459 28.894 64.86 30.206 67.162Z" fill="#CCB25C"/>
<path d="M106.099 65.3949C106.495 60.3279 115.166 58.5709 113.939 64.9379C115.817 62.6599 120.318 59.8269 119.256 56.0979C117.997 51.6779 111.744 53.039 109.314 55.087C106.412 57.536 104.104 63.3009 105.435 67.1099C106.903 71.3139 110.414 70.2589 111.79 66.9769C108.648 68.0529 107.259 65.7449 107.171 62.8909" fill="#CCB25C"/>
<path d="M80.351 88.638C82.761 90.19 86.131 91.34 88.903 92.062C86.705 90.594 82.206 88.301 82.415 85.091C81.767 86.155 81.001 87.729 80.351 88.997" fill="#CCB25C"/>
<path d="M51.027 92.929C54.458 94.26 60.16 91.53 61.621 88.181C60.834 87.422 60.011 86.86 58.956 86.907C58.251 90.099 53.68 92.404 50.67 92.572" fill="#CCB25C"/>
<path d="M27.196 59.135C27.395 59.304 27.586 59.484 27.766 59.677C31.301 63.431 29.641 69.802 35.021 71.436C37.978 72.334 40.933 72.811 43.73 74.18C47.21 75.882 49.871 78.555 53.001 80.772C55.349 82.435 66.378 91.4419 68.733 87.313C69.776 87.547 71.121 87.22 72.485 87.34C74.765 87.539 75.659 88.381 78.04 87.233C80.857 85.874 83.159 83.278 85.432 81.195C90.061 76.958 94.9 76.317 100.801 74.743C103.22 74.097 105.472 73.674 107.345 71.9809C111.041 68.6379 109.466 63.025 111.638 58.715C114.138 59.711 117.909 57.849 120.487 57.647C123.212 57.433 125.933 57.89 127.439 54.993C129.074 51.844 127.775 45.793 131.893 44.268C131.813 44.219 131.334 43.753 131.26 43.704C134.472 45.059 138.9 40.796 140.849 38.778C144.117 35.4 145.372 32.275 144.571 27.553C143.023 18.438 138.165 9.52295 129.964 4.66695C120.26 -1.07905 107.1 -0.826039 98.318 6.30596C91.802 11.597 93.674 20.256 88.679 26.328C86.847 28.556 85.917 29.541 87.165 32.121C88.308 34.484 90.652 37.648 92.427 39.609C96.529 44.136 100.068 46.154 98.353 52.914C97.205 57.443 95.504 61.926 92.939 65.852C90.469 69.631 86.875 71.99 84.022 75.393C81.559 78.332 79.129 78.206 75.51 77.535C74.309 77.311 72.769 75.421 72.509 78.275C71.34 78.405 70.24 78.735 69.049 78.633C69.075 78.245 68.89 77.703 68.931 77.324C68.983 76.837 63.908 78.77 63.577 78.762C61.344 78.714 60.561 77.019 59.222 75.45C55.485 71.07 50.771 67.773 46.834 63.6C43.361 59.917 41.636 55.495 41.56 50.37C41.465 43.963 46.242 45.163 48.807 40.651C50.156 38.274 49.387 35.078 50.204 32.568C51.087 29.853 53.163 27.295 54.023 24.622C55.176 21.037 55.398 17.599 53.449 14.171C48.413 5.31595 38.776 4.25497 29.686 3.17397C22.872 2.36197 19.023 3.11995 13.606 7.92995C9.165 11.874 4.43901 18.281 2.29401 23.823C1.10201 26.905 0.751997 30.009 1.588 33.302C1.908 34.564 2.416 36.605 3.215 37.569C5.323 40.117 12.213 43.254 15.228 40.827C14.499 41.543 13.935 42.038 12.909 42.275C12.226 42.432 14.32 52.468 16.776 52.868C17.91 53.053 18.947 51.581 19.654 51.844C20.754 52.254 20.507 54.199 21.343 55.122C22.973 56.923 25.385 57.587 27.196 59.135Z" fill="#F9CE82" stroke="#967348" stroke-width="0.3218"/>
<path d="M72.148 87.9209C72.978 86.1739 73.489 78.815 71.384 77.828C68.167 76.319 69.668 86.433 69.7 87.829C70.289 88.196 71.762 88.7339 72.148 87.9209Z" fill="#E1E2E3" stroke="#967348" stroke-width="0.2358"/>
<path d="M48.25 38.635C49.474 41.227 44.35 43.305 42.608 44.804C40.28 46.809 39.852 48.276 40.106 51.509C40.642 58.329 44.965 64.791 49.278 69.154C44.647 65.418 41.361 61.019 39.014 55.582C39.163 55.71 39.272 55.869 39.338 56.053C38.85 53.365 38.532 51.037 39.176 48.352C35.385 47.274 45.444 41.374 44.448 38.609C45.164 38.378 46.1 38.111 46.819 37.955C47.156 38.393 47.7 38.888 47.892 39.351" fill="#DCC06D"/>
<path d="M94.739 37.563C92.487 40.023 95.927 41.519 97.233 43.276C98.802 45.392 99.207 47.127 99.386 49.721C99.768 55.164 97.244 60.011 95.419 64.996C98.731 58.717 100.742 54.329 100.521 47.279C100.782 47.132 101.035 46.983 101.22 46.868C100.101 43.707 97.384 39.777 94.38 37.919" fill="#DCC06D"/>
<path d="M18.518 41.557C17.213 41.061 16.756 39.375 15.352 38.645C14.192 38.043 13.291 38.209 12.361 37.169C11.293 35.975 11.559 34.019 10.364 32.826C8.50299 30.966 5.64399 31.212 4.96499 28.265C3.21399 20.663 14.423 11.791 19.972 9.08997C17.153 11.656 10.569 17.084 11.122 21.442C11.245 21.144 11.971 20.4 12.145 19.81C12.281 20.486 12.684 20.751 12.948 21.363C13.167 20.894 13.729 20.463 13.915 20.045C15.301 21.218 17.985 27.615 21.053 25.348C21.851 24.758 21.759 23.078 21.474 22.313C21.922 22.776 21.943 22.891 22.126 23.457C23.815 24.903 22.377 29.904 23.848 32.5C25.831 36 27.987 35.763 31.701 36.186C29.983 38.169 27.711 39.749 26.437 42.081C25.153 41.865 23.694 43.996 23.561 45.511C23.379 47.579 25.139 49.161 26.322 50.732C24.955 51.161 24.943 51.192 25.409 52.475C23.998 50.5 21.699 49.409 20.113 47.643C19.3 46.738 18.701 46.361 18.363 45.097C18.253 44.685 18.697 41.625 18.518 41.557Z" fill="#DCC06D"/>
<path d="M129.069 42.569C127.587 41.148 126.945 37.769 128.808 36.179C129.535 35.561 130.704 35.805 131.285 35.687C134.273 35.08 136.527 34.03 138.409 31.482C144.197 23.644 133.561 9.55796 127.299 6.12396C129.04 8.76396 132.298 10.327 133.655 13.499C134.574 15.655 136.199 20.961 134.52 22.891C134.407 22.414 134.108 21.949 133.993 21.472C132.969 22.427 132.78 24.429 131.912 25.776C131.954 25.902 131.258 25.307 131.266 25.312C131.316 25.039 131.519 25.035 131.535 24.744C130.639 24.834 128.931 26.378 128.099 26.826C126.152 27.872 124.354 28.05 122.733 30.053C124.471 32.096 124.959 34.141 124.414 36.74C124.455 36.696 124.706 36.171 124.779 36.078C125.321 36.989 124.792 37.993 123.759 38.732C127.743 43.108 116.068 51.035 120.414 55.061C120.239 51.106 123.477 44.486 127.498 43.215C127.375 43.039 127.315 42.844 127.32 42.63C127.92 42.897 128.131 42.587 128.745 43.159C128.075 42.114 127.904 40.865 128.353 39.707" fill="#DCC06D"/>
<path d="M119.318 10.465C118.209 10.75 116.74 10.42 115.525 10.722C114.139 11.066 112.614 11.836 111.297 12.416C108.362 13.712 105.56 15.395 103.319 17.717C100.58 20.557 97.775 26.339 99.01 30.411C99.687 32.64 102.152 33.683 104.711 34.288C104.054 32.6 102.422 31.358 101.674 29.676C102.854 29.283 101.682 22.872 102.631 20.801C105.721 14.058 113.013 12.081 119.318 10.465Z" fill="#DCC06D"/>
<path d="M48.25 24.69C46.022 26.217 44.427 25.372 43.375 23.135C42.317 20.881 43.983 18.171 42.688 15.973C40.28 11.891 33.757 11.079 29.738 9.39297C32.076 10.374 35.964 9.29396 38.692 10.305C41.947 11.511 44.761 14.278 45.344 17.833C41.876 18.972 46.604 26.663 47.91 23.364C47.792 24.169 47.929 25.049 47.892 25.761" fill="#DCC06D"/>
<path d="M53.972 72.607C58.303 75.666 60.146 81.68 63.912 85.087C63.695 84.309 63.979 83.264 63.977 82.734C64.209 82.955 64.386 83.169 64.609 83.309C65.008 82.103 65.546 80.817 66.808 80.395C65.526 79.224 63.225 80.672 61.403 79.848C59.419 78.951 57.607 76.533 56.474 74.753" fill="#DCC06D"/>
<path d="M73.997 79.402C74.361 80.796 74.687 82.204 74.694 83.645C74.897 82.895 75.424 82.338 75.705 81.656C76.094 82.648 76.249 83.656 76.198 84.718C78.879 84.32 82.856 78.497 85.072 76.621C87.746 74.357 90.496 72.057 92.823 69.417C87.819 75.216 81.409 79.624 74.085 78.381C73.872 78.738 73.597 78.851 73.281 79.043" fill="#DCC06D"/>
<path d="M15.709 12.531C9.251 17.348 5.451 23.128 6.117 31.439C8.424 30.663 9.593 32.411 11.451 33.869C11.127 31.147 8.044 30.701 7.11 28.621C5.358 24.718 10.874 16.846 13.564 15.392" fill="#CCB25C"/>
<path d="M18.212 43.285C18.885 45.457 18.595 48.024 18.287 50.045C19.129 50.004 19.861 49.721 20.573 49.015C19.057 47.282 18.628 44.098 18.57 41.854" fill="#CCB25C"/>
</svg>
