<svg width="136" height="445" viewBox="0 0 136 445" fill="none" xmlns="http://www.w3.org/2000/svg">
<path d="M60.3 404.873C63.296 406.034 66.481 407.1 69.409 408.364C70.32 408.759 70.692 409.667 71.82 409.305C72.654 409.039 73.31 408.138 73.972 407.666C74.604 407.215 74.762 407.111 74.824 406.216C74.924 404.773 74.555 403.231 73.957 401.923C73.573 401.081 72.778 400.298 72.643 399.364C72.306 397.042 74.681 395.204 74.104 392.672C73.637 390.616 72.604 389.575 70.967 388.372C66.135 384.821 60.8 383.477 54.985 382.387C52.434 381.908 50.384 382.788 48.755 385.133C47.432 387.038 48.958 387.732 48.494 389.57C47.972 391.641 45.641 392.21 44.821 393.906C44.301 394.984 45.404 395.541 45.938 396.281C46.623 397.229 46.475 398.202 47.026 399.136C48.167 401.073 50.671 401.313 52.699 401.895C55.276 402.633 57.795 403.9 60.3 404.873Z" fill="#F3D48C" stroke="#967348" stroke-width="0.2607"/>
<path d="M71.077 398.063C71.032 398.216 71.008 398.374 71.01 398.532C71.021 399.593 71.772 399.937 70.617 400.474C68.46 401.474 66.543 398.138 64.866 397.639C63.234 397.153 62.842 398.745 61.278 397.643C60.077 396.796 60.065 394.578 58.989 393.952C57.837 393.279 55.039 395.224 54.129 394.377C53.42 393.718 54.561 390.946 55.178 390.592C56.434 389.875 58.66 391.016 59.891 391.539C61.596 392.265 64.222 393.01 65.624 394.176C66.335 393.562 67.245 393.293 68.05 392.844C66.971 392.378 64.995 392.405 64.135 391.678C63.255 390.935 63.535 390.033 61.964 389.432C60.838 388.998 59.528 388.882 58.446 388.459C57.554 388.108 56.72 387.318 55.716 387.229C53.66 387.045 50.846 387.986 50.019 389.737C49.305 391.25 49.069 392.923 48.18 394.378C47.868 394.89 47.295 395.276 47.306 395.86C47.313 396.187 47.976 396.461 48.095 396.753C48.327 397.331 48.072 397.299 48.083 397.851C48.099 398.698 47.631 399.245 48.409 399.978C49.129 400.658 50.356 400.681 51.298 400.82C52.377 400.978 53.283 401.308 54.321 401.624C55.934 402.11 57.334 402.944 58.825 403.678C60.496 404.498 62.538 405.116 64.343 405.676C66.305 406.283 68.236 406.844 70.177 407.522C71.672 408.043 72.76 407.691 73.764 406.309C74.573 405.2 73.66 404.013 73.235 402.901C72.718 401.548 72.322 400.096 72.338 398.65C72.364 396.338 74.725 394.969 72.32 393.04C74.577 394.849 71.573 396.345 71.077 398.063Z" fill="#DCC06D"/>
<path d="M66.796 388.628C68.523 389.37 75.18 391.697 72.62 394.938C72.544 393.648 71.442 393.033 70.276 392.768C70.738 389.245 65.143 393.353 63.968 392.991C63.338 392.798 62.296 391.563 61.681 391.177C60.892 390.68 60.005 390.293 59.129 389.974C57.467 389.369 55.284 388.31 53.472 388.472C51.87 388.615 51.644 389.478 51.051 390.839C50.656 391.738 50.168 392.685 49.673 393.536C49.276 394.22 48.68 395.4 47.828 395.614C47.432 395.714 45.516 394.923 45.868 394.642C48.238 392.739 51.249 388.17 48.949 385.251C49.585 384.876 50.833 383.997 51.602 383.956C52.222 383.924 52.49 384.26 53.183 384.375C55.053 384.689 55.794 384.443 57.536 385.261C60.516 386.659 63.758 387.322 66.796 388.628Z" fill="#CCB25C"/>
<path d="M49.313 401.966C47.536 403.153 45.481 403.741 43.395 404.237C41.75 404.628 39.719 405.758 38.001 405.175C36.356 404.618 35.365 402.386 35.693 400.835C35.97 399.522 38.26 397.666 39.523 397.136C40.683 396.649 41.97 396.447 43.091 395.871C44.049 395.379 44.588 394.459 45.469 393.976C47.224 393.012 49.199 395.141 50.978 395.256C52.252 395.338 53.723 395.189 54.951 394.973C56.065 394.777 56.983 394.955 56.545 396.167C56.236 397.024 55.052 398.782 54.278 399.281C53.698 399.655 52.947 399.62 52.303 399.917C51.213 400.421 50.296 401.309 49.313 401.966Z" fill="#F3D48C" stroke="#967348" stroke-width="0.2607"/>
<path d="M46.235 395.034C46.839 397.586 43.057 398.258 41.246 398.467C39.808 398.632 37.393 400.229 38.242 401.869C38.863 403.072 41.012 402.851 42.03 402.311C43.578 401.489 43.948 400.788 43.933 399.247C44.671 399.643 45.518 398.892 46.017 399.709C46.343 399.34 46.98 398.569 47.54 398.396C48.92 397.968 49.782 398.249 51.01 397.328C51.977 396.603 52.81 395.595 54.102 395.391C52.914 395.578 50.691 397.713 52.534 398.512C51.649 399.25 50.273 399.374 49.285 400.058C48.094 400.879 46.887 401.755 45.355 401.901C44.026 402.028 42.487 401.96 41.351 402.744C40.942 403.025 40.351 404.397 39.782 403.511C38.524 403.917 38.4 403.708 37.841 402.71C37.371 401.873 36.827 401.058 36.092 400.401C37.269 400.121 37.705 399.174 38.505 398.481C39.406 397.703 40.809 397.24 41.946 396.877C42.978 396.55 43.879 396.16 44.764 395.582C45.387 395.175 45.596 394.583 46.509 395.144" fill="#DCC06D"/>
<path d="M61.045 397.03C61.142 397.081 61.237 397.126 61.331 397.167C63.273 398.009 65.036 399.18 66.935 400.109C68.091 400.676 69.267 401.397 70.513 401.563C71.57 401.702 72.007 401.249 72.693 402.078C73.849 403.47 73.131 405.13 72.463 406.534C72.135 407.223 72.252 409.896 70.914 409.734C70.328 409.665 70.018 408.6 69.506 408.303C68.84 407.919 68.023 408.019 67.277 408.019C65.587 408.019 65.14 406.798 64.197 405.69C63.257 404.587 62.384 403.403 61.266 402.446C59.991 401.355 58.724 401.536 57.312 400.848C56.095 400.255 55.37 398.603 54.723 397.514C55.179 397.169 55.826 397.132 56.265 396.74C56.781 396.276 56.697 395.848 56.868 395.242C58.25 395.09 59.809 396.399 61.045 397.03Z" fill="#F3D48C" stroke="#967348" stroke-width="0.2607"/>
<path d="M66.942 406.803C68.047 407.568 69.22 408.238 70.328 409.022C70.993 409.494 70.877 409.561 71.392 408.839C72.276 407.59 72.556 405.207 72.39 403.761C72.292 405.247 71.204 406.378 71.437 407.92C71.415 406.47 70.62 404.642 69.331 403.765C68.753 403.371 68.206 403.477 67.533 403.366C66.938 403.266 66.712 402.944 66.072 403.169C65.566 402.081 64.643 400.007 63.292 399.704C62.52 399.53 61.709 399.784 60.896 399.586C59.915 399.344 59.151 398.671 58.573 397.93C58.464 397.792 57.346 396.443 57.346 396.479C57.315 397.335 56.541 397.509 56.09 398.037C56.776 398.666 56.99 399.565 57.65 400.134C58.808 401.131 60.603 401.488 61.96 402.234C64.062 403.386 65.063 405.505 66.942 406.803Z" fill="#DCC06D"/>
<path d="M50.627 403.901C48.944 404.229 45.583 400.624 47.496 399.588C47.934 399.353 49.041 399.437 49.576 399.279C50.404 399.034 51.163 398.636 51.889 398.224C53.141 397.51 53.911 396.911 55.251 397.867C55.869 398.305 57.751 400.242 57.743 400.872C55.159 401.107 53.276 403.383 50.627 403.901Z" fill="#F3D48C" stroke="#967348" stroke-width="0.2607"/>
<path d="M48.126 401.931C47.871 401.901 47.856 401.67 47.875 401.488C48.073 401.6 48.287 401.535 48.442 401.409C48.337 401.635 48.09 401.813 48.192 402.086" fill="#DCC06D"/>
<path d="M57.449 405.358C56.11 405.523 55.077 403.514 54.795 402.58C54.317 400.991 54.83 400.673 56.483 400.294C58.019 399.941 57.987 399.379 59.1 398.501C60.77 397.187 63.092 398.864 63.346 400.601C63.668 402.805 61.148 404.652 59.289 405.447C58.397 405.83 58.192 405.362 57.435 405.413" fill="#F3D48C"/>
<path d="M57.449 405.358C56.11 405.523 55.077 403.514 54.795 402.58C54.317 400.991 54.83 400.673 56.483 400.294C58.019 399.941 57.987 399.379 59.1 398.501C60.77 397.187 63.092 398.864 63.346 400.601C63.668 402.805 61.148 404.652 59.289 405.447C58.397 405.83 58.192 405.362 57.435 405.413" stroke="#967348" stroke-width="0.2607"/>
<path d="M56.388 404.045C56.133 404.067 56.063 403.847 56.038 403.664C56.257 403.732 56.451 403.624 56.573 403.47C56.523 403.71 56.324 403.936 56.487 404.182" fill="#DCC06D"/>
<path d="M70.224 407.772C70.636 409.44 70.648 411.357 69.525 412.5C68.59 413.453 67.881 414.367 66.431 414.452C66.686 415.161 65.989 415.296 65.473 415.149C64.739 414.938 63.889 413.965 63.124 413.35C62.247 412.649 61.724 412.322 61.102 411.321C60.255 409.96 59.465 408.537 58.604 407.187C59.456 406.512 60.02 405.618 60.602 404.74C61.04 404.084 61.314 403.067 61.878 402.526C62.395 402.028 63.306 402.148 64.075 402.186C66.546 402.303 68.567 403.824 69.564 405.911C69.817 406.441 70.055 407.085 70.224 407.772Z" fill="#F3D48C" stroke="#967348" stroke-width="0.1973"/>
<path d="M66.369 409.434C66.224 409.901 65.879 409.356 65.66 409.528C65.489 409.663 65.558 410.54 65.471 410.787C65.094 410.304 65.141 409.529 65.236 409.098C64.803 408.891 64.696 409.388 64.979 409.709C64.95 409.779 64.874 409.879 64.83 409.929C64.597 409.789 64.475 409.759 64.388 409.46C64.246 409.718 64.372 410.061 64.282 410.327C64.62 410.453 64.761 409.139 65.345 410.183C65.774 410.956 64.822 411.168 64.674 411.638C64.416 411.657 64.22 411.848 63.997 411.963C63.931 411.725 63.848 411.47 63.757 411.222C63.445 411.917 63.837 412.831 64.231 413.56C64.549 414.149 65.448 415.247 65.966 414.66C66.164 414.438 65.973 414.151 66.257 414.007C66.512 413.878 67.01 413.882 67.306 413.783C68.013 413.554 68.361 413.352 68.572 412.566C68.762 411.862 69.415 411.499 69.572 410.765C69.788 409.764 68.736 408.297 67.915 407.746C67.493 407.463 67.091 407.199 66.582 407.445C65.501 407.967 66.585 408.741 66.369 409.434Z" fill="#DCC06D"/>
<path d="M59.63 406.749C59.99 406.302 60.44 405.877 60.503 405.794C60.992 405.18 61.474 403.478 62.146 403.141C62.78 402.823 64.267 403.357 64.841 403.643C64.112 403.738 62.665 403.94 63.33 404.968C62.206 404.525 60.098 407.071 60.292 408.109C60.224 407.747 60.246 407.342 60.208 406.955C60.22 407.06 59.679 407.906 59.534 407.899C58.892 407.854 59.197 407.285 59.63 406.749Z" fill="#DCC06D"/>
<path d="M30.707 406.244C29.943 407.291 29.085 408.21 28.388 409.33C27.608 410.58 26.865 411.587 25.926 412.669C25.403 413.273 24.742 413.79 24.28 414.421C24.039 414.75 23.899 415.146 23.634 415.45C23.34 415.792 22.988 416.026 22.677 416.349C21.905 417.153 21.837 417.661 21.906 418.466C21.933 418.765 21.923 419.226 22.045 419.434C22.155 419.628 22.459 419.534 22.55 419.734C22.629 419.904 22.478 420.077 22.49 420.29C22.512 420.709 22.527 421.205 22.715 421.475C22.993 421.879 23.619 421.954 24.172 421.748C26.021 421.06 26.296 418.513 27.103 416.784C28.14 414.556 30.031 412.7 31.604 411.178C33.154 409.676 34.445 408.568 35.948 407.898C36.829 407.503 38.573 405.273 38.312 404.187C38.197 403.724 37.654 403.733 37.358 403.521C37.025 403.279 36.806 402.897 36.691 402.39C36.608 402.023 36.544 401.861 36.344 401.583C36.105 401.259 35.77 400.242 35.378 400.192C34.818 400.122 33.232 402.126 32.802 402.85C32.107 404.023 31.514 405.136 30.707 406.244Z" fill="#F3D48C" stroke="#967348" stroke-width="0.2607"/>
<path d="M22.21 418.188C22.255 419.128 23.123 418.174 22.897 417.454C23.069 417.857 23.044 418.802 22.71 419.43C22.374 419.345 22.016 418.694 22.18 418.099" fill="#DCC06D"/>
<path d="M36.741 407.27C37.392 406.569 38.255 404.807 37.934 404.242C37.775 403.961 37.407 403.953 37.186 403.729C37.075 403.617 36.923 403.521 36.825 403.397C36.689 403.231 36.673 402.92 36.512 402.787C36.537 403.022 37.002 403.442 36.64 403.817C36.696 403.987 36.777 404.121 36.622 404.368C36.424 404.683 36.178 404.647 36.057 404.551C35.757 405.245 36.528 404.874 36.51 405.405C36.499 405.71 36.242 406.241 36.155 406.571C36.055 406.938 36.042 407.37 35.852 407.732C35.503 407.54 34.983 407.753 34.501 407.98C34.004 408.214 33.78 408.248 34.143 407.424C33.883 407.238 31.785 410.001 31.365 410.518C30.312 411.809 29.282 413.144 28.195 414.372C27.887 414.722 27.624 414.977 27.36 415.406C27.169 415.718 26.925 416.259 26.581 416.411C26.44 416.474 26.336 416.314 26.282 416.345C26.077 416.461 25.907 416.836 25.743 417.068C25.55 417.342 25.275 417.8 25.12 417.579C25.132 417.536 25.146 417.48 25.151 417.459C24.908 417.791 24.667 418.219 24.364 418.365C24.378 418.557 24.486 418.672 24.629 418.716C24.696 418.446 24.895 418.306 25.069 418.112C25.24 418.331 25.111 418.552 24.894 418.846C24.732 419.066 24.731 418.82 24.609 419.192C24.541 419.404 24.596 419.669 24.635 419.8C24.842 419.463 25.013 419.05 25.315 418.856C25.421 418.993 25.28 419.465 25.142 419.734C24.873 420.255 24.583 420.365 24.241 420.593C24.439 420.691 24.869 420.769 24.253 421.152C23.614 421.549 23.35 420.823 23.491 420.162C23.658 419.383 24.075 418.555 24.373 417.765C24.312 417.721 24.164 417.707 24.13 417.63C24.104 417.571 24.134 417.334 24.101 417.301C23.975 417.18 23.674 417.233 23.475 417.158C23.487 417.621 23.626 417.821 23.514 418.371C23.42 418.839 23.242 419.329 23.137 419.798C23.028 420.286 22.732 420.994 22.938 421.31C23.255 421.791 24.312 421.73 25.071 420.951C25.803 420.203 26.203 418.691 26.541 417.779C27.527 415.109 29.285 413.508 31.062 411.601C31.785 410.825 32.485 410.068 33.249 409.444C33.87 408.935 34.443 408.397 35.066 408.125C35.615 407.882 36.172 407.883 36.741 407.27Z" fill="#DCC06D"/>
<path d="M34.01 401.886C33.728 401.487 34.468 400.962 34.777 400.823C34.669 401.128 34.129 402.15 33.976 401.87" fill="#DCC06D"/>
<path d="M39.166 401.239C38.387 403.046 37.361 404.866 36.115 406.463C35.674 407.029 35.114 407.677 34.594 408.184C33.94 408.818 33.38 409.598 32.689 410.205C32.115 410.71 31.416 411.094 30.884 411.655C30.456 412.104 30.299 412.662 29.963 413.144C29.615 413.642 29.247 413.658 28.809 414.042C28.402 414.401 28.266 415.095 27.859 415.463C27.458 415.827 27.128 415.785 26.8 416.314C26.451 416.877 26.201 417.534 25.846 418.109C25.384 418.86 24.936 419.683 25.627 420.231C26.582 420.991 28.43 421.169 28.63 422.643C28.773 422.52 28.907 422.432 28.987 422.222C29.6 422.386 29.609 422.324 30.253 421.849C30.633 421.569 31.371 421.297 31.622 420.93C31.919 420.501 31.872 419.939 32.152 419.481C32.489 418.93 33.079 418.566 33.42 418.012C33.591 417.733 33.602 417.325 33.863 417.076C34.137 416.816 34.354 416.898 34.634 416.572C34.988 416.164 35.236 415.493 35.547 415.031C37.36 412.341 39.715 409.53 42.682 408.144C43.519 407.753 44.809 407.673 45.523 406.996C46.019 406.525 46.795 404.562 46.597 404.005C46.503 403.74 46.118 403.699 45.881 403.526C45.549 403.281 45.36 402.869 45.156 402.519C44.656 401.659 44.085 401.042 43.251 400.494C42.844 400.224 42.338 400.122 41.931 399.855C41.584 399.63 41.507 399.451 41.019 399.655C40.674 399.798 40.132 400.275 39.81 400.503C39.46 400.751 39.356 400.796 39.166 401.239Z" fill="#F3D48C" stroke="#967348" stroke-width="0.2607"/>
<path d="M28.805 419.362C28.837 419.658 29.088 419.867 29.196 420.133C29.265 420.305 29.286 420.478 29.397 420.619C29.429 420.346 29.637 420.361 29.784 420.142C29.99 419.835 29.935 419.479 30.016 419.158C30.109 419.493 30.133 419.855 30.058 420.228C30.231 420.104 30.368 419.888 30.584 419.85C30.745 419.413 30.215 419.208 30.443 418.75C30.779 419.307 31.149 419.027 31.364 418.481C31.552 418.003 31.597 417.249 31.961 416.845C32.127 416.659 32.238 416.696 32.423 416.55C32.752 416.293 32.574 416.233 32.692 415.983C33.262 414.757 34.313 413.67 35.27 412.705C36.39 411.576 37.741 410.276 38.572 408.936C39.144 408.014 39.598 406.763 40.498 406.159C41.143 405.725 42.378 405.255 42.566 404.429C42.488 404.879 42.701 405.376 42.775 405.794C42.85 406.216 42.779 407.1 43.379 406.945C44.02 406.778 44.515 405.5 44.587 404.97C44.647 404.541 44.596 403.88 44.313 403.595C44.601 403.746 44.752 403.227 44.68 403.016C44.512 402.524 44.139 403.078 43.996 403.422C43.869 403.357 43.781 403.242 43.745 403.098C44.235 402.668 43.529 401.997 43.323 401.733C43.135 401.49 42.505 400.157 42.095 400.67C41.729 401.128 42.31 402.045 42.537 402.291C42.628 402.391 42.731 402.536 42.836 402.616C42.899 402.662 43.144 402.695 43.172 402.77C43.331 403.19 42.292 403.366 42.114 403.689C42.372 403.353 42.65 403.019 42.885 402.671C42.837 402.621 42.774 402.567 42.704 402.551C42.395 402.634 42.06 403.229 41.75 403.108C41.719 402.833 41.936 402.812 42.106 402.612C42.386 402.288 42.229 402.267 42.355 401.984C42.209 401.979 42.027 402.046 41.89 402.167C41.868 401.812 41.568 401.653 41.546 401.325C42.031 401.296 41.85 400.871 41.869 400.663C41.887 400.451 42.022 400.467 41.941 400.249C41.879 400.078 41.672 400.008 41.52 399.96C41.171 399.849 40.572 399.951 40.471 400.48C40.386 400.92 40.83 401.484 41.057 401.775C40.719 402.147 40.494 401.867 40.744 401.484C40.433 401.561 40.559 401.221 40.462 401.03C40.384 400.874 40.149 400.82 40.166 400.594C40.203 400.115 41.079 399.752 41.466 399.661C42.093 400.609 43.464 400.59 44.153 401.409C44.474 401.792 44.439 402.26 44.619 402.67C44.814 403.115 45.557 403.46 45.951 403.726C46.468 404.076 46.313 404.371 46.093 405.048C45.926 405.569 45.728 406.277 45.358 406.73C44.941 407.237 44.141 407.417 43.581 407.615C42.934 407.846 42.314 408.127 41.697 408.487C40.554 409.154 39.51 410.008 38.609 411.006C37.778 411.924 36.953 412.853 36.215 413.844C35.854 414.326 35.46 414.845 35.189 415.376C34.976 415.796 34.883 416.259 34.489 416.592C34.168 416.863 33.681 416.774 33.406 417.101C33.101 417.462 33.411 417.924 32.941 418.264C32.838 418.336 32.47 418.54 32.381 418.437C32.243 418.281 32.75 417.879 32.816 417.7C32.923 417.414 32.957 417.35 32.67 417.395C32.344 417.448 32.385 417.641 32.205 417.833C31.88 418.177 31.508 418.577 31.659 419.077C31.718 419.025 31.815 419.006 31.885 418.931C31.9 419.032 31.926 419.14 31.939 419.23C31.557 419.699 31.768 420.287 31.505 420.709C31.233 421.149 30.434 421.231 30.02 421.531C29.55 421.875 29.353 422.116 28.857 421.961C28.381 421.815 28.281 421.208 28.233 420.743C28.26 421.01 28.723 420.682 28.787 420.57C28.944 420.296 28.797 419.647 28.805 419.362Z" fill="#DCC06D"/>
<path d="M28.64 416.976C27.985 416.815 28.673 416.088 28.929 415.691C29.024 416.179 28.843 416.587 28.492 417.013" fill="#DCC06D"/>
<path d="M47.639 399.298C47.313 399.304 47.239 399.715 47.059 399.855C46.55 400.251 46.115 400.094 45.577 400.47C45.041 400.847 44.16 401.601 43.898 402.206C43.741 402.568 43.741 403.034 43.606 403.417C43.395 404.017 43.193 404.778 42.831 405.331C42.442 405.926 41.818 406.488 41.374 407.067C40.274 408.504 39.275 410.002 38.134 411.401C37.024 412.761 36.335 414.437 34.927 415.623C34.258 416.186 33.51 416.39 32.838 416.911C32.018 417.549 31.24 418.329 30.79 419.244C30.561 419.706 30.189 420.525 30.264 420.973C30.364 421.577 31.551 421.84 31.984 422.158C32.829 422.777 34.468 425.261 35.602 423.196C35.658 423.362 35.818 423.39 35.918 423.509C36.444 423.175 37.146 422.173 37.393 421.713C37.566 421.4 37.811 421.059 37.959 420.807C38.135 420.501 38.106 420.138 38.238 419.808C38.539 419.053 39.232 418.534 39.788 417.969C41.149 416.587 42.4 415.024 43.64 413.541C44.761 412.199 45.994 411.071 47.201 409.835C47.797 409.227 48.247 408.823 49.007 408.423C49.723 408.047 50.494 407.735 51.099 407.152C51.618 406.65 52.26 405.81 52.495 405.176C52.638 404.79 52.955 403.655 52.773 403.349C52.711 403.245 52.246 403.172 52.12 403.097C51.879 402.954 51.71 402.793 51.493 402.602C51.131 402.281 50.759 401.851 50.388 401.583C49.876 401.218 49.221 401.035 48.71 400.661C48.33 400.383 48.152 399.289 47.639 399.298Z" fill="#F3D48C" stroke="#967348" stroke-width="0.2607"/>
<path d="M32.303 420.78C32.7 420.877 33.378 421.087 33.497 421.508C33.25 421.412 32.563 421.123 32.843 421.671C32.991 421.958 33.256 422.226 33.455 422.473C33.583 422.629 33.917 423.174 34.205 423.126C34.538 423.074 34.6 422.166 34.594 421.919C34.585 421.434 34.34 420.745 33.827 420.627C34.272 420.286 35.061 421.1 35.274 421.371C35.335 421.174 35.333 420.955 35.412 420.761C35.538 420.449 35.825 420.238 36.004 419.959C36.178 419.688 36.112 419.606 36.077 419.361C36.032 419.054 36.139 418.773 36.277 418.461C36.68 417.553 37.479 417.067 38.128 416.347C38.726 415.684 39.344 415.029 39.946 414.361C40.479 413.77 41.023 413.18 41.547 412.579C42.662 411.301 43.546 409.869 44.708 408.614C45.269 408.012 45.835 407.422 46.411 406.832C46.76 406.478 47.162 405.973 47.603 405.727C47.946 405.538 48.17 405.723 48.491 405.776C49.12 405.881 49.753 405.858 50.421 405.633C50.223 405.422 49.87 405.34 49.622 405.177C49.442 405.058 49.281 404.908 49.089 404.813C49.555 404.826 49.934 405.314 50.45 405.154C50.087 404.803 50.037 404.555 49.9 404.074C49.679 403.297 49.04 402.796 48.452 402.319C48.436 402.347 48.406 402.388 48.389 402.417C48.188 402.338 48 401.847 47.912 401.665C47.809 401.452 47.854 401.254 47.843 401.019C47.832 400.801 47.703 400.403 47.385 400.505C46.841 400.678 47.002 401.551 47.095 401.85C46.766 402.031 46.776 401.437 46.828 401.246C46.892 401.003 47.085 400.676 47.264 400.473C46.86 400.309 46.264 401.455 46.078 401.714C46.096 401.337 46.523 400.668 46.877 400.426C47.289 400.144 47.177 400.492 47.459 400.604C47.899 400.312 48.339 401.459 48.543 401.684C48.823 401.993 49.102 402.276 49.451 402.514C49.773 402.73 50.391 403.289 50.864 403.185C50.765 402.872 50.395 402.737 50.154 402.549C49.839 402.305 49.538 402.032 49.247 401.764C48.763 401.324 48.414 400.656 48.095 400.082C48.382 400.291 48.597 400.569 48.846 400.817C49.212 401.185 49.674 401.446 50.111 401.722C50.758 402.129 51.313 402.628 51.869 403.151C51.987 403.262 52.102 403.418 52.259 403.486C52.28 403.495 52.455 403.518 52.455 403.518C52.61 403.693 52.427 403.84 52.376 404.128C52.354 404.256 52.443 404.661 52.353 404.763C52.236 404.896 51.636 404.886 51.478 404.839C51.647 404.908 51.798 405.039 51.925 405.156C51.633 405.305 51.263 405.244 50.959 405.283C51.255 405.422 51.47 405.774 51.822 405.795C51.68 406.092 51.364 406.454 51.142 406.738C50.984 406.937 50.943 407.044 50.704 407.153C50.487 407.253 50.258 407.291 50.041 407.419C49.586 407.687 49.101 408.015 48.672 408.326C48.251 408.632 47.819 408.873 47.425 409.225C46.247 410.289 45.084 411.293 44.052 412.506C43.525 413.124 42.975 413.718 42.449 414.335C41.84 415.049 41.4 415.877 40.785 416.591C40.384 417.06 39.939 417.479 39.484 417.901C38.744 418.588 38.015 419.212 37.894 420.176C37.854 420.487 37.834 420.605 37.666 420.858C37.442 421.193 37.319 421.507 37.112 421.855C36.866 422.266 36.323 423.08 35.858 423.257C35.543 423.377 35.591 423.036 35.316 423.219C35.152 423.329 35.097 423.635 34.932 423.781C34.736 423.953 34.524 423.999 34.314 423.927C33.965 423.808 33.585 423.377 33.288 423.154C32.7 422.714 32.175 422.21 31.589 421.768C31.419 421.64 31.262 421.49 31.092 421.381C30.947 421.29 30.498 421.121 30.843 420.902C31.196 420.677 31.972 420.698 32.303 420.78Z" fill="#DCC06D"/>
<path d="M32.526 419.702C32.353 419.26 32.908 419.103 33.046 418.741C33.297 418.818 33.514 417.759 33.649 417.524C33.788 417.812 33.603 418.435 33.412 418.755C33.016 418.779 32.647 419.192 32.526 419.548" fill="#DCC06D"/>
<path d="M51.953 402.262C51.546 402.917 51.44 403.694 51.084 404.377C50.626 405.258 50.025 406.022 49.4 406.821C48.106 408.477 46.771 409.865 45.282 411.394C44.16 412.549 42.921 413.657 41.842 414.832C41.25 415.478 41.138 416.126 40.601 416.804C39.784 416.275 38.101 417.946 37.441 418.608C36.956 419.096 36.319 419.604 36.129 420.184C35.973 420.656 35.988 422.168 36.205 422.518C36.61 423.168 37.763 423.298 38.454 423.659C38.886 423.884 39.263 424.53 39.828 424.5C40.731 424.454 41.784 423.629 42.462 422.965C43.557 421.894 43.287 421.307 43.859 420.206C44.154 419.639 45.082 418.865 45.562 418.385C46.55 417.4 47.498 416.408 48.475 415.415C50.365 413.491 52.216 411.561 54.405 409.862C54.988 410.111 55.429 409.483 55.963 409.095C56.646 408.603 57.396 408.281 58.13 407.909C58.968 407.489 58.824 407.594 59.378 406.864C59.987 406.064 60.186 405.86 60.135 404.944C60.054 403.421 58.669 403.175 57.417 402.488C56.534 402.003 56.094 400.91 55.115 400.536C54.163 400.175 52.583 401.251 51.953 402.262Z" fill="#F3D48C" stroke="#967348" stroke-width="0.2607"/>
<path d="M40.024 417.047C40.05 417.319 40.335 417.824 39.802 418.02C39.87 418.082 39.923 418.297 40.16 418.269C40.321 417.978 40.555 417.694 40.703 417.396C40.411 417.347 40.519 416.941 40.102 417.038" fill="#DCC06D"/>
<path d="M39.648 419.086C39.829 418.997 39.992 418.881 40.093 418.727C40.317 419.022 39.814 419.341 39.617 419.054" fill="#DCC06D"/>
<path d="M46.695 416.69C47.581 415.772 48.555 414.898 49.503 414.034C50.411 413.204 51.271 412.333 52.168 411.493C52.483 411.199 52.779 410.89 53.097 410.598C53.401 410.322 53.743 410.097 54.045 409.827C54.288 409.611 54.409 409.542 54.714 409.488C55.159 409.411 55.257 409.19 55.616 408.916C56.739 408.059 58.033 408.047 59.024 406.941C59.919 405.944 60.522 403.998 59.147 403.696C59.41 403.759 59.418 404 59.136 404.176C58.772 404.405 58.128 404.183 57.85 404.093C57.703 404.047 57.132 403.87 57.232 403.634C57.356 403.342 57.967 403.421 58.197 403.329C57.108 403.394 56.639 402.52 56.174 401.907C56.055 401.748 55.831 401.749 55.698 401.625C55.584 401.516 55.645 401.278 55.529 401.188C55.347 401.05 54.645 400.954 54.51 401.295C54.356 401.681 55.052 401.766 54.6 402.255C55.014 402.22 54.673 402.876 54.399 402.982C54.436 403.134 54.594 403.212 54.615 403.384C54.637 403.567 54.44 403.693 54.441 403.841C54.443 404.261 54.887 404.125 55.21 403.826C55.308 403.949 55.58 404.027 55.633 404.164C55.731 404.405 55.509 404.557 55.371 404.85C55.526 404.814 56.466 404.08 56.069 404.785C56.672 404.211 56.964 405.127 56.807 405.529C56.735 405.713 56.427 406.144 56.18 406.173C56.01 406.191 55.867 405.926 55.764 405.839C55.602 406.021 55.41 406.25 55.157 406.339C55.191 406.249 55.154 406.122 55.187 406.031C54.417 406.051 53.253 407.496 52.726 408.023C51.263 409.496 49.749 410.921 48.279 412.394C46.89 413.786 45.471 415.17 44.093 416.556C43.741 416.909 43.12 417.38 42.944 417.804C42.835 418.065 42.961 418.593 42.327 418.627C42.175 418.815 42.245 419.278 41.944 419.322C41.657 419.362 41.876 418.782 41.389 418.963C41.426 418.925 41.467 418.836 41.514 418.785C41.263 418.925 41.197 418.656 40.991 418.594C40.974 418.615 40.887 418.678 40.862 418.703C40.901 418.738 40.931 418.794 40.964 418.835C40.687 419.138 39.995 420.17 39.558 419.997C39.552 420.445 38.924 420.336 39.018 419.947C39.098 419.927 39.179 419.879 39.265 419.871C39.161 419.804 39.088 419.726 39.028 419.626C38.83 419.849 38.048 420.751 37.772 420.466C37.771 420.614 37.826 420.674 37.99 420.642C38.085 420.624 38.192 420.521 38.295 420.495C38.411 420.467 38.515 420.5 38.608 420.523C38.865 420.586 39.103 420.777 38.757 421.043C38.843 421.143 39.019 421.346 38.891 421.514C38.685 421.784 38.066 421.669 37.852 421.651C37.402 421.611 36.974 421.469 36.495 421.539C36.637 422.373 37.092 422.965 37.761 423.45C38.108 423.702 38.496 423.86 38.957 423.955C39.153 423.995 39.38 424.057 39.611 424C39.562 423.554 39.133 423.253 39.113 422.771C39.106 422.62 39.15 422.451 39.141 422.303C39.134 422.184 38.991 421.83 39.097 421.698C39.319 421.42 39.536 421.781 39.705 421.731C39.832 421.695 39.826 421.602 39.897 421.511C40.029 421.33 40.192 421.212 40.357 421.054C40.154 420.962 40.365 420.673 40.314 420.51C40.281 420.405 40.002 420.39 40.035 420.246C40.105 419.951 40.854 420.02 41.015 420.02C41.088 419.88 41.313 419.658 41.474 419.72C41.698 419.807 41.057 420.684 40.96 420.897C41.281 420.568 41.464 421.092 41.287 421.339C41.183 421.484 40.704 421.947 40.55 421.845C40.676 421.957 40.766 422.029 40.652 422.218C40.538 422.402 40.2 422.606 40.002 422.707C40.21 423.098 39.908 423.795 39.788 424.267C40.641 424.014 41.59 423.487 42.324 422.903C42.842 422.489 43.063 421.933 43.214 421.41C43.29 421.143 43.336 420.876 43.434 420.609C43.535 420.324 43.735 420.092 43.925 419.829C44.17 419.489 44.442 419.162 44.745 418.852C45.28 418.306 45.746 417.725 46.255 417.164C46.399 417.005 46.545 416.848 46.695 416.69Z" fill="#DCC06D"/>
<path d="M51.618 403.532C51.886 403.078 51.916 402.64 52.181 402.203C52.506 401.667 53.262 401.215 53.798 400.921C53.472 401.13 51.912 402.562 52.548 402.726C52.233 402.834 51.853 403.033 51.807 403.37" fill="#DCC06D"/>
<path d="M45.149 421.105C45.841 420.695 46.739 420.466 47.659 420.096C52.304 418.23 55.783 413.163 57.085 408.769C57.239 408.252 56.851 407.706 57.074 407.239C58.308 404.655 64.552 408.342 65.485 409.75C66.49 411.262 66.793 413.2 66.257 414.864C65.723 416.519 63.992 416.725 62.579 417.499C60.997 418.367 59.082 419.403 57.751 420.609C56.88 421.396 56.308 422.502 55.458 423.289C54.745 423.944 53.993 424.378 53.402 425.218C52.22 426.898 51.421 428.875 49.545 429.808C48.445 430.354 47.943 429.469 46.747 428.671C45.174 427.62 43.759 425.165 43.859 423.354C43.927 422.162 44.425 421.534 45.149 421.105Z" fill="#F3D48C" stroke="#967348" stroke-width="0.2607"/>
<path d="M46.246 427.062C46 426.972 44.786 426.103 45.032 425.779C44.213 426.848 48.148 429.598 49.053 429.718C49.595 429.791 50.148 429.229 50.517 428.936C51.876 427.868 52.132 425.996 53.285 424.729C54.579 423.31 55.989 422.122 57.182 420.585C58.444 418.956 60.77 417.279 62.691 416.384C63.544 415.987 64.691 415.762 64.466 414.642C67.445 414.769 62.707 409.734 61.725 409.29C62.206 409.682 62.838 410.211 62.695 410.908C61.005 410.584 60.82 407.486 58.321 407.715C59.942 407.567 62.386 410.583 62.122 411.942C61.849 413.342 61.282 412.637 60.336 412.933C59.11 413.316 59.011 413.662 58.49 414.945C58.085 415.935 57.498 416.849 56.919 417.702C55.953 419.12 54.436 419.89 53.348 421.169C52.371 422.317 51.536 423.936 50.101 424.536C49.902 424.62 49.516 424.618 49.35 424.751C48.993 425.042 48.968 425.623 48.522 425.819C48.552 425.633 48.579 425.409 48.589 425.239C48.14 425.492 46.568 425.908 47.089 424.722C46.677 425.165 46.066 425.467 46.272 426.315C46.557 426.294 46.863 426.254 47.14 426.175C47.211 426.65 47.648 426.619 47.986 426.727C47.933 426.679 47.843 426.536 47.778 426.472C47.823 426.23 48.004 426.133 48.241 426.158C48.418 426.374 48.634 426.79 48.877 426.857C49.159 426.932 49.332 426.51 49.6 426.567C49.8 426.609 49.989 426.954 50.211 427.039C50.579 427.181 51.038 426.96 51.36 426.931C51.285 427.1 50.86 427.344 50.734 427.44C50.567 427.561 50.49 427.959 50.156 427.586C50.082 428.139 49.591 429.027 49.031 427.973C49.1 428.333 49.326 428.922 48.934 429.002C48.436 428.48 47.886 427.92 47.724 427.241C47.217 427.046 46.762 427.248 46.246 427.062Z" fill="#DCC06D"/>
<path d="M57.234 407.168C57.636 407.048 57.853 407.65 57.888 407.996C57.995 407.783 58.094 407.577 58.147 407.335C57.891 407.176 57.58 407.048 57.305 407.038" fill="#DCC06D"/>
<path d="M13.296 428.23C12.804 427.691 11.69 426.759 12.005 425.888C12.241 425.24 12.985 424.545 13.61 424.164C13.992 423.932 14.443 423.89 14.812 423.639C15.393 423.244 15.936 422.633 16.479 422.172C17.265 421.507 18.627 420.614 18.919 419.672C19.019 419.357 19.106 418.984 19.359 418.711C19.496 418.565 19.653 418.471 19.84 418.398C20.072 418.308 20.272 418.194 20.499 418.122C20.84 418.013 21.044 418.205 21.328 418.267C21.786 418.368 22.267 418.345 22.713 418.5C23.063 418.622 23.287 418.841 23.408 419.177C23.61 419.74 23.375 420.362 23.33 420.958C23.284 421.588 23.557 422.164 22.775 422.657C22.358 422.919 21.96 422.833 21.523 422.965C20.657 423.221 19.833 423.918 18.976 424.276C17.479 424.9 16.812 425.8 15.957 427.026C15.919 427.049 15.889 427.078 15.868 427.113C15.916 427.137 15.96 427.162 16.008 427.183C15.743 427.434 15.438 427.66 15.177 427.912C15.211 427.936 15.241 427.917 15.277 427.94C15.089 428.126 14.928 428.057 14.736 428.147C14.558 428.229 14.405 428.378 14.224 428.445C13.704 428.635 13.538 428.495 13.296 428.23Z" fill="#F3D48C" stroke="#967348" stroke-width="0.2607"/>
<path d="M13.281 425.242C13.673 425.078 13.412 424.481 13.774 424.372C14.224 424.234 13.681 425.458 13.223 425.246" fill="#DCC06D"/>
<path d="M12.289 426.595C12.249 426.546 12.229 426.477 12.23 426.413C12.472 426.3 13.055 426.333 13.222 426.5C13.366 426.645 13.285 426.876 13.474 427.019C13.586 427.106 13.948 427.1 13.994 427.192C14.096 427.397 13.635 427.896 13.747 428.181C13.939 428.024 14.938 426.381 15.139 427.052C15.243 426.781 15.585 426.638 15.713 426.386C15.79 426.235 15.89 426.228 15.728 426.105C15.642 426.04 15.581 426.016 15.444 426.101C15.855 425.658 16.539 425.261 16.833 424.742C16.923 424.586 16.864 424.513 17.065 424.312C17.418 423.961 17.94 423.639 18.357 423.359C19.056 422.888 19.927 422.394 20.525 421.804C20.729 421.606 20.785 421.368 21.159 421.449C21.365 421.494 21.41 421.714 21.637 421.417C21.618 421.448 21.601 421.48 21.585 421.514C21.759 421.327 21.961 421.273 22.171 421.142C22.522 420.924 22.788 420.567 22.971 420.231C22.683 420.261 22.018 420.493 21.874 420.751C22.406 419.802 22.315 419.124 21.67 418.48C22.004 418.736 22.571 418.678 22.879 418.988C23.081 419.192 23.194 419.484 23.182 419.791C23.164 420.112 23.112 420.458 23.088 420.796C23.045 421.415 23.346 422.032 22.665 422.535C22.769 422.23 22.436 422.267 22.255 422.48C22.331 422.531 22.437 422.574 22.536 422.6C22.348 422.767 21.948 422.72 21.701 422.791C21.393 422.879 21.149 423.025 20.867 423.175C20.514 423.359 20.149 423.504 19.788 423.667C19.323 423.879 18.79 424.017 18.352 424.258C17.431 424.762 16.709 425.603 16.117 426.406C16.022 426.537 15.824 426.7 15.784 426.846C15.737 427.031 15.928 426.998 15.767 427.222C15.681 427.34 15.51 427.396 15.375 427.506C15.165 427.679 15.004 427.923 14.823 428.108C14.561 427.881 14.314 428.259 14.009 428.341C13.618 428.444 13.509 428.295 13.362 428.05C13.028 427.489 12.403 427.006 12.224 426.464" fill="#DCC06D"/>
<path d="M17.708 430.182C17.218 429.643 16.103 428.711 16.418 427.84C16.654 427.194 17.399 426.497 18.023 426.116C18.404 425.885 18.857 425.843 19.225 425.593C19.805 425.197 20.349 424.586 20.893 424.125C21.678 423.46 23.039 422.566 23.333 421.624C23.431 421.309 23.518 420.937 23.773 420.663C23.908 420.517 24.066 420.424 24.252 420.35C24.486 420.26 24.684 420.145 24.913 420.073C25.253 419.965 25.456 420.158 25.74 420.219C26.199 420.32 26.679 420.295 27.126 420.45C27.475 420.572 27.699 420.792 27.822 421.128C28.023 421.69 27.787 422.313 27.744 422.909C27.697 423.539 27.971 424.114 27.188 424.607C26.771 424.871 26.374 424.784 25.936 424.915C25.07 425.173 24.247 425.869 23.39 426.226C21.892 426.85 21.226 427.751 20.37 428.977C20.333 428.998 20.303 429.028 20.282 429.065C20.33 429.087 20.375 429.112 20.423 429.135C20.157 429.383 19.852 429.611 19.591 429.863C19.625 429.888 19.655 429.869 19.691 429.89C19.503 430.077 19.343 430.007 19.15 430.097C18.973 430.179 18.82 430.328 18.638 430.397C18.116 430.589 17.95 430.447 17.708 430.182Z" fill="#F3D48C" stroke="#967348" stroke-width="0.2607"/>
<path d="M17.693 427.196C18.086 427.029 17.824 426.433 18.186 426.323C18.637 426.186 18.094 427.41 17.636 427.198" fill="#DCC06D"/>
<path d="M16.7 428.546C16.661 428.497 16.64 428.429 16.641 428.364C16.883 428.251 17.467 428.285 17.633 428.452C17.776 428.596 17.697 428.827 17.886 428.971C17.999 429.057 18.359 429.052 18.405 429.144C18.508 429.35 18.046 429.848 18.16 430.133C18.352 429.976 19.349 428.332 19.55 429.005C19.654 428.732 19.996 428.59 20.124 428.339C20.201 428.187 20.302 428.18 20.14 428.057C20.053 427.991 19.992 427.968 19.854 428.053C20.265 427.609 20.95 427.213 21.245 426.693C21.333 426.537 21.276 426.464 21.476 426.264C21.828 425.914 22.351 425.592 22.768 425.311C23.467 424.838 24.337 424.346 24.936 423.757C25.14 423.557 25.197 423.319 25.57 423.4C25.775 423.445 25.82 423.666 26.047 423.368C26.027 423.4 26.011 423.432 25.993 423.465C26.169 423.277 26.371 423.224 26.581 423.095C26.933 422.876 27.198 422.518 27.382 422.184C27.092 422.212 26.427 422.446 26.284 422.702C26.816 421.754 26.725 421.077 26.08 420.431C26.413 420.688 26.982 420.629 27.289 420.94C27.491 421.143 27.605 421.436 27.592 421.743C27.575 422.065 27.521 422.411 27.498 422.747C27.455 423.368 27.756 423.984 27.076 424.488C27.179 424.181 26.846 424.221 26.665 424.433C26.742 424.482 26.848 424.529 26.945 424.552C26.757 424.719 26.358 424.671 26.111 424.742C25.804 424.831 25.559 424.977 25.276 425.126C24.924 425.312 24.56 425.455 24.199 425.618C23.733 425.831 23.199 425.968 22.761 426.21C21.842 426.713 21.119 427.555 20.526 428.358C20.432 428.488 20.233 428.651 20.194 428.798C20.146 428.983 20.337 428.95 20.176 429.173C20.089 429.291 19.917 429.347 19.785 429.457C19.574 429.63 19.413 429.874 19.232 430.061C18.971 429.832 18.723 430.213 18.419 430.293C18.028 430.395 17.918 430.247 17.771 430.002C17.437 429.44 16.811 428.957 16.633 428.417" fill="#DCC06D"/>
<path d="M22.747 428.645C23.029 428.251 23.802 427.905 24.23 427.588C24.934 427.071 25.417 426.344 25.937 425.669C26.486 424.958 27.049 424.281 27.482 423.496C27.843 422.841 28.086 422.173 28.286 421.458C28.429 420.957 28.596 420.579 29.149 420.371C30.663 419.805 32.61 420.707 33.656 421.85C34.548 422.829 35.201 424.975 34.053 425.868C33.726 426.124 33.149 426.262 32.773 426.458C32.137 426.793 31.567 427.189 31.02 427.635C30.187 428.312 29.327 428.956 28.628 429.766C28.139 430.334 27.868 430.745 27.765 431.456C27.669 432.107 27.67 432.332 27.016 432.639C26.52 432.871 26.154 433.286 25.614 433.246C24.847 433.189 24.55 432.681 24.029 432.185C23.618 431.793 23.103 431.619 22.677 431.279C21.85 430.618 22.256 429.329 22.747 428.645Z" fill="#F3D48C" stroke="#967348" stroke-width="0.2607"/>
<path d="M24.814 431.949C24.934 432.095 25.097 432.417 24.846 432.496C24.922 432.592 25.013 432.713 24.992 432.824C24.518 432.55 24.343 432.247 24.023 431.841C23.83 431.595 23.01 431.455 22.955 431.236C22.943 431.184 23.796 431.323 23.86 431.341C24.223 431.45 24.578 431.661 24.814 431.949Z" fill="#DCC06D"/>
<path d="M24.041 429.154C23.824 428.842 24.135 428.94 24.218 428.727C24.301 428.519 24.009 428.385 24.096 428.172C24.415 428.235 25.238 429.195 24.747 429.298C24.542 429.34 24.58 429.146 24.491 429.115C24.333 429.063 24.154 429.227 24.041 429.154Z" fill="#DCC06D"/>
<path d="M24.419 429.924C24.427 429.866 24.456 429.833 24.506 429.821C24.773 430.025 24.665 430.436 24.889 430.684C24.91 430.676 24.929 430.67 24.949 430.669C24.852 430.779 24.843 430.954 24.728 431.043C24.5 430.8 24.255 430.076 24.432 429.812" fill="#DCC06D"/>
<path d="M25.448 432.103C25.37 432.016 25.31 431.893 25.325 431.793C25.338 431.701 25.907 432.442 25.933 432.461C26.04 432.145 26.196 431.862 26.47 431.614C26.458 431.678 26.5 431.76 26.497 431.821C26.832 431.832 27.288 431.418 27.285 431.092C27.282 430.905 27.034 430.529 26.807 430.629C26.789 430.627 26.788 430.626 26.805 430.624C27.351 430.842 26.322 431.328 26.321 430.7C26.243 430.957 26.086 430.842 25.961 430.681C25.746 430.404 25.913 430.22 26.054 429.949C25.904 430.108 25.726 430.247 25.596 430.42C25.482 430.569 25.449 430.87 25.293 430.94C24.988 430.539 25.497 429.663 25.942 429.529C25.897 429.374 25.97 429.223 26.067 429.104C25.929 429.035 25.885 428.876 25.903 428.746C26.309 428.767 26.355 428.5 26.501 428.213C26.684 427.854 26.844 427.653 27.237 427.523C27.992 427.272 28.555 426.38 29.109 425.855C29.448 426.038 29.759 425.655 29.908 425.454C30.236 425.008 30.603 424.518 31.015 424.136C31.098 424.295 31.235 424.279 31.329 424.145C31.421 424.012 31.31 423.862 31.313 423.716C31.321 423.513 31.33 423.566 31.45 423.414C31.577 423.253 31.909 422.8 32.084 422.755C32.007 423.026 31.919 423.528 32.126 423.783C32.372 424.082 32.497 423.698 32.672 423.498C32.802 423.349 33.04 423.236 33.141 423.102C33.321 422.869 33.053 422.606 32.842 422.45C32.76 422.387 32.636 422.367 32.568 422.302C32.441 422.181 32.528 422.272 32.483 422.139C32.465 422.083 32.495 421.967 32.461 421.873C32.427 421.78 32.326 421.662 32.257 421.588C31.986 421.289 31.609 421.284 31.289 421.098C31.125 421.003 31.096 420.85 30.958 420.746C31.435 420.933 31.984 420.872 32.441 421.123C33.004 421.433 33.452 421.956 33.786 422.468C34.173 423.066 34.3 423.606 34.33 424.271C34.342 424.517 34.468 424.949 34.325 425.161C34.271 425.048 34.204 424.934 34.147 424.827C33.973 424.827 33.847 425.032 33.847 425.181C33.849 425.234 33.966 425.28 33.967 425.365C33.968 425.395 33.849 425.52 33.829 425.541C33.751 425.628 33.843 425.616 33.704 425.68C33.599 425.729 33.418 425.72 33.289 425.775C32.851 425.96 32.52 426.242 32.133 426.495C31.349 427.004 30.641 427.605 29.918 428.177C29.443 428.551 29.015 428.941 28.57 429.346C28.226 429.66 27.963 429.891 27.826 430.334C27.742 430.607 27.678 430.895 27.629 431.177C27.594 431.376 27.609 431.691 27.509 431.867C27.437 431.993 26.727 432.307 27.129 432.416C26.805 432.644 26.252 432.584 25.936 432.846C25.927 432.742 25.943 432.61 26.019 432.523C25.908 432.626 25.766 432.624 25.676 432.77C25.492 432.624 25.442 432.313 25.448 432.103Z" fill="#DCC06D"/>
<path d="M21.663 431.09C22.208 430.847 22.719 430.481 23.22 430.534C24.064 430.623 23.927 431.462 24.17 432.093C24.351 432.566 24.924 432.53 24.924 433.271C24.923 433.915 24.571 434.537 23.986 434.738C23.809 434.799 23.633 434.749 23.405 434.842C23.257 434.902 22.921 435.089 22.747 435.202C22.124 435.612 21.518 436.476 21.092 437.105C20.989 437.257 20.553 437.771 20.691 437.939C20.907 438.21 21.201 437.59 21.437 437.644C21.987 437.773 20.78 439.31 20.545 439.517C20.403 439.643 20.184 439.759 20.023 439.873C19.957 439.92 19.817 439.914 19.774 439.949C19.677 440.034 19.637 440.2 19.55 440.272C19.258 440.524 19 440.788 18.639 440.793C18.321 440.798 17.084 440.393 17.585 439.828C16.909 439.787 17.284 438.819 17.317 438.38C17.343 438.055 17.045 437.464 17.734 437.37C17.687 436.95 17.989 436.282 18.403 435.986C19.215 435.409 18.522 436.373 18.755 436.622C19.609 435.578 20.116 434.272 20.405 433.071C20.532 432.539 20.234 432.018 20.427 431.47C20.57 431.07 20.486 431.24 20.731 431.089C20.622 431.155 21.284 430.954 21.208 430.961C21.451 430.942 21.549 430.778 21.663 431.09Z" fill="#F3D48C" stroke="#967348" stroke-width="0.2607"/>
<path d="M20.434 431.708C20.566 432.035 20.644 431.7 20.716 431.584C20.86 431.355 20.958 431.251 21.226 431.248C21.589 431.241 21.563 431.632 21.226 431.911C21.251 432.012 21.253 432.133 21.302 432.214C21.51 431.934 21.38 431.65 21.646 431.403C22.015 431.06 22.44 431.382 22.561 431.669C22.717 431.201 23.998 432.023 23.491 432.446C23.602 432.498 23.731 432.471 23.839 432.45C23.724 432.624 23.519 432.672 23.388 432.846C23.347 432.825 23.287 432.842 23.25 432.817C23.098 433.008 23.03 433.21 22.825 433.36C22.846 433.393 22.895 433.417 22.934 433.427C23.054 433.326 23.123 433.179 23.265 433.128C23.25 433.174 23.261 433.256 23.214 433.335C23.278 433.34 23.375 433.379 23.382 433.455C23.396 433.631 23.297 433.57 23.213 433.708C23.061 433.961 23.04 434.083 23.042 434.351C23.105 434.169 23.213 433.998 23.38 433.897C23.389 434.008 23.371 434.155 23.409 434.254C23.426 434.237 23.441 434.221 23.458 434.204C23.439 434.329 23.354 434.46 23.247 434.554C23.553 434.366 23.614 434.148 23.773 433.807C23.653 433.875 23.412 434.054 23.373 433.89C23.337 433.738 23.616 433.533 23.691 433.4C23.533 433.323 23.289 433.54 23.348 433.176C23.394 432.886 23.748 432.638 23.961 432.738C24.248 432.873 24.214 433.605 24.147 433.936C24.102 434.15 23.912 434.452 24.072 434.586C24.195 434.501 24.348 434.265 24.433 434.141C24.6 433.899 24.734 433.646 24.74 433.377C24.75 432.994 24.568 432.636 24.316 432.444C24.213 432.367 23.996 432.386 23.927 432.287C23.872 432.21 23.945 431.925 23.926 431.815C23.875 431.526 23.719 431.133 23.507 430.972C23.244 430.771 22.936 430.785 22.568 430.883C22.295 430.954 21.908 431.126 21.651 431.147C21.527 431.156 21.488 431.053 21.379 431.045C21.249 431.035 21.141 431.107 21.002 431.153C20.724 431.247 20.383 431.354 20.487 431.722C20.513 431.685 20.523 431.698 20.549 431.69" fill="#DCC06D"/>
<path d="M22.028 434.507C22.275 434.588 22.54 434.5 22.759 434.241C22.817 434.296 22.883 434.729 22.835 434.856C22.756 435.074 22.33 435.225 22.123 435.383C21.781 435.648 21.582 435.949 21.308 436.297C21 436.687 20.655 437.117 20.486 437.576C20.371 437.888 20.48 438.149 20.803 438.068C21.042 438.009 21.503 437.469 21.465 437.934C21.409 438.592 20.398 439.516 19.863 439.75C20.289 439.285 20.085 438.747 19.534 439.129C19.2 439.362 19.508 439.255 19.365 439.496C19.264 439.666 19.141 439.551 19.089 439.466C18.863 439.765 18.747 439.933 18.871 440.237C18.932 440.381 19.11 440.708 18.723 440.591C18.751 440.248 18.775 439.903 18.792 439.568C18.799 439.438 18.88 438.751 18.631 438.982C18.501 438.657 17.969 439.594 17.874 439.758C17.713 439.515 17.934 439.15 17.887 438.859C17.831 438.515 17.683 438.173 17.79 437.761C17.874 437.866 17.837 438.094 17.934 438.188C18.081 438.037 18.066 437.849 18.163 437.692C18.258 437.537 18.412 437.481 18.488 437.298C18.581 437.078 18.446 436.972 18.446 436.782C18.448 436.599 18.571 436.405 18.594 436.226C18.44 437.186 19.177 436.194 19.418 435.851C19.262 436.234 18.83 436.784 18.784 437.139C18.749 437.401 18.923 437.349 18.632 437.595C18.43 437.766 18.204 437.868 18.286 438.158C18.335 438.332 18.393 438.295 18.584 438.262C18.58 438.388 18.526 438.519 18.445 438.636C18.369 438.409 18.186 438.416 18.085 438.675C17.957 439.004 18.036 439.287 18.321 439.047C18.402 438.981 18.412 438.87 18.509 438.829C18.592 438.792 18.704 438.871 18.781 438.872C18.988 438.874 19.028 438.829 19.202 438.609C19.405 438.36 19.633 438.116 19.711 437.814C19.741 437.697 19.709 437.519 19.767 437.408C19.839 437.267 20.049 437.082 20.154 436.961C20.619 436.44 21.05 435.94 21.467 435.372C21.636 435.141 22.093 434.78 22.004 434.488" fill="#DCC06D"/>
<path d="M35.719 430.607C36.848 429.673 38.269 428.906 39.333 427.978C40.536 426.933 40.385 426.252 40.214 424.74C39.922 422.158 36.97 421.854 34.979 421.039C34.505 421.437 33.926 421.508 33.537 421.921C32.946 422.55 32.765 423.969 32.469 424.762C31.698 426.825 30.874 428.589 28.961 429.675C28.106 430.156 26.129 432.063 26.407 433.111C26.631 433.95 27.886 434.126 28.509 434.527C29.166 434.951 29.889 436.352 30.607 436.532C31.38 436.724 32.382 435.678 32.712 435.143C33.129 434.46 33.043 433.578 33.515 432.924C33.825 432.491 34.324 432.111 34.667 431.668C34.961 431.285 35.322 430.936 35.719 430.607Z" fill="#F3D48C" stroke="#967348" stroke-width="0.2607"/>
<path d="M26.996 433.436C27.477 432.939 28.969 432.804 29.453 433.497C28.842 433.658 28.545 433.65 29.067 434.215C29.422 434.596 30.204 435.382 30.039 435.913C29.634 435.612 29.372 435.106 28.992 434.763C28.681 434.483 28.326 434.268 27.952 434.075C27.559 433.871 26.823 433.651 26.615 433.21C26.441 432.837 26.873 432.149 27.125 431.901C27.531 431.498 27.722 430.974 28.165 430.576C27.957 430.984 27.9 431.438 27.561 431.776C27.368 431.965 27.131 432.048 26.974 432.289C26.763 432.611 26.687 433.795 27.291 433.17" fill="#DCC06D"/>
<path d="M28.805 432.155C28.671 432.058 28.516 431.976 28.394 431.885C28.675 431.785 28.6 431.656 28.697 431.479C28.814 431.265 28.975 430.991 29.175 430.804C29.019 431.247 28.926 431.727 28.728 432.15" fill="#DCC06D"/>
<path d="M40.06 426.25C40.004 426.771 39.88 427.188 39.487 427.54C38.921 428.049 38.181 428.381 37.602 428.905C36.03 430.332 33.446 431.554 32.939 433.767C32.792 434.4 32.374 435.149 31.865 435.555C31.623 435.747 31.262 436.145 30.942 436.177C30.851 435.454 30.992 434.297 30.122 433.901C30.274 433.088 31.483 434.608 31.248 435.022C31.553 434.483 32.589 434.391 32.695 433.737C32.731 433.534 32.628 433.323 32.38 433.287C31.887 433.218 31.768 433.835 31.713 434.162C31.535 433.842 31.507 432.59 32.034 432.606C31.936 431.177 32.659 430.361 33.72 429.543C34.188 429.183 34.403 428.497 34.718 428.007C35.089 427.437 35.417 426.852 35.798 426.317C35.766 426.692 35.936 426.693 36.246 426.694C36.306 426.695 36.433 426.592 36.524 426.59C36.878 426.572 37.116 426.911 37.527 426.757C37.934 426.606 38.822 425.357 37.88 425.274C38.151 425.003 37.846 424.614 37.484 424.975C37.505 424.91 37.659 424.591 37.804 424.606C38.001 424.627 38.024 424.98 38.1 425.155C38.21 425.408 38.455 425.957 38.773 426.051C39.242 426.189 39.311 425.747 39.071 425.421C38.888 425.168 38.577 425.022 38.357 424.784C38.571 424.526 38.417 424.143 38.164 423.926C37.817 423.629 37.455 423.768 37.1 423.699C37.385 423.752 37.71 423.441 37.968 423.376C38.224 423.313 38.806 423.404 38.698 422.966C38.72 422.931 38.782 422.847 38.806 422.808C39.216 423.054 39.548 423.73 39.791 424.132C40.205 424.818 40.136 425.523 40.06 426.25Z" fill="#DCC06D"/>
<path d="M32.877 424.36C33.001 423.96 33.078 423.446 33.363 423.139C33.332 423.424 33.112 424.084 32.872 424.149" fill="#DCC06D"/>
<path d="M25.428 436.609C25.557 436.254 25.746 435.824 25.799 435.468C25.834 435.225 25.678 434.902 25.755 434.674C25.909 434.218 26.537 434.17 27.046 434.044C27.577 433.911 28.103 433.956 28.605 434.088C29.468 434.316 30.063 434.99 30.232 435.824C30.337 436.348 30.646 436.821 30.007 437.233C29.44 437.595 28.699 437.74 28.098 438.172C27.488 438.61 27.097 439.219 26.595 439.761C26.345 440.032 26.005 440.271 25.961 440.614C26.156 440.505 26.305 440.557 26.465 440.525C26.114 441.842 23.67 443.983 22.741 442.78C22.634 442.643 22.735 442.396 22.656 442.247C22.613 442.168 22.361 442.13 22.294 441.98C22.222 441.825 22.26 441.221 22.274 441.013C22.307 440.444 22.672 440.174 22.873 439.736C23.031 439.391 23.039 438.447 23.596 438.53C23.641 438.397 23.784 438.252 23.896 438.164C24.326 438.485 24.292 438.861 24.812 438.111C25.12 437.666 25.25 437.096 25.428 436.609Z" fill="#F3D48C" stroke="#967348" stroke-width="0.2607"/>
<path d="M29.042 435.88C29.242 436.117 29.578 436.125 29.712 436.462C29.787 436.649 29.786 436.953 29.697 437.159C29.502 437.067 29.317 436.914 29.141 436.826C29.011 436.758 28.747 436.542 28.582 436.511C28.147 436.433 27.334 437.228 27.148 437.605C27.089 437.042 26.321 438.201 26.211 438.339C25.716 438.963 25.154 439.549 24.643 440.16C24.73 440.324 24.627 440.574 24.571 440.763C24.984 440.54 24.819 441.374 24.526 440.974C24.444 441.135 24.333 441.289 24.225 441.435C24.279 441.465 24.319 441.551 24.374 441.579C24.067 441.836 23.59 441.125 23.556 440.883C23.504 440.522 23.738 440.03 23.861 439.674C23.949 439.414 24.012 439.068 24.164 438.835C24.008 438.828 23.918 438.699 23.902 438.552C23.796 438.898 23.642 439.076 23.402 439.334C24.042 439.017 23.302 439.915 23.305 439.948C23.338 439.957 23.36 439.955 23.389 439.964C23.378 440.099 23.275 440.214 23.143 440.28C23.457 440.29 23.261 440.537 23.092 440.653C23.322 440.496 23.083 441.11 23.064 441.146C22.993 441.28 22.826 441.647 22.626 441.55C22.485 441.482 22.493 440.923 22.525 440.766C22.302 441.24 22.587 441.519 22.743 441.877C22.761 441.674 22.74 441.481 22.943 441.32C23.203 441.112 23.563 441.216 23.566 441.505C23.567 441.585 23.455 441.685 23.462 441.758C23.466 441.789 23.568 441.987 23.574 441.954C23.67 441.445 24.04 441.726 23.893 441.942C23.937 441.995 24.036 442.055 24.111 442.066C24.183 441.887 24.351 441.776 24.512 441.898C24.616 441.74 24.793 441.495 24.975 441.672C25.062 441.511 25.339 441.051 25.566 441.147C25.81 441.251 25.305 441.501 25.421 441.67C25.327 441.788 25.187 441.834 25.05 441.814C25.046 441.907 25.022 442.032 24.959 442.115C24.934 442.148 24.632 442.325 24.612 442.328C24.448 442.362 24.063 442.367 23.983 442.263C23.94 442.366 23.894 442.344 23.81 442.435C23.625 442.284 23.313 442.231 23.229 442.018C22.796 442.293 23.478 442.296 23.583 442.412C23.613 442.386 23.64 442.359 23.67 442.333C23.767 442.4 23.852 442.482 23.948 442.55C23.962 442.518 24.018 442.46 24.034 442.418C24.102 442.462 24.201 442.462 24.262 442.533C24.4 442.222 24.6 442.306 24.804 442.426C24.944 442.305 24.959 442.127 25.096 442.016C25.251 442.185 25.312 442.053 25.398 441.923C25.454 441.839 25.435 441.739 25.488 441.658C25.542 441.576 25.609 441.581 25.672 441.508C25.919 441.225 26.18 440.932 26.257 440.571C26.08 440.583 25.834 440.766 25.674 440.688C25.922 440.386 26.099 440.049 26.362 439.747C26.783 439.26 27.208 438.784 27.633 438.299C28.059 437.811 28.633 437.455 29.236 437.286C29.792 437.132 30.286 437.113 30.334 436.433C30.086 436.746 29.602 435.918 29.802 435.749C29.926 435.836 30.038 435.938 30.152 436.036C30.054 434.734 28.671 434.079 27.435 434.036C27.614 434.156 27.689 434.353 27.903 434.415C28.05 434.458 28.329 434.445 28.518 434.493C29.073 434.636 29.6 434.777 29.66 435.41C29.244 435.478 28.725 435.084 28.419 434.857C28.196 434.694 27.996 434.55 27.683 434.711C27.796 435.004 28.378 435.136 28.643 435.281C28.771 435.35 28.978 435.434 29.043 435.569C29.069 435.62 29.052 435.891 29.042 435.88Z" fill="#DCC06D"/>
<path d="M44.313 424.296C42.544 424.423 42.197 424.867 41.869 426.557C41.578 428.039 40.905 429.515 40.195 430.732C39.919 431.207 39.581 431.937 39.157 432.262C38.799 432.539 38.088 432.366 37.801 432.619C37.214 433.149 37.223 434.974 37.265 435.807C38.203 436.183 38.354 436.925 39.019 437.62C39.639 438.27 40.394 438.239 40.976 438.879C41.833 438.506 42.587 438.204 43.285 437.601C42.452 435.35 44.372 433.675 45.563 432.578C46.172 432.015 46.541 431.786 47.37 431.772C48.29 431.752 48.751 432.027 49.231 431.281C50.022 430.055 49.049 428.058 47.972 426.836C47.45 426.242 46.294 425.728 45.62 425.217C44.848 424.631 44.143 423.859 43.268 424.693" fill="#F3D48C"/>
<path d="M44.313 424.296C42.544 424.423 42.197 424.867 41.869 426.557C41.578 428.039 40.905 429.515 40.195 430.732C39.919 431.207 39.581 431.937 39.157 432.262C38.799 432.539 38.088 432.366 37.801 432.619C37.214 433.149 37.223 434.974 37.265 435.807C38.203 436.183 38.354 436.925 39.019 437.62C39.639 438.27 40.394 438.239 40.976 438.879C41.833 438.506 42.587 438.204 43.285 437.601C42.452 435.35 44.372 433.675 45.563 432.578C46.172 432.015 46.541 431.786 47.37 431.772C48.29 431.752 48.751 432.027 49.231 431.281C50.022 430.055 49.049 428.058 47.972 426.836C47.45 426.242 46.294 425.728 45.62 425.217C44.848 424.631 44.143 423.859 43.268 424.693" stroke="#967348" stroke-width="0.2511"/>
<path d="M38.272 434.934C39.296 434.937 38.786 433.575 39.121 433.017C39.551 433.311 39.987 433.337 40.304 433.071C40.207 433.634 40.431 434.291 40.635 434.884C40.862 434.928 40.889 434.773 41.073 434.731C41.212 434.697 41.424 434.771 41.536 434.611C41.728 434.344 41.333 433.696 41.267 433.382C41.727 433.528 41.848 433.163 42.116 432.902C42.645 432.384 43.18 431.866 43.679 431.305C44.159 430.773 44.616 430.197 45.058 429.626C45.237 429.397 45.416 429.009 45.642 428.863C45.874 429.13 46.14 429.354 46.439 429.495C46.663 429.135 47.028 430.298 47.559 430.146C48.113 429.986 47.554 429.247 47.504 428.822C47.47 428.565 47.611 428.605 47.518 428.268C47.496 428.194 47.289 427.826 47.223 427.703C46.993 427.289 46.584 426.677 46.168 426.924C46.158 426.892 46.192 426.852 46.19 426.82C46.158 426.751 46.125 426.813 46.127 426.68C46.621 426.459 47.084 427.451 47.692 427.503C47.525 427 46.891 426.56 46.804 426.144C47.356 427.101 48.307 427.712 48.747 428.756C49.032 429.436 49.276 430.042 49.219 430.702C49.091 432.08 47.744 431.537 46.701 431.624C45.447 431.723 44.469 432.494 43.711 433.382C43.253 433.919 42.789 434.814 42.648 435.584C42.574 435.999 43.054 437.32 42.824 437.366C42.737 437.088 42.48 436.992 42.312 437.179C42.204 437.306 42.338 437.754 42.23 437.938C42.095 438.169 41.349 438.687 41.034 438.675C40.398 438.652 38.264 436.832 38.106 436.037C38.349 435.997 38.762 435.803 39.038 435.899C39.472 436.055 39.207 436.011 39.324 436.349C39.586 437.113 39.744 437.561 40.592 437.64C41.268 437.704 41.136 437.321 40.811 436.626C40.67 436.327 40.116 435.151 40.854 435.594C40.639 435.234 39.209 434.953 39.05 435.222C38.862 435.038 38.632 434.923 38.56 435.045" fill="#DCC06D"/>
<path d="M43.289 424.951C43.412 424.607 43.779 424.653 44.108 424.685C43.351 424.928 44.342 426.421 44.776 426.83C44.54 426.928 44.336 426.893 44.141 426.656C44.002 426.49 43.962 426.029 43.87 425.826C43.678 425.395 43.39 425.066 43.116 424.684" fill="#DCC06D"/>
<path d="M34.573 439.985C34.523 439.873 35.592 438.607 35.669 438.314C35.867 437.566 35.341 437.043 35.301 436.272C35.28 435.877 36.23 434.971 36.364 435.48C36 434.096 37.179 435.27 37.607 435.457C37.952 435.608 39.151 435.243 38.898 436.227C40.215 436.816 40.385 437.703 40.398 438.735C40.399 438.889 40.682 439.135 40.681 439.388C40.68 439.484 40.279 440.024 40.204 440.095C39.883 440.4 39.594 440.629 39.077 440.662C38.697 439.311 35.609 441.485 36.598 443.058C35.749 443.715 35.002 445.282 33.663 443.678C32.246 441.979 32.887 440.127 33.998 439.261C34.242 439.548 34.439 439.681 34.573 439.985Z" fill="#F3D48C" stroke="#967348" stroke-width="0.2043"/>
<path d="M34.313 439.902C34.461 440.381 34.47 440.574 34.302 440.921C34.031 440.758 33.561 441.275 33.639 441.582C33.712 441.569 33.801 441.611 33.833 441.611C33.74 442.147 33.306 442.311 33.671 442.991C33.698 442.88 33.685 442.538 33.783 442.484C34.029 442.348 33.959 442.544 34.138 442.682C34.346 442.839 34.795 443.225 34.878 443.481C35.071 444.116 34.237 443.26 34 443.509C34.209 444.333 35.212 444.188 35.516 443.932C35.765 443.723 35.914 443.435 36.105 443.163C36.333 442.834 36.208 442.828 36.204 442.406C36.192 441.362 37.94 439.08 39.128 440.338C39.211 440.161 39.363 440.001 39.496 439.881C39.535 439.93 39.579 439.974 39.621 440.02C39.69 439.856 39.886 439.867 40.09 439.934C39.831 439.522 39.942 439.238 40.343 439.238C39.809 438.797 40.149 437.954 39.925 437.379C39.762 437.342 39.628 437.384 39.539 437.49C40.015 438.128 40.136 438.845 39.747 439.225C39.579 438.932 39.573 438.159 39.292 438.033C39.315 437.979 39.318 437.911 39.328 437.87C38.649 437.943 38.346 437.543 37.824 436.926C37.488 436.529 37.624 436.55 37.498 436.023C37.715 436.645 37.096 436.281 36.957 436.635C37.6 436.748 38.707 437.497 38.188 438.174C37.973 438.457 37.607 438.169 37.313 438.278C37.071 438.366 36.853 438.699 36.724 438.917C36.341 439.57 36.156 440.441 35.748 441.109C35.441 441.61 35.317 442.027 35.101 442.569C34.957 442.928 34.447 443.002 34.178 442.487C33.91 441.982 34.309 441.412 34.448 441.063C34.1 440.526 35.216 440.327 34.398 439.769" fill="#DCC06D"/>
<path d="M35.888 436.991C35.524 436.666 35.711 436.299 36.063 436.346C36.084 436.617 35.834 436.851 35.727 436.939" fill="#DCC06D"/>
<path d="M13.607 433.57C13.568 433.495 14.526 432.2 14.603 431.947C14.799 431.305 14.374 431.043 14.367 430.449C14.365 430.145 15.207 429.166 15.301 429.528C15.044 428.543 16.003 429.132 16.36 429.158C16.649 429.179 17.685 428.553 17.431 429.395C18.53 429.486 18.641 430.133 18.612 430.941C18.608 431.06 18.841 431.172 18.83 431.373C18.826 431.447 18.463 431.986 18.397 432.063C18.113 432.392 17.858 432.654 17.417 432.826C17.144 431.875 14.434 434.453 15.216 435.408C14.468 436.164 13.773 437.604 12.694 436.724C11.552 435.79 12.166 434.157 13.145 433.163C13.342 433.32 13.503 433.369 13.607 433.57Z" fill="#F3D48C" stroke="#967348" stroke-width="0.1656"/>
<path d="M13.389 433.577C13.496 433.912 13.498 434.061 13.341 434.38C13.116 434.329 12.698 434.867 12.752 435.086C12.815 435.057 12.889 435.064 12.917 435.055C12.816 435.503 12.44 435.754 12.726 436.184C12.754 436.089 12.756 435.825 12.84 435.753C13.055 435.578 12.988 435.751 13.135 435.809C13.306 435.875 13.673 436.051 13.735 436.227C13.876 436.669 13.197 436.237 12.985 436.498C13.132 437.087 13.991 436.687 14.261 436.401C14.48 436.166 14.617 435.899 14.791 435.631C14.997 435.308 14.892 435.339 14.903 435.009C14.932 434.194 16.507 431.907 17.471 432.559C17.55 432.396 17.685 432.229 17.801 432.097C17.834 432.124 17.869 432.145 17.902 432.169C17.968 432.021 18.133 431.975 18.305 431.969C18.1 431.719 18.204 431.466 18.546 431.353C18.108 431.157 18.429 430.4 18.261 430.01C18.123 430.029 18.008 430.098 17.927 430.208C18.309 430.573 18.385 431.101 18.039 431.51C17.907 431.327 17.931 430.722 17.696 430.704C17.718 430.654 17.723 430.599 17.733 430.565C17.152 430.813 16.91 430.586 16.488 430.249C16.217 430.031 16.332 430.011 16.245 429.632C16.405 430.06 15.893 429.948 15.761 430.267C16.303 430.174 17.219 430.448 16.751 431.126C16.557 431.409 16.256 431.286 16.002 431.453C15.794 431.593 15.594 431.915 15.477 432.123C15.126 432.744 14.936 433.478 14.562 434.119C14.282 434.598 14.16 434.962 13.958 435.448C13.821 435.77 13.385 435.972 13.174 435.644C12.965 435.324 13.325 434.762 13.458 434.45C13.182 434.126 14.138 433.655 13.464 433.45" fill="#DCC06D"/>
<path d="M14.84 430.848C14.543 430.696 14.715 430.355 15.014 430.293C15.021 430.5 14.798 430.753 14.704 430.852" fill="#DCC06D"/>
<path d="M10.771 429.94C11.085 429.666 11.169 429.187 11.28 428.827C11.422 428.36 11.375 428.168 11.27 427.768C11.007 426.775 12.625 427.025 13.034 427.279C13.427 427.521 14.036 428.286 13.893 428.888C13.808 429.249 13.467 429.193 13.215 429.306C12.901 429.448 12.634 429.826 12.401 430.084C12.157 430.355 11.997 430.598 11.825 430.915C11.915 430.941 12.039 430.894 12.137 430.874C12.104 431.056 11.965 431.353 11.885 431.521C11.802 431.702 11.677 431.965 11.548 432.121C11.402 432.114 11.269 432.37 11.123 432.466C10.935 432.594 10.665 432.662 10.469 432.637C10.085 432.587 9.893 432.318 9.731 432.018C9.778 431.968 9.771 431.925 9.798 431.882C9.694 432.043 9.60599 431.586 9.60699 431.557C9.61499 431.362 9.72799 431.157 9.78999 430.964C9.85199 430.778 10.015 430.123 10.308 430.315C10.162 430.17 10.313 429.94 10.507 429.845C10.576 429.811 10.942 429.791 10.771 429.94Z" fill="#F3D48C" stroke="#967348" stroke-width="0.2607"/>
<path d="M12.339 429.05C12.096 429.201 11.88 429.571 11.677 429.821C11.44 430.114 11.021 430.407 10.841 430.738C10.771 430.868 10.799 430.989 10.747 431.125C10.71 431.22 10.631 431.294 10.613 431.387C10.774 431.408 10.994 431.39 10.932 431.652C10.869 431.91 10.648 431.85 10.499 431.822C10.667 432.246 10.916 431.905 11.189 431.787C11.252 431.421 11.54 431.72 11.55 431.908C11.464 431.997 11.375 431.933 11.303 431.889C11.257 431.942 11.228 432.002 11.22 432.066C11.24 432.075 11.26 432.101 11.282 432.109C11.267 432.182 11.229 432.246 11.165 432.297C11.09 432.283 11.074 432.222 11.116 432.141C11.034 432.182 10.978 432.263 10.984 432.353C10.944 432.294 10.88 432.27 10.803 432.281C10.818 432.302 10.821 432.34 10.838 432.364C10.695 432.56 10.531 432.32 10.388 432.314C10.403 432.365 10.424 432.444 10.389 432.509C10.509 432.51 10.61 432.584 10.723 432.564C10.837 432.544 10.887 432.411 11.028 432.486C11.131 432.329 11.308 432.239 11.364 432.068C11.546 432.144 11.719 431.7 11.817 431.522C11.872 431.421 12.012 431.182 11.989 431.073C11.955 430.922 11.814 431.048 11.716 430.98C11.775 430.769 11.951 430.567 12.091 430.403C12.273 430.192 12.466 429.947 12.654 429.715C12.832 429.494 13.015 429.277 13.273 429.181C13.47 429.107 13.675 429.2 13.778 428.955C13.988 428.466 13.615 427.932 13.377 427.645C13.269 427.514 13.123 427.356 12.957 427.293C12.778 427.226 12.462 427.259 12.733 427.465C12.83 427.539 13.068 427.506 13.129 427.616C13.209 427.76 13.022 427.994 13.238 428.054C13.268 428.002 13.322 427.947 13.348 427.887C13.454 427.93 13.4 428.081 13.398 428.194C13.395 428.384 13.415 428.379 13.497 428.495C13.584 428.617 13.795 428.843 13.655 429.033C13.485 429.055 13.219 428.972 13.089 428.878C12.885 428.73 12.861 428.479 12.76 428.254C12.774 428.283 12.688 428.61 12.672 428.664C12.612 428.855 12.513 428.94 12.339 429.05Z" fill="#DCC06D"/>
<path d="M9.956 431.354C9.961 431.417 9.96201 431.485 9.96001 431.549C9.99201 431.456 10.064 431.403 10.136 431.445C10.095 431.349 10.049 431.177 10.076 431.072C10.118 430.904 10.236 430.884 10.357 430.75C10.477 430.62 10.459 430.537 10.509 430.408C10.568 430.266 10.679 430.127 10.744 429.984C10.447 429.919 10.445 430.481 10.344 430.614C10.25 430.735 10.077 430.767 10.009 430.883C9.94601 430.985 9.93801 431.338 9.95101 431.439" fill="#DCC06D"/>
<path d="M10.05 432.188C10.021 432.13 9.99301 432.073 9.98801 432.009C10.086 431.972 10.138 431.877 10.14 431.779C10.384 431.732 10.217 432.14 10.063 432.166" fill="#DCC06D"/>
<path d="M40.602 247.69C40.327 245.344 39.651 243.522 38.05 243.819C38.847 244.084 39.941 244.074 40.755 244.113C40.381 240.056 37.051 233.169 33.005 231.704C32.831 233.872 31.3 235.924 30.77 238.096C30.1 240.849 31.301 242.351 32.282 244.828C32.673 244.801 33.2 244.974 33.596 244.944C32.9 255.448 33.797 267.148 36.163 277.511C39.159 290.631 38.665 303.849 40.523 317.151C41.516 324.25 41.864 331.518 43.227 338.555C44.31 344.14 45.646 349.74 45.478 355.426C45.336 360.287 44.369 365.431 44.78 370.277C45.157 374.706 45.078 378.242 43.759 382.663C43.05 385.037 43.392 386.623 44.082 389.306C45.382 389.42 48.938 387.673 50.106 386.847C51.886 385.589 52.358 384.293 52.62 381.868C53.223 376.302 51.23 370.873 51.898 365.453C52.481 360.733 51.514 356.16 51.172 351.464C50.82 346.641 50.317 341.664 50.08 336.891C49.843 332.114 49.178 327.502 48.668 322.785C47.809 314.833 47.077 307.431 45.519 299.56C43.863 291.192 42.622 282.73 42.151 274.206C41.818 268.169 41.465 262.002 40.791 255.968C40.424 252.683 41.849 246.485 38.771 244.071C42.418 243.89 40.743 238.646 39.746 236.667C38.563 234.32 36.374 228.121 33.676 231.617C33.965 231.68 34.193 231.576 34.364 231.304" fill="#F3D48C"/>
<path d="M40.602 247.69C40.327 245.344 39.651 243.522 38.05 243.819C38.847 244.084 39.941 244.074 40.755 244.113C40.381 240.056 37.051 233.169 33.005 231.704C32.831 233.872 31.3 235.924 30.77 238.096C30.1 240.849 31.301 242.351 32.282 244.828C32.673 244.801 33.2 244.974 33.596 244.944C32.9 255.448 33.797 267.148 36.163 277.511C39.159 290.631 38.665 303.849 40.523 317.151C41.516 324.25 41.864 331.518 43.227 338.555C44.31 344.14 45.646 349.74 45.478 355.426C45.336 360.287 44.369 365.431 44.78 370.277C45.157 374.706 45.078 378.242 43.759 382.663C43.05 385.037 43.392 386.623 44.082 389.306C45.382 389.42 48.938 387.673 50.106 386.847C51.886 385.589 52.358 384.293 52.62 381.868C53.223 376.302 51.23 370.873 51.898 365.453C52.481 360.733 51.514 356.16 51.172 351.464C50.82 346.641 50.317 341.664 50.08 336.891C49.843 332.114 49.178 327.502 48.668 322.785C47.809 314.833 47.077 307.431 45.519 299.56C43.863 291.192 42.622 282.73 42.151 274.206C41.818 268.169 41.465 262.002 40.791 255.968C40.424 252.683 41.849 246.485 38.771 244.071C42.418 243.89 40.743 238.646 39.746 236.667C38.563 234.32 36.374 228.121 33.676 231.617C33.965 231.68 34.193 231.576 34.364 231.304" stroke="#967348" stroke-width="0.3218"/>
<path d="M35.08 235.236C33.216 236.453 32.789 239.085 33.623 240.931C33.963 240.819 34.336 240.766 34.668 240.633C34.326 242.375 35.669 242.973 37.105 243.104C34.423 242.862 33.174 245.003 31.76 241.227C30.652 238.269 31.823 234.652 34.266 232.769C34.755 233.456 35.425 234.163 35.795 234.877" fill="#DCC06D"/>
<path d="M40.086 260.269C40.366 264.133 38.754 267.922 39.353 271.706C39.858 274.893 40.998 278.121 41.515 281.266C41.763 277.855 40.971 274.328 40.793 270.929C40.618 267.591 41.807 262.532 40.443 259.553" fill="#DCC06D"/>
<path d="M42.589 325.708C44.892 334.614 46.637 343.86 47.516 352.894C48.265 360.585 47.163 370.216 49.778 377.452C48.734 374.694 48.215 373.411 46.879 376.48C45.662 379.278 45.254 382.747 44.36 385.681C46.285 373.711 46.582 361.306 45.084 349.309C44.526 344.846 43.635 340.508 42.868 336.079C42.247 332.49 40.234 324.833 42.598 321.546C43.374 324.544 43.579 327.97 44.02 331.072" fill="#DCC06D"/>
<path d="M32.748 216.677C31.535 219.24 32.555 223.859 32.697 226.636C32.89 230.405 34.741 233.095 37.064 235.951C39.777 239.289 41.988 244.325 43.563 248.378C48.02 259.854 48.546 273.828 48.489 286.022C48.459 292.419 48.947 298.985 49.572 305.309C50.189 311.559 51.694 317.396 52.781 323.564C55.382 338.305 54.178 353.235 54.489 368.113C54.605 373.694 51.262 379.193 53.247 384.73C54.81 389.092 61.12 389.281 64.85 391.134C66.33 391.869 67.145 393.487 68.933 393.776C73.769 394.554 75.992 387.769 76.739 384.255C77.745 379.52 74.964 375.64 73.78 371.14C73.202 368.944 73.356 366.921 73.123 364.765C72.824 361.994 71.693 359.291 70.997 356.58C69.436 350.504 68.428 344.261 68.516 337.972C68.595 332.363 69.569 326.669 69.229 321.064C68.949 316.438 68.378 311.824 68.167 307.143C67.71 297.041 66.569 287.022 67.076 276.988C67.869 261.285 71.403 246.334 74.255 230.965C74.729 228.416 74.161 227.113 73.609 224.77C73.212 223.085 73.33 223.391 73.53 221.632C73.734 219.845 74.764 219.859 73.242 218.065C69.805 214.015 63.07 217.462 59.136 218.432C55.041 219.44 49.757 219.763 45.521 219.512C44.261 219.435 33.143 215.842 32.748 216.677Z" fill="#F3D48C" stroke="#967348" stroke-width="0.3218"/>
<path d="M68.774 243.452C69.895 240.797 75.921 228.894 72.777 226.249C71.295 225.002 67.2 227.877 66.131 229.205C68.082 226.779 70.903 224.518 71.603 221.334C72.656 216.542 69.025 218.571 66.006 219.233C61.843 220.146 57.124 220.46 53.285 222.675C56.23 222.399 59.368 221.007 62.386 220.987C62.273 222.865 58.368 224.687 56.907 225.505C54.25 226.996 51.568 227.581 48.579 228.075C46.265 228.458 42.483 228.389 40.749 230.141C42.156 232.355 44.729 233.612 47.271 233.8C48.694 233.905 53.86 233.776 54.61 232.509C52.672 235.782 52.415 241.289 57.014 236.417C57.305 237.769 56.324 238.008 56.266 239.091C56.167 240.958 56.421 240.166 57.176 242.033C58.655 245.692 59.228 251.416 58.84 255.003C59.62 251.234 59.71 247.675 59.903 244.193C60.083 240.952 62.819 236.701 65.613 235.264C65.453 235.62 65.246 236.009 65.061 236.375C66.572 234.263 68.611 231.825 70.995 230.695C70.523 232.655 61.855 241.543 64.536 242.466C63.945 244.327 64.54 247.335 64.322 249.182C63.969 252.168 62.676 255.423 62.087 258.46C59.944 269.517 61.629 281.178 61.023 292.44C60.684 298.743 60.724 305.378 61.066 311.759C61.528 320.365 63.589 329.648 62.621 338.198C61.531 347.817 63.94 356.085 65.907 365.338C66.923 370.123 73.049 381.567 67.537 385.725C66.768 384.788 65.75 384.336 64.833 384.941C64.441 383.253 64.095 381.232 63.865 379.453C63.663 381.974 62.742 383.038 64.205 385.068C65.101 386.309 68.627 389.738 69.881 390.024C69.485 389.933 70.392 376.837 74.521 379.308C75.358 374.156 72.563 366.815 71.116 361.823C69.882 357.57 67.702 353.462 67.423 349.046C66.78 338.896 66.73 328.933 66.091 318.814C65.323 306.654 64.955 294.773 64.938 282.507C64.927 274.93 65.098 267.16 65.732 259.622C66.156 254.609 66.813 248.101 68.774 243.452Z" fill="#DCC06D"/>
<path d="M51.708 251.328C51.617 250.735 51.361 250.459 50.939 250.498C50.724 255.961 52.288 263.173 54.586 268.058C54.51 265.007 54.41 262.197 53.931 259.168C53.628 257.255 52.38 253.285 52.841 251.382C53.377 249.168 56.25 248.772 55.569 245.986C54.788 247.134 52.999 249.966 51.063 249.852C49.46 249.759 49.364 246.809 47.032 248.797C46.839 248.311 46.393 247.687 46.308 247.13C47.505 250.899 47.754 255.079 49.22 258.741C49.094 255.963 47.36 251.968 49.205 249.54" fill="#DCC06D"/>
<path d="M71.044 223.696C71.791 223.089 73.315 220.563 73.003 219.528C72.34 217.328 71.753 218.994 70.421 218.423C74.107 220.006 65.807 224.961 64.707 226.261C65.721 225.448 67.728 225.195 68.004 226.924C68.287 228.696 65.511 230.222 64.332 231.006C62.495 232.225 61.612 233.422 60.051 234.769C63.359 231.916 66.798 229.233 70.517 227.046C70.398 227.245 70.34 227.461 70.344 227.692C71.025 226.985 71.905 226.934 72.743 226.709C72.892 227.24 73.161 227.784 73.179 228.332C72.949 226.666 72.436 224.678 71.044 223.696Z" fill="#CCB25C"/>
<path d="M65.296 322.132C65.343 329.046 66.287 335.903 66.718 342.786C67.088 348.686 68.951 354.264 69.584 359.927C68.636 351.354 67.441 342.921 67.441 334.281C67.441 330.173 68.499 322.517 66.1 319.269C65.492 320.847 65.588 322.589 65.653 324.276" fill="#CCB25C"/>
<path d="M66.728 386.499C68.889 386.695 70.391 388.388 71.671 389.705C71.794 388.042 71.057 384.703 72.092 383.254C73.87 380.763 74.424 383.481 74.299 385.397C77.712 383.433 75.238 376.896 73.146 374.789C71.634 378.862 71.68 384.649 67.8 387.572" fill="#CCB25C"/>
<path d="M57.429 376.843C56.614 379.499 54.116 384.609 58.822 383.592C57.863 381.268 57.399 379.319 58.502 376.843" fill="#CCB25C"/>
<path d="M67.529 257.001C67.667 255.397 67.885 253.829 68.237 252.322C68.857 249.664 70.43 247.27 70.819 244.586C71.069 242.843 70.806 240.94 71.037 239.142C71.231 237.631 71.576 230.331 73.555 229.874C73.119 229.973 72.204 230.522 71.849 230.847C75.271 235.724 68.559 241.088 67.277 245.382C65.424 251.588 66.11 258.184 65.394 264.541C64.235 274.825 64.899 285.283 64.939 295.569C64.925 287.727 65.841 279.931 66.813 272.163C67.419 267.317 67.096 261.989 67.529 257.001Z" fill="#CCB25C"/>
<path d="M69.045 188.119C62.616 174.417 58.667 160.423 54.034 145.949C47.467 125.428 41.286 104.764 35.361 84.094C33.027 75.948 31.69 67.856 29.273 59.769C27.121 52.576 22.802 44.348 24.729 36.635C23.118 39.974 24.088 48.124 26.429 50.801C26.629 48.301 27.143 45.877 27.215 43.341C27.335 39.164 25.762 35.75 26.892 31.592C27.656 28.773 31.358 19.984 35.76 21.081C32.972 20.339 28.423 21.909 26.252 23.904C29.633 19.589 34.756 22.92 38.309 19.362C39.99 17.678 40.684 15.389 40.465 13.012C40.041 8.406 33.486 0.462992 28.269 1.09699C22.778 1.76499 23.214 9.30302 20.702 12.493C19.265 14.32 15.633 16.031 13.407 16.167C14.806 12.688 8.765 14.545 7.274 15.157C3.577 16.676 4.476 18.022 3.897 21.505C3.361 24.72 0.925994 27.596 1.11699 30.803C1.32499 34.296 4.26 36.128 5.843 39.01C9.751 46.121 12.043 54.051 14.426 61.914C17.21 71.099 20.073 79.942 21.528 89.338C23.101 99.49 26.786 109.149 29.094 119.131C31.766 130.686 35.253 142.362 36.793 154.07C38.211 164.847 38.062 177.345 36.435 188.125C35.543 194.038 30.823 199.337 31.137 205.449C31.346 209.505 36.229 214.169 40.376 214.171C44.032 214.173 47.063 212.444 50.48 211.382C55.553 209.805 59.318 211.719 64.138 211.469C68.619 211.237 71.28 208.642 73.625 204.955C77.928 198.189 71.773 193.933 69.045 188.119Z" fill="#F3D48C" stroke="#967348" stroke-width="0.3218"/>
<path d="M37.221 208.635C39.704 210.042 41.107 208.184 43.274 208.226C43.156 208.585 43.051 208.889 42.987 209.27C43.805 209.615 44.877 209.587 45.799 209.281C41.957 213.601 52.799 212.586 53.336 208.885C53.791 205.759 44.904 200.403 42.289 200.608C42.508 197.619 38.416 197.125 36.57 195.943C38.033 190.817 40.524 183.101 40.01 177.899C39.283 180.587 37.887 189.843 39.628 192.464C41.085 194.656 43.496 193.594 45.393 193.197C45.94 196.233 51.395 199.096 53.671 200.76C57.366 203.458 63.61 206.351 66.56 201.02C67.283 199.713 67.643 196.282 67.284 194.938C66.792 193.105 64.662 190.164 63.031 192.866C65.889 188.583 59.419 179.962 57.89 176.014C56.451 172.3 54.756 168.963 54.307 164.972C53.987 162.136 53.978 159.39 53.321 156.589C50.227 143.41 43.858 131.276 41.959 117.681C40.416 106.625 36.663 96.273 32.571 85.873C28.901 76.54 27.698 66.491 24.268 57.16C23.573 55.267 23.039 51.077 20.916 50.479C21.158 50.125 21.864 49.523 22.212 49.355C23.849 50.477 23.316 52.935 25.375 53.677C25.848 50.637 22.8 46.914 21.04 44.802C17.628 46.855 18.336 39.551 18.218 38.008C18.012 37.97 17.807 37.925 17.605 37.875C19.024 35.225 15.721 34.826 15.383 32.955C15.123 31.512 17.084 29.532 17.132 27.952C17.173 26.62 16.521 24.47 15.823 23.422C16.882 25.013 18.504 27.514 20.286 28.331C21.658 28.96 22.919 27.936 23.744 26.96C24.803 25.71 25.909 24.499 27.265 23.562C27.675 23.279 32.03 20.982 32.269 21.765C32.539 22.648 30.634 23.412 30.163 23.958C29.162 25.122 28.253 26.413 27.571 27.793C26.554 29.851 25.822 32.632 25.996 34.943C26.158 37.077 26.613 39.291 26.737 41.436C26.799 42.476 26.682 43.489 26.504 44.495C26.282 45.751 26.289 47.647 25.792 48.735C24.812 46.717 24.471 43.886 24.322 41.652C24.242 40.485 24.368 39.083 24.717 37.978C24.909 37.37 25.418 36.456 24.847 35.897C24.276 36.222 24.088 37.544 23.913 38.183C22.045 45.042 25.325 51.359 27.645 57.622C30.569 65.516 30.851 74.156 33.743 82.225C37.465 92.602 39.259 103.037 41.978 113.686C46.2 130.222 51.544 146.154 56.639 162.397C59.11 170.278 62.793 177.645 65.741 185.295C68.412 192.225 76.332 197.256 71.581 205.526C69.893 208.464 66.888 210.47 63.533 210.925C62.435 211.074 53.237 208.687 54.137 207.858C51.999 209.83 51.086 211.459 47.968 212.371C44.99 213.241 41.833 212.871 39.024 211.677C36.631 210.66 33.295 209.787 32.082 207.231C30.695 204.306 32.249 199.754 34.311 197.551C34.475 201.879 41.871 202.147 39.823 206.65C39.452 204.932 36.968 200.868 34.714 202.212C32.095 203.769 35.703 207.774 37.221 208.635Z" fill="#DCC06D"/>
<path d="M13.853 17.979C13.81 18.922 13.919 19.924 14.303 20.79C14.964 16.976 20.584 16.72 21.696 12.987C20.638 14.352 18.509 15.514 16.998 16.338C15.748 17.02 14.03 17.682 12.599 17.755C12.843 17.068 12.707 16.382 12.179 15.855C11.388 15.063 10.86 15.301 10.006 15.781C10.956 15.908 11.305 16.325 10.407 16.907C9.211 17.683 8.02901 17.706 7.04601 18.874C7.83201 17.661 12.447 16.001 13.121 18.082" fill="#DCC06D"/>
<path d="M11.108 34.464C11.381 36.15 10.256 38.324 8.82899 39.13C8.54999 38.726 7.447 37.951 6.963 38.391C6.474 38.834 7.094 40.093 7.315 40.495C6.829 38.002 4.604 36.777 3.521 34.648C4.892 34.338 5.83 36.673 7.095 36.896C7.878 37.034 8.80299 36.677 9.45399 36.276C9.85499 36.03 11.201 35.035 11.108 34.464Z" fill="#DCC06D"/>
<path d="M25.074 36.793C24.799 38.608 24.435 40.094 24.534 41.946C24.632 43.772 24.99 45.744 25.616 47.46C25.434 45.169 25.06 42.897 25.209 40.578C25.251 39.913 25.57 39.168 25.579 38.537C25.59 37.864 25.141 37.324 25.074 36.659" fill="#CCB25C"/>
<path d="M32.941 21.362C31.259 22.083 30.096 23.52 28.98 24.911C29.846 23.405 27.494 24.578 27.088 24.775C25.617 25.492 24.295 26.293 23.082 27.405C22.7 27.756 22.168 28.735 21.59 28.757C21.211 28.771 20.559 28.224 20.225 28.049C19.296 27.564 18.653 27.053 17.878 26.378C18.899 27.314 19.432 27.958 20.913 27.847C24.079 27.613 25.602 24.228 28.284 22.816C29.801 22.019 31.465 21.959 32.941 21.362Z" fill="#CCB25C"/>
<path d="M67.55 203.677C68.413 202.305 70.597 196.814 68.095 196.11C69.47 196.498 66.294 186.959 66.217 186.487C66.765 186.734 66.79 186.861 67.263 186.426C68.05 188.351 69.069 190.171 70.233 191.894C71.552 193.841 73.649 195.207 73.712 197.796C72.568 197.81 71.501 202.572 70.83 203.628C68.464 207.355 63.774 208.305 59.681 207.875C58.689 207.77 57.431 208.067 56.506 207.872C54.75 207.497 53.524 205.547 52.21 204.484C50.988 203.496 49.72 202.93 48.353 202.22C51.036 204.116 55.334 207.25 58.654 207.587C61.715 207.899 65.886 206.324 67.55 203.677Z" fill="#CCB25C"/>
<path d="M37.591 19.719C39.01 17.09 28.702 13.987 26.935 12.567C24.076 10.271 20.747 6.39298 23.61 3.41198C26.508 0.393976 30.398 0.896998 33.587 2.997C38.773 6.413 45.254 17.468 36.519 20.791" fill="#E1E2E3"/>
<path d="M37.591 19.719C39.01 17.09 28.702 13.987 26.935 12.567C24.076 10.271 20.747 6.39298 23.61 3.41198C26.508 0.393976 30.398 0.896998 33.587 2.997C38.773 6.413 45.254 17.468 36.519 20.791" stroke="#967348" stroke-width="0.3218"/>
<path d="M48.335 217.031C43.952 215.925 38.272 218.482 34.743 215.564C32.13 213.404 29.079 207.351 31.779 204.265C32.681 207.405 38.248 209.667 41.183 210.336C44.367 211.063 48.317 210.219 51.186 208.615C53.091 207.551 52.436 206.981 54.826 207.189C58.795 207.535 61.29 209.146 65.498 207.811C69.97 206.393 72.891 203.504 73.045 198.926C79.021 195.655 74.564 207.709 73.438 209.956C72.512 211.802 71.586 214.844 69.763 215.688C67.742 216.624 65.174 215.32 62.979 215.321C57.613 215.324 53.74 218.395 48.335 217.031Z" fill="#E1E2E3" stroke="#967348" stroke-width="0.3218"/>
<path d="M59.755 209.773C55.057 205.745 50.14 204.519 45.197 208.417C43.732 209.572 40.946 210.603 39.966 212.046C39.016 213.445 38.417 216.524 38.566 218.161C38.798 220.716 41.236 223.013 42.851 224.926C44.309 226.652 46.233 229.181 48.484 229.699C54.009 230.974 58.72 227.08 61.161 222.714C62.419 220.465 63.621 219.119 63.763 216.553C63.923 213.652 62.122 211.804 59.755 209.773Z" fill="#F3D48C" stroke="#967348" stroke-width="0.3218"/>
<path d="M54.25 228.838C46.735 232.591 37.051 217.49 42.617 215.717C42.281 217.271 44.451 220.545 46.075 218.71C47.249 217.381 44.356 215.648 43.665 214.916C43.951 214.666 44.464 214.48 44.87 214.427C45.834 217.326 50.205 215.651 46.91 213.329C47.781 212.748 51.318 214.897 52.688 215.14C54.762 215.502 57.421 216.02 58.635 213.864C58.092 213.372 57.461 212.647 57.073 211.974C59.269 211.087 60.853 212.484 62.584 214.153C64.474 215.974 64.03 217.341 62.901 219.706C61.231 223.198 57.742 227.094 54.25 228.838Z" fill="#DCC06D"/>
<path d="M48.758 228.084C50.919 229.178 55.742 226.402 54.679 223.871C55.772 223.034 56.768 221.954 57.817 221.137C57.899 221.414 58.047 221.657 58.125 221.896C61.446 221.181 58.058 218.287 56.909 217.371C57.025 216.638 57.177 215.966 57.386 215.251C61.225 215.203 58.716 211.875 57.534 210.686C56.992 210.896 56.516 210.76 55.935 210.88C55.979 210.744 56.436 209.795 56.509 209.667C58.73 211.252 62.671 213.242 62.38 216.548C62.009 220.777 59.041 224.708 55.784 227.012C51.533 230.019 46.662 230.678 44.225 224.92C46.913 224.01 47.146 229.368 50.366 227.548" fill="#CCB25C"/>
</svg>
