<svg width="185" height="88" viewBox="0 0 185 88" fill="none" xmlns="http://www.w3.org/2000/svg">
<path d="M147.002 21.278C145.345 24.094 144.835 25.289 141.233 24.718C138.506 24.284 135.146 23.618 132.861 21.957C132.079 21.386 131.536 20 130.662 19.582C128.787 18.686 126.836 20.844 125.895 22.343C124.748 24.176 123.962 27.142 123.953 29.257C123.943 30.764 124.452 32.26 124.695 33.732C125.117 36.269 124.624 38.281 124.542 40.711C124.181 51.063 121.914 62.18 125.626 72.228C126.616 74.905 127.776 78.55 129.911 80.482C132.431 82.761 136.307 83.234 139.535 83.42C142.853 83.608 145.012 82.281 148.102 80.475C152.384 77.972 152.114 75.888 153.982 71.56C155.544 67.943 157.362 64.584 159.294 61.172C161.26 57.695 163.696 54.978 166.071 51.801C166.919 50.667 167.744 49.466 168.679 48.359C169.259 47.674 170.899 46.424 171.233 45.683C172.124 43.704 169.011 43.165 168.204 40.863C167.649 39.279 167.442 37.016 167.653 35.354C167.838 33.913 168.954 32.432 169.027 31.062C169.132 29.074 166.439 26.567 164.475 25.979C165.647 23.997 168.846 21.931 171.138 21.414C174.436 20.67 177.895 21.515 181.076 20.956C184.333 20.386 185.369 16.841 183.765 14.299C181.937 11.401 177.875 8.67898 174.647 7.46098C173.071 6.86698 168.833 5.89999 167.454 7.60199C166.646 8.59599 167.573 9.88497 167.667 11.027C167.797 12.664 167.422 13.434 166.265 14.514C164.468 16.196 161.558 18.18 158.96 17.9C161.083 18.675 161.473 23.201 159.471 24.312C160.3 22.863 161.245 22.64 160.864 20.715C160.388 18.319 157.662 16.822 155.397 16.667C153.943 16.567 152.72 16.562 151.306 17.242C149.564 18.082 147.975 19.626 147.002 21.278Z" fill="#F9CE82" stroke="#967348" stroke-width="0.3218"/>
<path d="M151.69 58.166C151.663 57.881 151.652 57.592 151.663 57.295C151.754 55.062 153.452 53.908 154.214 51.947C154.384 51.515 155.084 50.45 154.706 49.958C154.547 49.749 153.346 49.131 153.214 49.591C153.824 47.476 154.998 45.199 155.658 42.941C156.009 41.736 157.566 38.658 156.864 37.404C156.295 36.388 154.386 36.471 153.471 35.974C153.938 35.064 154.855 34.174 155.308 33.261C154.282 32.659 151.727 33.041 151.891 34.574C152.089 34.671 152.255 34.755 152.366 34.829C151.391 34.948 150.359 35.09 149.669 35.693C149.831 35.905 150.043 36.279 150.208 36.443C147.27 36.536 143.359 34.491 141.587 32.206C140.86 31.268 140.572 30.596 139.527 29.846C138.583 29.169 137.435 29.049 136.829 28.017C139.892 28.642 142.067 29.416 144.831 30.871C146.239 31.614 147.083 32.073 148.794 31.899C148.311 30.188 146.205 29.529 145.73 27.856C145.359 26.55 146.282 24.328 146.809 23.088C148.394 19.354 151.373 17.747 155.035 17.235C153.552 18.383 154.134 19.503 155.333 20.608C156.328 21.526 158.767 22.264 157.318 20.164C157.968 20.615 158.711 20.637 159.299 20.165C159.364 21.797 161.15 22.91 159.723 24.317C159.011 25.018 157.482 24.802 156.594 24.884C155.637 24.97 154.242 24.764 153.433 25.429C152.222 26.425 153.272 27.481 152.704 28.431C153.216 27.575 154.549 26.935 155.517 26.778C156.06 26.688 159.138 27.58 159.08 27.619C159.858 27.087 160.107 26.268 159.647 25.515C162.307 21.952 174.814 20.136 174.619 14.868C175.212 15.264 175.883 15.708 176.456 16.087C177.191 14.24 176.859 10.748 175.264 9.44499C177.462 10.204 179.202 13.262 180.614 15.042C181.337 15.953 183.054 17.848 182.497 19.071C181.913 20.356 178.988 20.291 177.785 20.152C174.181 19.735 172.847 19.289 169.544 21.138C166.914 22.609 164.686 24.676 162.129 26.085C162.995 27.36 161.432 28.956 160.51 29.987C162.987 27.754 166.011 26.63 167.324 30.702C168.491 34.317 164.501 36.655 164.678 40.031C164.732 41.046 168.119 44.654 169.084 43.814C169.391 43.546 169.513 43.649 169.781 43.521C169.414 44.365 169.9 44.663 170.852 44.592C170.667 44.606 167.413 49.585 166.906 50.116C165.191 51.916 163.193 53.455 161.54 55.311C158.811 58.377 157.343 61.944 155.385 65.475C154.319 67.401 153.445 69.386 152.575 71.377C149.987 77.318 147.346 82.584 140.116 82.628C137.365 82.645 133.102 83.036 132.508 79.512C134.233 80.209 135.979 81.456 137.862 81.079C139.409 80.77 141.14 79.224 142.305 78.234C145.094 75.863 147.38 72.808 149.032 69.549C150.207 67.225 151.574 64.678 151.997 62.079C152.223 60.674 151.809 59.464 151.69 58.166Z" fill="#DCC06D"/>
<path d="M153.522 25.529C155.453 25.111 158.163 25.731 159.822 24.637C161.963 23.228 161.278 20.699 160.131 18.906C164.507 25.754 150.739 22.526 151.836 19.953C151.403 20.974 151.445 22.364 152.281 23.094C150.405 24.033 149.046 27.581 151.254 28.962C151.182 26.642 152.155 25.825 153.522 25.529Z" fill="#CCB25C"/>
<path d="M175.446 16.116C177.15 15.506 179.321 15.579 180.232 17.167C179.161 13.334 175.706 8.55598 171.254 8.85598C171.65 9.74998 169.127 11.422 169.317 13.355C170.983 11.591 174.47 12.834 175.413 14.737C175.272 14.794 175.127 14.804 174.979 14.768C176.036 15.182 177.553 15.004 177.553 16.344C176.963 16.536 176.59 16.331 176.248 16.117" fill="#CCB25C"/>
<path d="M128.792 73.15C126.992 67.967 127.999 61.212 128.711 55.829C129.05 53.268 128.882 51.212 127.51 49.08C128.195 50.145 126.668 56.122 126.768 57.704C127.101 62.882 128.374 67.954 128.792 73.15Z" fill="#DCC06D"/>
<path d="M40.19 19.02C40.655 21.9 38.697 24.773 39.056 27.595C39.344 29.848 41.029 27.561 41.673 26.307C42.123 25.434 42.346 24.36 43.01 23.64C44.146 22.408 45.056 22.907 46.509 22.364C49.282 21.324 51.213 18.908 53.623 17.607C56.059 16.292 58.175 15.389 59.857 18.194C61.318 20.632 60.558 24.08 59.792 26.557C57.65 33.474 56.428 40.284 57.647 47.273C58.318 51.122 59.54 55.44 59.315 59.365C59.087 63.355 56.889 65.228 55.152 68.388C53.162 72.007 54.33 77.05 51.651 80.285C48.926 83.576 43.206 86.872 38.912 86.91C34.502 86.948 30.793 83.805 29.473 79.683C27.764 74.344 27.355 68.623 25.522 63.304C24.324 59.828 22.95 56.35 21.118 53.153C19.759 50.781 16.609 49.956 15.521 47.782C14.789 46.319 16.92 43.078 17.208 41.521C17.642 39.183 17.832 36.911 17.47 34.562C17.189 32.748 16.301 31.27 15.91 29.6C17.649 28.677 17.969 26.53 19.567 25.438C20.634 24.709 22.096 25.498 23.207 25.6C23.103 21.344 13.54 21.234 10.731 20.929C6.911 20.514 -1.193 19.035 1.622 13.153C2.266 11.805 3.787 11.447 4.93 10.744C6.657 9.68299 7.408 8.26798 8.954 6.99098C10.369 5.82298 13.428 3.94098 15.246 4.61598C15.975 4.88698 19.082 8.85097 18.776 9.48597C18.206 10.667 16.694 11.256 17.456 12.694C17.863 13.464 20.37 14.222 21.155 14.507C23.22 15.255 27.88 17.117 29.924 15.746C29.039 16.253 28.021 16.865 26.996 17.144C25.98 17.42 24.888 17.202 24.266 18.079C22.858 20.067 25.314 23.378 27.474 23.228C25.938 22.806 22.487 19.902 24.48 17.944C25.072 17.363 26.846 17.137 27.667 16.793C30.065 15.785 31.253 13.816 33.963 14.101C36.068 14.323 38.446 15.331 39.55 17.236C39.895 17.831 40.094 18.425 40.19 19.02Z" fill="#F9CE82" stroke="#967348" stroke-width="0.3218"/>
<path d="M35.18 56.269C35.126 54.791 35.179 53.487 35.217 52.865C35.448 52.969 35.713 53.039 35.956 53.12C35.538 51.393 35.522 49.802 35.406 48.047C33.943 48.829 33.269 50.477 31.465 50.879C31.253 49.054 33.062 43.905 32.195 42.656C31.132 41.124 28.234 42.92 26.925 41.605C22.336 36.994 34.592 24.006 38.872 34.271C38.888 33.979 38.984 33.606 38.993 33.302C38.999 33.329 39.195 33.858 39.255 34.063C40.186 32.997 42.41 29.652 44.015 29.453C46.096 29.194 45.918 31.634 46.456 33.198C46.414 29.127 47.795 24.942 50.773 22.125C48.254 23.967 45.871 25.987 43.324 27.791C43.122 27.934 36.712 30.872 36.945 30.046C37.427 28.336 39.534 27.677 40.009 26.004C40.381 24.697 39.456 22.476 38.93 21.236C37.344 17.502 34.365 15.894 30.703 15.383C32.186 16.531 31.604 17.65 30.406 18.755C29.41 19.674 26.972 20.411 28.422 18.313C27.772 18.764 27.029 18.784 26.439 18.314C26.374 19.946 24.588 21.058 26.017 22.464C26.729 23.167 28.257 22.949 29.146 23.032C30.102 23.118 31.499 22.911 32.306 23.577C33.517 24.573 32.467 25.628 33.035 26.579C32.523 25.723 31.19 25.082 30.222 24.926C29.677 24.838 26.601 25.729 26.658 25.768C25.881 25.236 25.63 24.417 26.091 23.664C23.433 20.101 10.925 18.287 11.117 13.018C10.525 13.414 9.857 13.858 9.281 14.236C8.546 12.389 8.88 8.89699 10.474 7.59499C8.275 8.35299 6.536 11.411 5.124 13.192C4.401 14.102 2.686 15.997 3.243 17.22C3.827 18.505 6.75 18.44 7.953 18.301C11.557 17.884 12.891 17.438 16.195 19.287C18.823 20.758 21.053 22.826 23.611 24.234C22.744 25.508 24.309 27.105 25.231 28.136C22.752 25.904 19.729 24.78 18.416 28.851C17.25 32.465 21.239 34.803 21.062 38.179C21.009 39.193 17.619 42.802 16.657 41.962C16.349 41.694 16.225 41.796 15.96 41.669C16.325 42.512 15.84 42.811 14.889 42.739C15.751 42.803 17.544 46.55 17.948 47.293C19.135 49.481 20.344 50.267 22.097 51.989C23.782 53.645 24.821 55.124 25.592 57.36C27.14 61.856 27.238 66.826 28.953 71.313C29.618 73.051 30.508 75.652 31.895 77.018C32.916 78.023 33.458 77.885 34.174 79.406C35.242 81.675 35.72 82.96 38.68 82.896C40.531 82.856 42.104 82.108 43.532 81.142C41.974 81.667 39.899 80.586 39.179 79.071C38.522 77.691 39.163 77.258 38.882 75.92C38.507 74.136 37.623 73.022 37.596 70.896C37.561 68.205 37.877 65.7 38.372 63.074C35.931 63.658 35.297 59.541 35.18 56.269Z" fill="#DCC06D"/>
<path d="M32.215 23.675C30.286 23.258 27.575 23.879 25.914 22.784C23.775 21.375 24.462 18.846 25.608 17.053C21.232 23.9 34.999 20.672 33.901 18.1C34.336 19.121 34.293 20.51 33.457 21.241C35.333 22.179 36.692 25.728 34.483 27.108C34.556 24.789 33.582 23.972 32.215 23.675Z" fill="#CCB25C"/>
<path d="M10.292 14.262C8.588 13.652 6.416 13.726 5.506 15.312C6.577 11.48 10.031 6.70099 14.484 7.00199C14.089 7.89499 16.609 9.56799 16.421 11.5C14.755 9.73699 11.269 10.98 10.325 12.883C10.467 12.939 10.612 12.949 10.757 12.915C9.704 13.329 8.185 13.149 8.183 14.491C8.776 14.682 9.147 14.478 9.489 14.262" fill="#CCB25C"/>
<path d="M53.968 71.298C55.768 66.114 54.761 59.358 54.048 53.977C53.71 51.415 53.879 49.36 55.249 47.227C54.565 48.293 56.092 54.271 55.991 55.852C55.659 61.03 54.385 66.1 53.968 71.298Z" fill="#DCC06D"/>
<path d="M17.94 7.07C17.777 4.868 18.423 2.98499 15.656 2.91399C14.295 2.87899 12.913 3.51199 12.032 4.55099C10.061 6.87999 11.401 9.27899 14.259 9.67199C15.326 9.81899 16.556 9.90099 17.476 9.14799C18.948 7.94699 18.032 8.319 17.94 7.07Z" fill="#E1E2E3" stroke="#CCB25C" stroke-width="0.3218"/>
<path d="M167.868 5.84398C165.901 7.57498 168.787 8.20399 167.516 9.68399C167.372 9.84999 172.494 10.717 173.315 10.47C174.787 10.029 177.482 8.71898 176.471 6.78598C175.219 4.40298 169.667 4.26398 167.868 5.84398Z" fill="#E1E2E3" stroke="#CCB25C" stroke-width="0.3218"/>
<path d="M20.406 32.97C22.055 35.299 21.225 39.073 20.546 41.553C20.207 42.791 19.471 44.151 18.622 45.129C18.073 45.761 15.637 46.976 16.961 47.785C21.01 44.928 23.143 36.56 20.647 32.242C20.761 32.215 20.966 32.199 21.065 32.184C20.595 31.284 19.898 30.632 19.228 29.947C19.756 31.353 20.235 32.901 20.944 34.223" fill="#CCB25C"/>
<path d="M80.558 10.234C75.773 6.79497 69.168 5.81599 63.409 5.06999C59.147 4.51899 54.972 4.16597 50.704 3.69297C48.751 3.47497 46.848 2.92897 44.886 2.77697C42.237 2.57197 39.563 2.76698 36.91 2.66598C35.43 2.60998 33.93 2.26698 32.463 2.26498C30.974 2.26298 29.524 2.65499 28.012 2.55699C25.743 2.41099 24.008 2.66698 21.821 1.87298C19.935 1.18698 18.286 0.638987 16.472 1.89099C15.12 2.82299 13.673 4.58298 13.966 6.33398C14.199 7.72698 15.466 8.60799 15.968 9.87799C16.917 10.067 18.15 9.77998 19.143 9.73198C20.778 9.64898 22.429 9.83598 24.058 9.61898C25.545 9.42298 26.586 8.89798 28.114 9.02098C29.261 9.11398 30.385 9.19598 31.543 9.19098C33.717 9.18097 35.839 9.51998 37.975 9.94998C44.789 11.325 51.794 11.437 58.697 11.143C64.37 10.902 69.809 11.392 74.403 15.066C77.337 17.414 78.599 21.301 82.787 18.519C86.973 15.737 83.567 12.396 80.558 10.234Z" fill="#F3D48C" stroke="#967348" stroke-width="0.3218"/>
<path d="M16.651 6.86598C18.149 6.87598 19.591 7.02598 21.09 7.04498C22.177 7.05798 22.203 7.36598 22.895 7.63098C25.093 8.46698 29.049 8.72199 31.259 7.71599C31.005 7.66899 30.723 7.55399 30.429 7.54199C31.53 7.21599 33.593 6.92198 34.843 7.40898C33.795 8.02198 36.082 8.65498 36.668 8.78798C39.043 9.32898 41.763 9.59198 44.204 9.73598C45.782 9.82898 47.418 9.74398 48.996 9.72598C50.378 9.71098 51.758 9.47298 53.137 9.53998C54.006 9.58198 54.744 9.92599 55.579 9.53499C55.376 9.63599 55.221 9.79998 55.108 9.87498C61.779 10.5 70.843 7.46898 75.636 13.629C75.237 13.504 74.818 13.433 74.475 13.107C75.745 14.612 76.724 15.678 78.442 16.718C76.041 15.218 73.771 13.078 71.189 11.908C68.975 10.905 66.621 10.782 64.211 10.616C58.418 10.22 52.525 11.139 46.818 10.433C42.425 9.88898 37.8 8.57299 33.408 8.29099C29.779 8.05999 25.813 8.20198 22.231 8.61398C20.314 8.83398 17.098 9.82099 15.614 8.10799C14.738 7.09399 14.66 5.53899 15.398 4.51599C15.544 5.58099 16.94 6.23199 17.007 6.86499" fill="#DCC06D"/>
<path d="M109.691 18.82C110.465 18.433 111.224 17.984 111.959 17.601C115.056 15.984 118.976 15.18 122.395 14.511C124.388 14.121 126.293 13.358 128.309 13.224C130.705 13.063 133.099 13.516 135.497 13.391C138.118 13.252 140.757 13.127 143.322 12.596C147.341 11.764 151.233 10.37 155.294 9.738C159.519 9.081 162.29 10.059 166.398 10.493C168.844 10.751 170.835 8.48299 172.024 6.57999C174.207 3.09899 169.207 3.60898 166.607 3.17998C157.211 1.62498 148.188 3.12099 138.987 5.28399C137.693 5.58899 136.256 6.093 134.98 6.298C131.959 6.783 128.807 6.86499 125.747 7.21899C123.029 7.53199 120.496 7.90599 117.843 8.48299C116.502 8.77399 112.905 10.273 111.956 9.17899C108.759 11.247 100.514 10.139 100.814 15.903C100.865 16.876 103.269 18.32 104.261 18.996C106.095 20.25 107.936 19.695 109.691 18.82Z" fill="#F3D48C" stroke="#967348" stroke-width="0.3218"/>
<path d="M104.621 16.878C105.295 18.464 107.705 17.863 108.899 17.554C108.827 17.501 108.699 17.449 108.575 17.375C109.038 16.773 110.448 16.597 111.178 16.547C111.114 16.636 111.08 16.737 111.078 16.846C113.193 16.99 115.999 15.261 118.082 14.727C119.833 14.279 125.084 14.439 126.078 13.202C120.227 12.016 114.29 15.574 108.558 15.982C106.626 16.12 105.154 17.544 103.441 16.139C103.757 16.647 104.227 17.037 104.8 17.233" fill="#DCC06D"/>
<path d="M134.301 12.051C136.555 11.612 138.985 11.545 141.156 10.769C142.226 10.386 145.044 9.60399 145.609 8.85999C146.451 9.31999 148.852 8.51498 149.954 8.33598C152.588 7.90598 155.268 7.60999 157.926 7.44199C160.28 7.29399 162.674 8.09799 164.984 7.92499C164.901 7.95299 164.867 8.01599 164.88 8.11299C165.76 8.52999 167.14 8.90999 168.061 8.29599C168.576 7.95399 169.332 7.61999 168.241 7.21199C168.352 7.22799 169.396 7.52498 169.858 7.61198C168.889 9.50498 166.782 9.38099 164.863 9.06499C161.211 8.46699 157.483 7.71299 153.787 8.29599C150.641 8.79399 147.628 10.119 144.636 11.146C142.884 11.748 140.978 12.14 139.128 12.239C137.29 12.338 134.748 11.69 133.051 12.409" fill="#DCC06D"/>
<path d="M171.668 45.575C169.992 45.776 168.477 45.926 166.856 45.623C167.028 45.748 167.342 46.14 167.563 46.327C166.838 46.513 165.83 46.766 165.231 47.252C163.865 48.358 164.844 47.995 164.124 49.587C162.401 53.387 159.302 57.608 156.738 60.905C159.013 59.363 160.986 56.502 162.888 54.481C164.388 52.888 165.838 51.211 167.362 49.66C168.323 48.679 172.008 46.349 171.132 45.308" fill="#CCB25C"/>
</svg>
